<?xml version="1.0" encoding="UTF-8"?>
<svg id="Layer_1" xmlns="http://www.w3.org/2000/svg" xmlns:xlink="http://www.w3.org/1999/xlink" version="1.1" viewBox="0 0 960 246">
  <!-- Generator: Adobe Illustrator 29.4.0, SVG Export Plug-In . SVG Version: 2.1.0 Build 152)  -->
  <defs>
    <style>
      .st0, .st1, .st2, .st3, .st4 {
        fill: none;
      }

      .st5, .st6, .st7, .st8, .st9, .st10, .st11 {
        fill-rule: evenodd;
      }

      .st5, .st12 {
        fill: #fff;
      }

      .st6 {
        fill-opacity: .1;
      }

      .st6, .st7, .st13, .st8, .st9, .st11 {
        fill: #156082;
      }

      .st8 {
        fill-opacity: .8;
      }

      .st9 {
        fill-opacity: .4;
      }

      .st1 {
        stroke-dasharray: 4 3;
      }

      .st1, .st2, .st3, .st4 {
        stroke-linejoin: round;
      }

      .st1, .st2, .st11 {
        stroke: #156082;
      }

      .st3 {
        stroke: #005c6d;
      }

      .st4 {
        stroke: #0e2841;
        stroke-dasharray: 1 3;
      }

      .st10 {
        fill-opacity: 0;
      }

      .st11 {
        stroke-miterlimit: 10;
      }

      .st14 {
        clip-path: url(#clippath);
      }
    </style>
    <clipPath id="clippath">
      <rect class="st0" y="-136" width="960" height="540"/>
    </clipPath>
  </defs>
  <g class="st14">
    <g>
      <path class="st5" d="M0,0h960v247H0V0Z"/>
      <path class="st5" d="M250.4,68.5h0c0-13.9,11.3-25.2,25.2-25.2h596.5c6.7,0,13.1,2.7,17.8,7.4,4.7,4.7,7.4,11.1,7.4,17.8v100.8c0,13.9-11.3,25.2-25.2,25.2H275.6c-13.9,0-25.2-11.3-25.2-25.2v-100.8Z"/>
      <path class="st1" d="M250.4,68.5h0c0-13.9,11.3-25.2,25.2-25.2h596.5c6.7,0,13.1,2.7,17.8,7.4,4.7,4.7,7.4,11.1,7.4,17.8v100.8c0,13.9-11.3,25.2-25.2,25.2H275.6c-13.9,0-25.2-11.3-25.2-25.2v-100.8Z"/>
      <path class="st5" d="M48.7,118.9h0c0-18.1,14.7-32.8,32.8-32.8h0c8.7,0,17,3.5,23.2,9.6,6.1,6.1,9.6,14.5,9.6,23.2h0c0,18.1-14.7,32.8-32.8,32.8h0c-18.1,0-32.8-14.7-32.8-32.8Z"/>
      <path class="st2" d="M48.7,118.9h0c0-18.1,14.7-32.8,32.8-32.8h0c8.7,0,17,3.5,23.2,9.6,6.1,6.1,9.6,14.5,9.6,23.2h0c0,18.1-14.7,32.8-32.8,32.8h0c-18.1,0-32.8-14.7-32.8-32.8Z"/>
      <path class="st13" d="M77.8,113.7c0,.6-.1,1.2-.4,1.6-.2.4-.6.8-1,1-.4.2-1,.3-1.6.3h-1.6v-5.7h1.8c.6,0,1.1.1,1.5.3.4.2.8.5,1,.9.2.4.3.9.3,1.5ZM76.9,113.7c0-.5,0-.9-.2-1.2-.2-.3-.4-.5-.7-.7-.3-.2-.7-.2-1.1-.2h-.9v4.2h.7c.7,0,1.3-.2,1.6-.5.4-.4.5-.9.5-1.6ZM80.7,112.2c.5,0,.9.1,1.2.4.3.2.4.6.4,1.1v2.9h-.6l-.2-.6h0c-.1.1-.3.3-.4.4-.1.1-.3.2-.4.2-.2,0-.4,0-.6,0s-.5,0-.7-.1c-.2,0-.4-.2-.5-.4-.1-.2-.2-.4-.2-.7,0-.4.2-.8.5-1,.3-.2.8-.4,1.5-.4h.7v-.2c0-.3,0-.6-.2-.7-.1-.1-.3-.2-.6-.2s-.4,0-.6.1c-.2,0-.4.1-.6.2l-.2-.6c.2-.1.4-.2.7-.3.3,0,.6-.1.9-.1ZM80.8,114.6c-.5,0-.8,0-1,.2-.2.1-.3.3-.3.6s0,.4.2.5c.1.1.3.2.5.2.3,0,.6,0,.8-.3s.3-.5.3-.8v-.4h-.6ZM85.1,116c.1,0,.2,0,.3,0,.1,0,.2,0,.3,0v.6c0,0-.2,0-.4.1s-.3,0-.5,0c-.2,0-.4,0-.6-.1-.2,0-.4-.2-.5-.4-.1-.2-.2-.5-.2-.8v-2.4h-.6v-.4l.6-.3.3-.9h.5v1h1.2v.7h-1.2v2.4c0,.2,0,.4.2.5.1.1.3.2.5.2ZM88.3,112.2c.5,0,.9.1,1.2.4.3.2.4.6.4,1.1v2.9h-.6l-.2-.6h0c-.1.1-.3.3-.4.4-.1.1-.3.2-.4.2-.2,0-.4,0-.6,0s-.5,0-.7-.1c-.2,0-.4-.2-.5-.4-.1-.2-.2-.4-.2-.7,0-.4.2-.8.5-1,.3-.2.8-.4,1.5-.4h.7v-.2c0-.3,0-.6-.2-.7-.1-.1-.3-.2-.6-.2s-.4,0-.6.1c-.2,0-.4.1-.6.2l-.2-.6c.2-.1.4-.2.7-.3.3,0,.6-.1.9-.1ZM88.5,114.6c-.5,0-.8,0-1,.2-.2.1-.3.3-.3.6s0,.4.2.5c.1.1.3.2.5.2.3,0,.6,0,.8-.3s.3-.5.3-.8v-.4h-.6Z"/>
      <path class="st13" d="M72.3,125.4c0,.3,0,.5-.2.7-.1.2-.3.3-.6.4-.3,0-.6.1-.9.1s-.6,0-.8,0c-.2,0-.4-.1-.6-.2v-.8c.2,0,.4.2.7.2.2,0,.5.1.7.1s.6,0,.7-.2c.1-.1.2-.2.2-.4s0-.2,0-.3c0,0-.2-.2-.3-.2-.1,0-.4-.2-.6-.3-.3-.1-.5-.2-.7-.3-.2-.1-.3-.2-.4-.4-.1-.2-.2-.3-.2-.6,0-.4.2-.7.5-.9.3-.2.7-.3,1.2-.3s.5,0,.7,0c.2,0,.5.1.7.2l-.3.6c-.2,0-.4-.1-.6-.2-.2,0-.4,0-.6,0s-.5,0-.6.1c-.1,0-.2.2-.2.3s0,.2,0,.3c0,0,.2.1.3.2.2,0,.4.2.6.3.3.1.5.2.7.3.2.1.3.2.4.4.1.2.2.3.2.6ZM77.1,124.4c0,.4,0,.7-.1,1,0,.3-.2.5-.4.7-.2.2-.4.3-.7.4-.2,0-.5.1-.8.1s-.6,0-.8-.1c-.2-.1-.5-.2-.6-.4-.2-.2-.3-.4-.4-.7,0-.3-.1-.6-.1-1s0-.9.2-1.2c.2-.3.4-.6.7-.8.3-.2.7-.3,1.1-.3s.7,0,1,.3c.3.2.5.4.7.8.2.3.3.7.3,1.2ZM73.9,124.4c0,.3,0,.6.1.8,0,.2.2.4.4.5.2.1.4.2.7.2s.5,0,.6-.2c.2-.1.3-.3.4-.5,0-.2.1-.5.1-.8s0-.6-.1-.8c0-.2-.2-.4-.4-.5-.2-.1-.4-.2-.7-.2-.4,0-.7.1-.9.4-.2.3-.3.6-.3,1.1ZM81.9,122.3v4.3h-.7v-.6h-.2c0,.1-.2.3-.4.4s-.3.2-.5.2c-.2,0-.3,0-.5,0-.3,0-.6,0-.9-.2-.2-.1-.4-.3-.5-.5-.1-.2-.2-.5-.2-.9v-2.8h.9v2.7c0,.3,0,.6.2.8.1.2.4.2.7.2s.5,0,.7-.2c.2-.1.3-.3.4-.5,0-.2.1-.5.1-.8v-2.2h.9ZM85.3,122.2c0,0,.2,0,.2,0,0,0,.2,0,.2,0v.8c-.2,0-.2,0-.3,0,0,0-.2,0-.2,0-.2,0-.3,0-.5,0-.1,0-.3.2-.4.3-.1.1-.2.2-.3.4,0,.2,0,.4,0,.6v2.3h-.8v-4.3h.7v.8h.2c0-.2.2-.3.3-.4.1-.1.3-.2.4-.3.2,0,.3-.1.5-.1ZM88.2,126.7c-.4,0-.7,0-1-.2-.3-.2-.5-.4-.7-.7-.2-.3-.3-.8-.2-1.3,0-.5,0-.9.3-1.3.2-.3.4-.6.7-.7.3-.2.7-.2,1.1-.2s.4,0,.7,0c.2,0,.4,0,.5.2l-.2.7c-.1,0-.3-.1-.5-.2-.2,0-.3,0-.5,0-.3,0-.5,0-.7.2-.2.1-.3.3-.4.5,0,.2-.1.5-.1.8,0,.3,0,.6.1.8,0,.2.2.4.4.5.2.1.4.2.6.2s.5,0,.6,0c.2,0,.4-.1.5-.2v.7c-.1,0-.3.1-.5.2-.2,0-.4,0-.7,0ZM92,122.2c.4,0,.7,0,1,.2.3.2.5.4.6.7.1.3.2.6.2,1v.5h-2.9c0,.4.1.8.3,1,.2.2.5.3,1,.3s.5,0,.7,0c.2,0,.4-.1.7-.2v.7c-.2,0-.4.2-.7.2-.2,0-.5,0-.8,0s-.8,0-1.1-.2c-.3-.2-.6-.4-.7-.8-.2-.3-.3-.7-.3-1.2,0-.5,0-.9.2-1.2.2-.3.4-.6.7-.8.3-.2.6-.3,1-.3ZM92,122.9c-.3,0-.6,0-.7.3-.2.2-.3.5-.3.8h2c0-.2,0-.4-.1-.6,0-.2-.2-.3-.3-.4-.1-.1-.3-.2-.5-.2Z"/>
      <path class="st6" d="M267.7,98.3h0c0-6,4.9-10.9,10.9-10.9h93.9c2.9,0,5.7,1.2,7.7,3.2,2,2,3.2,4.8,3.2,7.7v43.7c0,6-4.9,10.9-10.9,10.9h-93.9c-6,0-10.9-4.9-10.9-10.9v-43.7Z"/>
      <path class="st2" d="M267.7,98.3h0c0-6,4.9-10.9,10.9-10.9h93.9c2.9,0,5.7,1.2,7.7,3.2,2,2,3.2,4.8,3.2,7.7v43.7c0,6-4.9,10.9-10.9,10.9h-93.9c-6,0-10.9-4.9-10.9-10.9v-43.7Z"/>
      <path class="st13" d="M293.1,124.9l-1-2.7h-3.7l-1,2.7h-1.5l3.6-9.6h1.5l3.6,9.6h-1.5ZM290.7,118.3c0,0,0-.2-.2-.4,0-.2-.1-.4-.2-.6,0-.2-.1-.4-.1-.5,0,.2,0,.4-.1.6,0,.2-.1.4-.2.6,0,.2,0,.3-.1.5l-1,2.7h2.8l-.9-2.7ZM298.2,117.6c.5,0,.9,0,1.3.3.4.2.7.4.9.8h0l.2-.9h1.2v7.3c0,.7-.1,1.2-.4,1.7-.2.5-.6.8-1.1,1-.5.2-1.1.4-1.9.4s-1,0-1.5-.1c-.4,0-.8-.2-1.2-.3v-1.3c.4.2.8.3,1.2.4s.9.1,1.5.1,1.1-.2,1.4-.5c.3-.3.5-.8.5-1.3v-.2c0-.1,0-.3,0-.5,0-.2,0-.3,0-.5h0c-.2.4-.5.6-.9.8-.4.2-.8.3-1.3.3-.9,0-1.6-.3-2.1-1-.5-.7-.8-1.6-.8-2.8s.3-2.1.8-2.7c.5-.7,1.2-1,2.1-1ZM298.5,118.8c-.4,0-.7,0-1,.3-.2.2-.4.5-.6.9-.1.4-.2.9-.2,1.4,0,.8.1,1.5.4,1.9.3.4.7.6,1.3.6s.6,0,.8-.1c.2,0,.4-.2.6-.4s.3-.4.3-.7c0-.3.1-.6.1-1v-.3c0-.6,0-1.1-.2-1.5-.1-.4-.3-.7-.6-.8-.3-.2-.6-.3-1.1-.3ZM306.4,117.6c.5,0,.9,0,1.3.3.4.2.7.4.9.8h0l.2-.9h1.2v7.3c0,.7-.1,1.2-.4,1.7-.2.5-.6.8-1.1,1-.5.2-1.1.4-1.9.4s-1,0-1.5-.1c-.4,0-.8-.2-1.2-.3v-1.3c.4.2.8.3,1.2.4s.9.1,1.5.1,1.1-.2,1.4-.5c.3-.3.5-.8.5-1.3v-.2c0-.1,0-.3,0-.5,0-.2,0-.3,0-.5h0c-.2.4-.5.6-.9.8-.4.2-.8.3-1.3.3-.9,0-1.6-.3-2.1-1-.5-.7-.8-1.6-.8-2.8s.3-2.1.8-2.7c.5-.7,1.2-1,2.1-1ZM306.8,118.8c-.4,0-.7,0-1,.3-.2.2-.4.5-.6.9-.1.4-.2.9-.2,1.4,0,.8.1,1.5.4,1.9.3.4.7.6,1.3.6s.6,0,.8-.1c.2,0,.4-.2.6-.4s.3-.4.3-.7c0-.3.1-.6.1-1v-.3c0-.6,0-1.1-.2-1.5-.1-.4-.3-.7-.6-.8-.3-.2-.6-.3-1.1-.3ZM315.8,117.6c.1,0,.3,0,.4,0,.2,0,.3,0,.4,0l-.2,1.3c-.1,0-.2,0-.4,0-.1,0-.3,0-.4,0-.2,0-.5,0-.7.2-.2.1-.5.2-.6.4s-.3.4-.5.7c-.1.3-.2.6-.2,1v3.8h-1.4v-7.2h1.1l.2,1.3h0c.1-.3.3-.5.5-.7s.5-.4.7-.5c.3-.1.6-.2.9-.2ZM320.4,117.6c.6,0,1.2.1,1.6.4.5.3.8.6,1,1.1.2.5.4,1.1.4,1.7v.8h-4.8c0,.7.2,1.3.6,1.7.4.4.9.6,1.6.6s.9,0,1.2-.1c.4,0,.7-.2,1.1-.4v1.2c-.4.2-.7.3-1.1.4-.4,0-.8.1-1.3.1s-1.3-.1-1.8-.4c-.5-.3-.9-.7-1.2-1.2-.3-.6-.4-1.2-.4-2s.1-1.5.4-2c.3-.6.7-1,1.1-1.3.5-.3,1.1-.5,1.7-.5ZM320.5,118.7c-.5,0-.9.2-1.2.5-.3.3-.5.8-.5,1.4h3.4c0-.4,0-.7-.2-1-.1-.3-.3-.5-.5-.7-.2-.2-.5-.2-.9-.2ZM327.7,117.6c.5,0,.9,0,1.3.3.4.2.7.4.9.8h0l.2-.9h1.2v7.3c0,.7-.1,1.2-.4,1.7-.2.5-.6.8-1.1,1-.5.2-1.1.4-1.9.4s-1,0-1.5-.1c-.4,0-.8-.2-1.2-.3v-1.3c.4.2.8.3,1.2.4s.9.1,1.5.1,1.1-.2,1.4-.5c.3-.3.5-.8.5-1.3v-.2c0-.1,0-.3,0-.5,0-.2,0-.3,0-.5h0c-.2.4-.5.6-.9.8-.4.2-.8.3-1.3.3-.9,0-1.6-.3-2.1-1-.5-.7-.8-1.6-.8-2.8s.3-2.1.8-2.7c.5-.7,1.2-1,2.1-1ZM328,118.8c-.4,0-.7,0-1,.3-.2.2-.4.5-.6.9-.1.4-.2.9-.2,1.4,0,.8.1,1.5.4,1.9.3.4.7.6,1.3.6s.6,0,.8-.1c.2,0,.4-.2.6-.4s.3-.4.3-.7c0-.3.1-.6.1-1v-.3c0-.6,0-1.1-.2-1.5-.1-.4-.3-.7-.6-.8-.3-.2-.6-.3-1.1-.3ZM336.4,117.6c.9,0,1.5.2,2,.6.4.4.7,1,.7,1.8v4.9h-1l-.3-1h0c-.2.3-.4.5-.6.6-.2.2-.5.3-.8.4-.3,0-.6.1-1,.1s-.8,0-1.2-.2-.6-.4-.8-.7c-.2-.3-.3-.7-.3-1.2,0-.7.3-1.3.8-1.7.6-.4,1.4-.6,2.5-.6h1.2v-.4c0-.6-.1-.9-.4-1.1-.2-.2-.6-.3-1-.3s-.7,0-1,.2c-.3.1-.7.2-1,.4l-.4-1c.3-.2.7-.3,1.2-.4.4-.1.9-.2,1.4-.2ZM336.6,121.5c-.8,0-1.4.2-1.7.4-.3.2-.5.6-.5,1s.1.6.3.8c.2.2.5.3.9.3.6,0,1-.2,1.4-.5.4-.3.6-.8.6-1.4v-.6h-1ZM343.7,123.9c.2,0,.4,0,.6,0,.2,0,.4,0,.5-.1v1.1c-.1,0-.3.1-.6.2-.3,0-.5,0-.8,0-.4,0-.8,0-1.1-.2-.3-.1-.6-.4-.8-.7-.2-.3-.3-.8-.3-1.4v-4h-1v-.6l1.1-.5.5-1.5h.9v1.6h2v1.1h-2v4c0,.4,0,.7.3.9s.4.3.8.3ZM347.6,117.7v7.2h-1.4v-7.2h1.4ZM347,115c.2,0,.4,0,.5.2.2.1.2.3.2.6s0,.5-.2.6c-.2.1-.3.2-.5.2s-.4,0-.6-.2-.2-.3-.2-.6,0-.5.2-.6.3-.2.6-.2ZM356.2,121.3c0,.6,0,1.1-.2,1.6-.2.5-.4.8-.7,1.2-.3.3-.7.6-1.1.7-.4.2-.9.2-1.4.2s-.9,0-1.3-.2c-.4-.2-.8-.4-1.1-.7-.3-.3-.5-.7-.7-1.2-.2-.5-.2-1-.2-1.6s.1-1.5.4-2c.3-.6.7-1,1.2-1.2.5-.3,1.1-.4,1.8-.4s1.2.1,1.7.4c.5.3.9.7,1.2,1.2.3.6.4,1.2.4,2ZM350.9,121.3c0,.5,0,1,.2,1.4.1.4.3.7.6.9.3.2.6.3,1.1.3s.8-.1,1.1-.3c.3-.2.5-.5.6-.9.1-.4.2-.9.2-1.4s0-1-.2-1.4c-.1-.4-.3-.7-.6-.9-.3-.2-.6-.3-1.1-.3-.7,0-1.2.2-1.5.7-.3.4-.5,1.1-.5,1.9ZM361.6,117.6c.8,0,1.5.2,1.9.6.4.4.7,1.1.7,2v4.7h-1.4v-4.5c0-.6-.1-1-.4-1.2-.2-.3-.6-.4-1.1-.4-.7,0-1.2.2-1.5.7-.3.4-.4,1-.4,1.9v3.6h-1.4v-7.2h1.1l.2,1h0c.2-.2.3-.5.6-.6.2-.2.5-.3.8-.4.3,0,.6-.1.9-.1Z"/>
      <path class="st9" d="M401.1,98.3h0c0-6,4.9-10.9,10.9-10.9h93.9c2.9,0,5.7,1.2,7.7,3.2,2,2,3.2,4.8,3.2,7.7v43.7c0,6-4.9,10.9-10.9,10.9h-93.9c-6,0-10.9-4.9-10.9-10.9v-43.7Z"/>
      <path class="st3" d="M401.1,98.3h0c0-6,4.9-10.9,10.9-10.9h93.9c2.9,0,5.7,1.2,7.7,3.2,2,2,3.2,4.8,3.2,7.7v43.7c0,6-4.9,10.9-10.9,10.9h-93.9c-6,0-10.9-4.9-10.9-10.9v-43.7Z"/>
      <path class="st13" d="M445.7,112.2c0,.8,0,1.4-.3,2.1-.2.6-.5,1.1-.9,1.6-.4.4-.9.8-1.5,1l2.3,2.4h-2l-1.8-2.1h-.1c0,0-.1,0-.2,0-.8,0-1.4-.1-2-.4-.6-.2-1-.6-1.4-1-.4-.4-.6-.9-.8-1.5-.2-.6-.3-1.3-.3-2s.2-1.8.5-2.6c.3-.7.8-1.3,1.5-1.7s1.5-.6,2.5-.6,1.8.2,2.4.6c.7.4,1.2,1,1.5,1.7.3.7.5,1.6.5,2.6ZM438.4,112.2c0,.8.1,1.4.3,2,.2.6.5,1,1,1.3.4.3,1,.4,1.6.4s1.2-.1,1.7-.4c.4-.3.7-.7.9-1.3.2-.6.3-1.2.3-2,0-1.1-.2-2-.7-2.7-.5-.6-1.2-1-2.2-1s-1.2.1-1.7.4c-.4.3-.7.7-1,1.2-.2.5-.3,1.2-.3,2ZM453.8,109.7v7.2h-1.1l-.2-1h0c-.1.2-.3.5-.6.6-.2.2-.5.3-.8.3-.3,0-.6.1-.9.1-.6,0-1,0-1.4-.3-.4-.2-.7-.5-.9-.9-.2-.4-.3-.9-.3-1.5v-4.7h1.4v4.5c0,.6.1,1,.3,1.2.2.3.6.4,1.1.4s.9,0,1.2-.3c.3-.2.5-.5.6-.9.1-.4.2-.8.2-1.4v-3.6h1.4ZM458.8,109.6c.9,0,1.5.2,2,.6.4.4.7,1,.7,1.8v4.9h-1l-.3-1h0c-.2.3-.4.5-.6.6-.2.2-.5.3-.8.4-.3,0-.6.1-1,.1s-.8,0-1.2-.2c-.3-.2-.6-.4-.8-.7-.2-.3-.3-.7-.3-1.2,0-.7.3-1.3.8-1.7.6-.4,1.4-.6,2.5-.6h1.2v-.4c0-.6-.1-.9-.4-1.1-.2-.2-.6-.3-1-.3s-.7,0-1,.2c-.3.1-.7.2-1,.4l-.4-1c.3-.2.7-.3,1.2-.4.4-.1.9-.2,1.4-.2ZM459.1,113.5c-.8,0-1.4.2-1.7.4-.3.2-.5.6-.5,1,0,.4.1.6.3.8.2.2.5.3.9.3.6,0,1-.2,1.4-.5.4-.3.6-.8.6-1.4v-.6h-1ZM465,116.9h-1.4v-10.1h1.4v10.1ZM468.6,109.7v7.2h-1.4v-7.2h1.4ZM467.9,107c.2,0,.4,0,.5.2.2.1.2.3.2.6s0,.5-.2.6c-.2.1-.3.2-.5.2s-.4,0-.6-.2-.2-.3-.2-.6,0-.5.2-.6.3-.2.6-.2ZM473.4,115.9c.2,0,.4,0,.6,0,.2,0,.4,0,.5-.1v1.1c-.1,0-.3.1-.6.2-.3,0-.5,0-.8,0-.4,0-.8,0-1.1-.2-.3-.1-.6-.4-.8-.7-.2-.3-.3-.8-.3-1.4v-4h-1v-.6l1.1-.5.5-1.5h.9v1.6h2v1.1h-2v4c0,.4,0,.7.3.9.2.2.4.3.8.3ZM474.8,109.7h1.5l1.5,4.1c0,.2.1.4.2.6,0,.2.1.4.2.6,0,.2.1.4.1.5h0c0-.2.1-.5.2-.8,0-.3.2-.6.3-1l1.4-4.1h1.5l-3,8.1c-.2.5-.4.9-.6,1.2-.2.4-.5.6-.9.8-.3.2-.8.3-1.3.3s-.4,0-.6,0c-.2,0-.3,0-.4,0v-1.1c.1,0,.2,0,.4,0,.1,0,.3,0,.4,0,.3,0,.5,0,.7-.2.2-.1.4-.3.5-.5.1-.2.2-.4.3-.7l.3-.8-2.9-7.2Z"/>
      <path class="st13" d="M440.4,133.1c-.6,0-1.2-.1-1.7-.4-.5-.3-.9-.7-1.2-1.2-.3-.6-.4-1.3-.4-2.1s.1-1.6.4-2.1c.3-.6.7-1,1.2-1.2.5-.3,1.1-.4,1.8-.4s.8,0,1.1.1c.3,0,.6.2.9.3l-.4,1.2c-.2-.1-.5-.2-.8-.3-.3,0-.5-.1-.8-.1-.4,0-.8,0-1.1.3-.3.2-.5.5-.7.9-.1.4-.2.8-.2,1.4s0,1,.2,1.4c.1.4.4.7.6.8s.6.3,1,.3.7,0,1-.1c.3,0,.6-.2.9-.3v1.2c-.2.1-.5.3-.8.3-.3,0-.7.1-1.1.1ZM450.3,129.3c0,.6,0,1.1-.2,1.6-.2.5-.4.8-.7,1.2-.3.3-.7.6-1.1.7-.4.2-.9.2-1.4.2s-.9,0-1.3-.2c-.4-.2-.8-.4-1.1-.7-.3-.3-.5-.7-.7-1.2-.2-.5-.2-1-.2-1.6,0-.8.1-1.5.4-2,.3-.6.7-1,1.2-1.2.5-.3,1.1-.4,1.8-.4s1.2.1,1.7.4c.5.3.9.7,1.2,1.2.3.6.4,1.2.4,2ZM445,129.3c0,.5,0,1,.2,1.4.1.4.3.7.6.9.3.2.6.3,1.1.3s.8-.1,1.1-.3c.3-.2.5-.5.6-.9.1-.4.2-.9.2-1.4,0-.5,0-1-.2-1.4-.1-.4-.3-.7-.6-.9-.3-.2-.6-.3-1.1-.3-.7,0-1.2.2-1.5.7-.3.4-.5,1.1-.5,1.9ZM455.8,125.6c.8,0,1.5.2,1.9.6.4.4.7,1.1.7,2v4.7h-1.4v-4.5c0-.6-.1-1-.4-1.2-.2-.3-.6-.4-1.1-.4-.7,0-1.2.2-1.5.7-.3.4-.4,1-.4,1.9v3.6h-1.4v-7.2h1.1l.2,1h0c.2-.2.3-.5.6-.6.2-.2.5-.3.8-.4.3,0,.6-.1.9-.1ZM463.1,131.9c.2,0,.4,0,.6,0,.2,0,.4,0,.5-.1v1.1c-.1,0-.3.1-.6.2-.3,0-.5,0-.8,0-.4,0-.8,0-1.1-.2-.3-.1-.6-.4-.8-.7-.2-.3-.3-.8-.3-1.4v-4h-1v-.6l1.1-.5.5-1.5h.9v1.6h2v1.1h-2v4c0,.4,0,.7.3.9s.4.3.8.3ZM469.1,125.6c.1,0,.3,0,.4,0,.2,0,.3,0,.4,0l-.2,1.3c-.1,0-.2,0-.4,0-.1,0-.3,0-.4,0-.2,0-.5,0-.7.2-.2.1-.5.2-.6.4s-.3.4-.5.7c-.1.3-.2.6-.2,1v3.8h-1.4v-7.2h1.1l.2,1.3h0c.1-.3.3-.5.5-.7.2-.2.5-.4.7-.5.3-.1.6-.2.9-.2ZM477.3,129.3c0,.6,0,1.1-.2,1.6-.2.5-.4.8-.7,1.2-.3.3-.7.6-1.1.7-.4.2-.9.2-1.4.2s-.9,0-1.3-.2c-.4-.2-.8-.4-1.1-.7-.3-.3-.5-.7-.7-1.2-.2-.5-.2-1-.2-1.6s.1-1.5.4-2c.3-.6.7-1,1.2-1.2.5-.3,1.1-.4,1.8-.4s1.2.1,1.7.4c.5.3.9.7,1.2,1.2.3.6.4,1.2.4,2ZM472,129.3c0,.5,0,1,.2,1.4.1.4.3.7.6.9.3.2.6.3,1.1.3s.8-.1,1.1-.3c.3-.2.5-.5.6-.9.1-.4.2-.9.2-1.4s0-1-.2-1.4c-.1-.4-.3-.7-.6-.9-.3-.2-.6-.3-1.1-.3-.7,0-1.2.2-1.5.7-.3.4-.5,1.1-.5,1.9ZM480.5,132.9h-1.4v-10.1h1.4v10.1Z"/>
      <path class="st8" d="M534.5,98.3h0c0-6,4.9-10.9,10.9-10.9h93.9c2.9,0,5.7,1.2,7.7,3.2,2,2,3.2,4.8,3.2,7.7v43.7c0,6-4.9,10.9-10.9,10.9h-93.9c-6,0-10.9-4.9-10.9-10.9v-43.7Z"/>
      <path class="st3" d="M534.5,98.3h0c0-6,4.9-10.9,10.9-10.9h93.9c2.9,0,5.7,1.2,7.7,3.2,2,2,3.2,4.8,3.2,7.7v43.7c0,6-4.9,10.9-10.9,10.9h-93.9c-6,0-10.9-4.9-10.9-10.9v-43.7Z"/>
      <path class="st12" d="M560.4,124.9h-3.7v-.8l1.1-.3v-7.2l-1.1-.3v-.8h3.7v.8l-1.1.3v7.2l1.1.3v.8ZM565.7,117.6c.8,0,1.5.2,1.9.6.4.4.7,1.1.7,2v4.7h-1.4v-4.5c0-.6-.1-1-.4-1.2-.2-.3-.6-.4-1.1-.4-.7,0-1.2.2-1.5.7-.3.4-.4,1-.4,1.9v3.6h-1.4v-7.2h1.1l.2,1h0c.2-.2.3-.5.6-.6.2-.2.5-.3.8-.4.3,0,.6-.1.9-.1ZM573,123.9c.2,0,.4,0,.6,0,.2,0,.4,0,.5-.1v1.1c-.1,0-.3.1-.6.2-.3,0-.5,0-.8,0-.4,0-.8,0-1.1-.2-.3-.1-.6-.4-.8-.7-.2-.3-.3-.8-.3-1.4v-4h-1v-.6l1.1-.5.5-1.5h.9v1.6h2v1.1h-2v4c0,.4,0,.7.3.9s.4.3.8.3ZM578.3,117.6c.6,0,1.2.1,1.6.4.5.3.8.6,1,1.1.2.5.4,1.1.4,1.7v.8h-4.8c0,.7.2,1.3.6,1.7.4.4.9.6,1.6.6s.9,0,1.2-.1c.4,0,.7-.2,1.1-.4v1.2c-.4.2-.7.3-1.1.4-.4,0-.8.1-1.3.1s-1.3-.1-1.8-.4c-.5-.3-.9-.7-1.2-1.2-.3-.6-.4-1.2-.4-2s.1-1.5.4-2c.3-.6.7-1,1.1-1.3.5-.3,1.1-.5,1.7-.5ZM578.4,118.7c-.5,0-.9.2-1.2.5-.3.3-.5.8-.5,1.4h3.4c0-.4,0-.7-.2-1-.1-.3-.3-.5-.5-.7-.2-.2-.5-.2-.9-.2ZM585.6,117.6c.5,0,.9,0,1.3.3.4.2.7.4.9.8h0l.2-.9h1.2v7.3c0,.7-.1,1.2-.4,1.7-.2.5-.6.8-1.1,1-.5.2-1.1.4-1.9.4s-1,0-1.5-.1c-.4,0-.8-.2-1.2-.3v-1.3c.4.2.8.3,1.2.4s.9.1,1.5.1,1.1-.2,1.4-.5c.3-.3.5-.8.5-1.3v-.2c0-.1,0-.3,0-.5,0-.2,0-.3,0-.5h0c-.2.4-.5.6-.9.8-.4.2-.8.3-1.3.3-.9,0-1.6-.3-2.1-1-.5-.7-.8-1.6-.8-2.8s.3-2.1.8-2.7c.5-.7,1.2-1,2.1-1ZM585.9,118.8c-.4,0-.7,0-1,.3-.2.2-.4.5-.6.9-.1.4-.2.9-.2,1.4,0,.8.1,1.5.4,1.9.3.4.7.6,1.3.6s.6,0,.8-.1c.2,0,.4-.2.6-.4s.3-.4.3-.7c0-.3.1-.6.1-1v-.3c0-.6,0-1.1-.2-1.5-.1-.4-.3-.7-.6-.8-.3-.2-.6-.3-1.1-.3ZM594.9,117.6c.1,0,.3,0,.4,0,.2,0,.3,0,.4,0l-.2,1.3c-.1,0-.2,0-.4,0-.1,0-.3,0-.4,0-.2,0-.5,0-.7.2-.2.1-.5.2-.6.4s-.3.4-.5.7c-.1.3-.2.6-.2,1v3.8h-1.4v-7.2h1.1l.2,1.3h0c.1-.3.3-.5.5-.7.2-.2.5-.4.7-.5.3-.1.6-.2.9-.2ZM599.6,117.6c.9,0,1.5.2,2,.6.4.4.7,1,.7,1.8v4.9h-1l-.3-1h0c-.2.3-.4.5-.6.6-.2.2-.5.3-.8.4-.3,0-.6.1-1,.1s-.8,0-1.2-.2-.6-.4-.8-.7c-.2-.3-.3-.7-.3-1.2,0-.7.3-1.3.8-1.7.6-.4,1.4-.6,2.5-.6h1.2v-.4c0-.6-.1-.9-.4-1.1-.2-.2-.6-.3-1-.3s-.7,0-1,.2c-.3.1-.7.2-1,.4l-.4-1c.3-.2.7-.3,1.2-.4.4-.1.9-.2,1.4-.2ZM599.9,121.5c-.8,0-1.4.2-1.7.4-.3.2-.5.6-.5,1s.1.6.3.8c.2.2.5.3.9.3.6,0,1-.2,1.4-.5.4-.3.6-.8.6-1.4v-.6h-1ZM607,123.9c.2,0,.4,0,.6,0,.2,0,.4,0,.5-.1v1.1c-.1,0-.3.1-.6.2-.3,0-.5,0-.8,0-.4,0-.8,0-1.1-.2-.3-.1-.6-.4-.8-.7-.2-.3-.3-.8-.3-1.4v-4h-1v-.6l1.1-.5.5-1.5h.9v1.6h2v1.1h-2v4c0,.4,0,.7.3.9s.4.3.8.3ZM610.9,117.7v7.2h-1.4v-7.2h1.4ZM610.2,115c.2,0,.4,0,.5.2.2.1.2.3.2.6s0,.5-.2.6c-.2.1-.3.2-.5.2s-.4,0-.6-.2-.2-.3-.2-.6,0-.5.2-.6.3-.2.6-.2ZM619.5,121.3c0,.6,0,1.1-.2,1.6-.2.5-.4.8-.7,1.2-.3.3-.7.6-1.1.7-.4.2-.9.2-1.4.2s-.9,0-1.3-.2c-.4-.2-.8-.4-1.1-.7-.3-.3-.5-.7-.7-1.2-.2-.5-.2-1-.2-1.6s.1-1.5.4-2c.3-.6.7-1,1.2-1.2.5-.3,1.1-.4,1.8-.4s1.2.1,1.7.4c.5.3.9.7,1.2,1.2.3.6.4,1.2.4,2ZM614.2,121.3c0,.5,0,1,.2,1.4.1.4.3.7.6.9.3.2.6.3,1.1.3s.8-.1,1.1-.3c.3-.2.5-.5.6-.9.1-.4.2-.9.2-1.4s0-1-.2-1.4c-.1-.4-.3-.7-.6-.9-.3-.2-.6-.3-1.1-.3-.7,0-1.2.2-1.5.7-.3.4-.5,1.1-.5,1.9ZM624.9,117.6c.8,0,1.5.2,1.9.6.4.4.7,1.1.7,2v4.7h-1.4v-4.5c0-.6-.1-1-.4-1.2-.2-.3-.6-.4-1.1-.4-.7,0-1.2.2-1.5.7-.3.4-.4,1-.4,1.9v3.6h-1.4v-7.2h1.1l.2,1h0c.2-.2.3-.5.6-.6.2-.2.5-.3.8-.4.3,0,.6-.1.9-.1Z"/>
      <path class="st10" d="M191.4,83.7l59,35.3"/>
      <path class="st4" d="M191.4,83.7l59,35.3"/>
      <path class="st10" d="M250.4,118.9l-68.6,33.6"/>
      <path class="st4" d="M250.4,118.9l-68.6,33.6"/>
      <path class="st10" d="M114.3,118.9h136.2"/>
      <path class="st4" d="M114.3,118.9h136.2"/>
      <path class="st7" d="M667.9,98.3h0c0-6,4.9-10.9,10.9-10.9h93.9c2.9,0,5.7,1.2,7.7,3.2,2,2,3.2,4.8,3.2,7.7v43.7c0,6-4.9,10.9-10.9,10.9h-93.9c-6,0-10.9-4.9-10.9-10.9v-43.7Z"/>
      <path class="st3" d="M667.9,98.3h0c0-6,4.9-10.9,10.9-10.9h93.9c2.9,0,5.7,1.2,7.7,3.2,2,2,3.2,4.8,3.2,7.7v43.7c0,6-4.9,10.9-10.9,10.9h-93.9c-6,0-10.9-4.9-10.9-10.9v-43.7Z"/>
      <path class="st12" d="M710.4,107.4c1.2,0,2.1.2,2.7.8.6.5.9,1.2.9,2.1s0,.8-.2,1.1c-.1.4-.3.7-.6,1-.3.3-.7.5-1.2.7-.5.2-1.1.2-1.8.2h-1v3.6h-1.5v-9.5h2.7ZM710.3,108.6h-1.1v3.5h.9c.5,0,1,0,1.3-.2.4-.1.6-.3.8-.6.2-.3.3-.6.3-1s-.2-1-.5-1.2-.9-.4-1.7-.4ZM721.9,109.7v7.2h-1.1l-.2-1h0c-.1.2-.3.5-.6.6-.2.2-.5.3-.8.3-.3,0-.6.1-.9.1-.6,0-1,0-1.4-.3-.4-.2-.7-.5-.9-.9-.2-.4-.3-.9-.3-1.5v-4.7h1.4v4.5c0,.6.1,1,.3,1.2.2.3.6.4,1.1.4s.9,0,1.2-.3c.3-.2.5-.5.6-.9.1-.4.2-.8.2-1.4v-3.6h1.4ZM725.5,109.2c0,.3,0,.6,0,.8,0,.2,0,.5,0,.6h0c.2-.3.5-.6.8-.8.4-.2.8-.3,1.3-.3.9,0,1.6.3,2.1.9.5.6.8,1.5.8,2.8s-.1,1.5-.4,2.1c-.2.6-.6,1-1,1.2s-.9.4-1.5.4-1,0-1.3-.3c-.3-.2-.6-.4-.8-.7h0l-.3.9h-1v-10.1h1.4v2.4ZM727.4,110.8c-.5,0-.8,0-1.1.3-.3.2-.5.4-.6.8-.1.4-.2.8-.2,1.4h0c0,.9.1,1.6.4,2,.3.4.8.6,1.5.6s1-.2,1.3-.7c.3-.4.4-1.1.4-1.9s-.1-1.5-.4-1.9c-.3-.4-.7-.6-1.3-.6ZM733.8,116.9h-1.4v-10.1h1.4v10.1ZM737.4,109.7v7.2h-1.4v-7.2h1.4ZM736.7,107c.2,0,.4,0,.5.2.2.1.2.3.2.6s0,.5-.2.6c-.2.1-.3.2-.5.2s-.4,0-.6-.2-.2-.3-.2-.6,0-.5.2-.6.3-.2.6-.2ZM742.5,117.1c-.6,0-1.2-.1-1.7-.4-.5-.3-.9-.7-1.2-1.2-.3-.6-.4-1.3-.4-2.1s.1-1.6.4-2.1c.3-.6.7-1,1.2-1.2.5-.3,1.1-.4,1.8-.4s.8,0,1.1.1c.3,0,.6.2.9.3l-.4,1.2c-.2-.1-.5-.2-.8-.3-.3,0-.5-.1-.8-.1-.4,0-.8,0-1.1.3-.3.2-.5.5-.7.9-.1.4-.2.8-.2,1.4s0,1,.2,1.4c.1.4.4.7.6.8s.6.3,1,.3.7,0,1-.1c.3,0,.6-.2.9-.3v1.2c-.2.1-.5.3-.8.3-.3,0-.7.1-1.1.1Z"/>
      <path class="st12" d="M707.4,125.6c.1,0,.3,0,.4,0,.2,0,.3,0,.4,0l-.2,1.3c-.1,0-.2,0-.4,0-.1,0-.3,0-.4,0-.2,0-.5,0-.7.2-.2.1-.5.2-.6.4s-.3.4-.5.7c-.1.3-.2.6-.2,1v3.8h-1.4v-7.2h1.1l.2,1.3h0c.1-.3.3-.5.5-.7s.5-.4.7-.5c.3-.1.6-.2.9-.2ZM712.1,125.6c.6,0,1.2.1,1.6.4.5.3.8.6,1,1.1.2.5.4,1.1.4,1.7v.8h-4.8c0,.7.2,1.3.6,1.7.4.4.9.6,1.6.6s.9,0,1.2-.1c.4,0,.7-.2,1.1-.4v1.2c-.4.2-.7.3-1.1.4-.4,0-.8.1-1.3.1s-1.3-.1-1.8-.4c-.5-.3-.9-.7-1.2-1.2-.3-.6-.4-1.2-.4-2s.1-1.5.4-2c.3-.6.7-1,1.1-1.3.5-.3,1.1-.5,1.7-.5ZM712.1,126.7c-.5,0-.9.2-1.2.5-.3.3-.5.8-.5,1.4h3.4c0-.4,0-.7-.2-1-.1-.3-.3-.5-.5-.7-.2-.2-.5-.2-.9-.2ZM718.3,132.9h-1.4v-10.1h1.4v10.1ZM723.3,125.6c.6,0,1.2.1,1.6.4.5.3.8.6,1,1.1.2.5.4,1.1.4,1.7v.8h-4.8c0,.7.2,1.3.6,1.7.4.4.9.6,1.6.6s.9,0,1.2-.1c.4,0,.7-.2,1.1-.4v1.2c-.4.2-.7.3-1.1.4-.4,0-.8.1-1.3.1s-1.3-.1-1.8-.4c-.5-.3-.9-.7-1.2-1.2-.3-.6-.4-1.2-.4-2s.1-1.5.4-2c.3-.6.7-1,1.1-1.3.5-.3,1.1-.5,1.7-.5ZM723.3,126.7c-.5,0-.9.2-1.2.5-.3.3-.5.8-.5,1.4h3.4c0-.4,0-.7-.2-1-.1-.3-.3-.5-.5-.7-.2-.2-.5-.2-.9-.2ZM731,125.6c.9,0,1.5.2,2,.6.4.4.7,1,.7,1.8v4.9h-1l-.3-1h0c-.2.3-.4.5-.6.6-.2.2-.5.3-.8.4-.3,0-.6.1-1,.1s-.8,0-1.2-.2c-.3-.2-.6-.4-.8-.7-.2-.3-.3-.7-.3-1.2,0-.7.3-1.3.8-1.7.6-.4,1.4-.6,2.5-.6h1.2v-.4c0-.6-.1-.9-.4-1.1-.2-.2-.6-.3-1-.3s-.7,0-1,.2c-.3.1-.7.2-1,.4l-.4-1c.3-.2.7-.3,1.2-.4.4-.1.9-.2,1.4-.2ZM731.3,129.5c-.8,0-1.4.2-1.7.4-.3.2-.5.6-.5,1,0,.4.1.6.3.8.2.2.5.3.9.3.6,0,1-.2,1.4-.5.4-.3.6-.8.6-1.4v-.6h-1ZM740.5,130.9c0,.5-.1.9-.3,1.2-.2.3-.5.6-1,.7-.4.2-1,.2-1.6.2s-.9,0-1.3-.1c-.4,0-.7-.2-1-.3v-1.2c.3.2.7.3,1.1.4.4.1.8.2,1.2.2s.9,0,1.2-.2c.2-.2.4-.4.4-.7s0-.3-.2-.4c0-.1-.3-.3-.5-.4-.2-.1-.6-.3-1.1-.5-.4-.2-.8-.4-1.2-.5-.3-.2-.6-.4-.7-.7-.2-.2-.2-.6-.2-1,0-.6.2-1.1.8-1.4.5-.3,1.2-.5,2-.5s.8,0,1.2.1c.4,0,.8.2,1.1.4l-.5,1.1c-.3-.1-.6-.2-1-.3-.3,0-.7-.1-1-.1s-.8,0-1,.2c-.2.1-.3.3-.3.6s0,.3.2.5c.1.1.3.2.5.4.3.1.6.3,1.1.4.5.2.8.3,1.1.5.3.2.6.4.7.7.2.3.2.6.2,1ZM745.1,125.6c.6,0,1.2.1,1.6.4.5.3.8.6,1,1.1.2.5.4,1.1.4,1.7v.8h-4.8c0,.7.2,1.3.6,1.7.4.4.9.6,1.6.6s.9,0,1.2-.1c.4,0,.7-.2,1.1-.4v1.2c-.4.2-.7.3-1.1.4-.4,0-.8.1-1.3.1s-1.3-.1-1.8-.4c-.5-.3-.9-.7-1.2-1.2-.3-.6-.4-1.2-.4-2,0-.8.1-1.5.4-2,.3-.6.7-1,1.1-1.3.5-.3,1.1-.5,1.7-.5ZM745.1,126.7c-.5,0-.9.2-1.2.5-.3.3-.5.8-.5,1.4h3.4c0-.4,0-.7-.2-1-.1-.3-.3-.5-.5-.7-.2-.2-.5-.2-.9-.2Z"/>
      <path class="st10" d="M383.4,120.1h17.6"/>
      <path class="st2" d="M383.4,120.1h11.6"/>
      <path class="st11" d="M395.1,121.8l4.5-1.7-4.5-1.7v3.3Z"/>
      <path class="st10" d="M516.8,120.1h17.6"/>
      <path class="st2" d="M516.8,120.1h11.6"/>
      <path class="st11" d="M528.5,121.8l4.5-1.7-4.5-1.7v3.3Z"/>
      <path class="st10" d="M650.3,120.1h17.6"/>
      <path class="st2" d="M650.3,120.1h11.6"/>
      <path class="st11" d="M661.9,121.8l4.5-1.7-4.5-1.7v3.3Z"/>
      <path class="st5" d="M125.9,76.1h0c0-18.1,14.7-32.8,32.8-32.8h0c8.7,0,17,3.5,23.2,9.6,6.1,6.1,9.6,14.5,9.6,23.2h0c0,18.1-14.7,32.8-32.8,32.8h0c-18.1,0-32.8-14.7-32.8-32.8Z"/>
      <path class="st2" d="M125.9,76.1h0c0-18.1,14.7-32.8,32.8-32.8h0c8.7,0,17,3.5,23.2,9.6,6.1,6.1,9.6,14.5,9.6,23.2h0c0,18.1-14.7,32.8-32.8,32.8h0c-18.1,0-32.8-14.7-32.8-32.8Z"/>
      <path class="st13" d="M155,70.8c0,.6-.1,1.2-.4,1.6-.2.4-.6.8-1,1s-1,.3-1.6.3h-1.6v-5.7h1.8c.6,0,1.1.1,1.5.3.4.2.8.5,1,.9.2.4.3.9.3,1.5ZM154.1,70.9c0-.5,0-.9-.2-1.2-.2-.3-.4-.5-.7-.7-.3-.2-.7-.2-1.1-.2h-.9v4.2h.7c.7,0,1.3-.2,1.6-.5.4-.4.5-.9.5-1.6ZM157.8,69.4c.5,0,.9.1,1.2.4.3.2.4.6.4,1.1v2.9h-.6l-.2-.6h0c-.1.1-.3.3-.4.4-.1.1-.3.2-.4.2-.2,0-.4,0-.6,0s-.5,0-.7-.1c-.2,0-.4-.2-.5-.4-.1-.2-.2-.4-.2-.7,0-.4.2-.8.5-1,.3-.2.8-.4,1.5-.4h.7v-.2c0-.3,0-.6-.2-.7-.1-.1-.3-.2-.6-.2s-.4,0-.6.1c-.2,0-.4.1-.6.2l-.2-.6c.2-.1.4-.2.7-.3.3,0,.6-.1.9-.1ZM158,71.7c-.5,0-.8,0-1,.2-.2.1-.3.3-.3.6s0,.4.2.5c.1.1.3.2.5.2.3,0,.6,0,.8-.3s.3-.5.3-.8v-.4h-.6ZM162.3,73.1c.1,0,.2,0,.3,0,.1,0,.2,0,.3,0v.6c0,0-.2,0-.4.1s-.3,0-.5,0c-.2,0-.4,0-.6-.1-.2,0-.4-.2-.5-.4-.1-.2-.2-.5-.2-.8v-2.4h-.6v-.4l.6-.3.3-.9h.5v1h1.2v.7h-1.2v2.4c0,.2,0,.4.2.5.1.1.3.2.5.2ZM165.5,69.4c.5,0,.9.1,1.2.4.3.2.4.6.4,1.1v2.9h-.6l-.2-.6h0c-.1.1-.3.3-.4.4-.1.1-.3.2-.4.2-.2,0-.4,0-.6,0s-.5,0-.7-.1c-.2,0-.4-.2-.5-.4-.1-.2-.2-.4-.2-.7,0-.4.2-.8.5-1,.3-.2.8-.4,1.5-.4h.7v-.2c0-.3,0-.6-.2-.7-.1-.1-.3-.2-.6-.2s-.4,0-.6.1c-.2,0-.4.1-.6.2l-.2-.6c.2-.1.4-.2.7-.3.3,0,.6-.1.9-.1ZM165.6,71.7c-.5,0-.8,0-1,.2-.2.1-.3.3-.3.6s0,.4.2.5c.1.1.3.2.5.2.3,0,.6,0,.8-.3s.3-.5.3-.8v-.4h-.6Z"/>
      <path class="st13" d="M149.4,82.5c0,.3,0,.5-.2.7-.1.2-.3.3-.6.4-.3,0-.6.1-.9.1s-.6,0-.8,0c-.2,0-.4-.1-.6-.2v-.8c.2,0,.4.2.7.2.2,0,.5.1.7.1s.6,0,.7-.2c.1-.1.2-.2.2-.4s0-.2,0-.3c0,0-.2-.2-.3-.2-.1,0-.4-.2-.6-.3-.3-.1-.5-.2-.7-.3-.2-.1-.3-.2-.4-.4-.1-.2-.2-.3-.2-.6,0-.4.2-.7.5-.9.3-.2.7-.3,1.2-.3s.5,0,.7,0c.2,0,.5.1.7.2l-.3.6c-.2,0-.4-.1-.6-.2-.2,0-.4,0-.6,0s-.5,0-.6.1c-.1,0-.2.2-.2.3s0,.2,0,.3c0,0,.2.1.3.2.2,0,.4.2.6.3.3.1.5.2.7.3.2.1.3.2.4.4.1.2.2.3.2.6ZM154.2,81.6c0,.4,0,.7-.1,1,0,.3-.2.5-.4.7-.2.2-.4.3-.7.4-.2,0-.5.1-.8.1s-.6,0-.8-.1c-.2-.1-.5-.2-.6-.4-.2-.2-.3-.4-.4-.7,0-.3-.1-.6-.1-1s0-.9.2-1.2c.2-.3.4-.6.7-.8.3-.2.7-.3,1.1-.3s.7,0,1,.3c.3.2.5.4.7.8.2.3.3.7.3,1.2ZM151.1,81.6c0,.3,0,.6.1.8,0,.2.2.4.4.5.2.1.4.2.7.2s.5,0,.6-.2c.2-.1.3-.3.4-.5,0-.2.1-.5.1-.8s0-.6-.1-.8c0-.2-.2-.4-.4-.5-.2-.1-.4-.2-.7-.2-.4,0-.7.1-.9.4-.2.3-.3.6-.3,1.1ZM159,79.4v4.3h-.7v-.6h-.2c0,.1-.2.3-.4.4-.1,0-.3.2-.5.2-.2,0-.3,0-.5,0-.3,0-.6,0-.9-.2-.2-.1-.4-.3-.5-.5-.1-.2-.2-.5-.2-.9v-2.8h.9v2.7c0,.3,0,.6.2.8.1.2.4.2.7.2s.5,0,.7-.2c.2-.1.3-.3.4-.5,0-.2.1-.5.1-.8v-2.2h.9ZM162.5,79.4c0,0,.2,0,.2,0,0,0,.2,0,.2,0v.8c-.2,0-.2,0-.3,0,0,0-.2,0-.2,0-.2,0-.3,0-.5,0-.1,0-.3.2-.4.3-.1.1-.2.2-.3.4,0,.2,0,.4,0,.6v2.3h-.8v-4.3h.7v.8h.2c0-.2.2-.3.3-.4.1-.1.3-.2.4-.3.2,0,.3-.1.5-.1ZM165.3,83.8c-.4,0-.7,0-1-.2s-.5-.4-.7-.7c-.2-.3-.2-.8-.2-1.3s0-.9.3-1.3c.2-.3.4-.6.7-.7s.7-.2,1.1-.2.4,0,.7,0c.2,0,.4,0,.5.2l-.2.7c-.1,0-.3-.1-.5-.2-.2,0-.3,0-.5,0-.3,0-.5,0-.7.2-.2.1-.3.3-.4.5,0,.2-.1.5-.1.8s0,.6.1.8c0,.2.2.4.4.5.2.1.4.2.6.2s.5,0,.6,0c.2,0,.4-.1.5-.2v.7c-.1,0-.3.1-.5.2-.2,0-.4,0-.7,0ZM169.2,79.4c.4,0,.7,0,1,.2.3.2.5.4.6.7.1.3.2.6.2,1v.5h-2.9c0,.4.1.8.3,1,.2.2.5.3,1,.3s.5,0,.7,0c.2,0,.4-.1.7-.2v.7c-.2,0-.4.2-.7.2-.2,0-.5,0-.8,0s-.8,0-1.1-.2c-.3-.2-.6-.4-.7-.8-.2-.3-.3-.7-.3-1.2s0-.9.2-1.2c.2-.3.4-.6.7-.8.3-.2.6-.3,1-.3ZM169.2,80c-.3,0-.6,0-.7.3-.2.2-.3.5-.3.8h2c0-.2,0-.4-.1-.6,0-.2-.2-.3-.3-.4-.1-.1-.3-.2-.5-.2Z"/>
      <path class="st10" d="M801.3,89.7h110v60.8h-110v-60.8Z"/>
      <path class="st13" d="M813.5,99.3c.6,0,1.2,0,1.6.2.4.2.7.4.9.7.2.3.3.7.3,1.2s0,.7-.2,1c-.1.3-.3.5-.5.6-.2.2-.5.3-.7.4l2.1,3.4h-1.3l-1.8-3.1h-1.3v3.1h-1.2v-7.6h2.2ZM813.4,100.3h-1v2.6h1c.6,0,1-.1,1.2-.3.3-.2.4-.6.4-1s0-.5-.2-.7c-.1-.2-.3-.3-.6-.4-.2,0-.6-.1-1-.1ZM820.2,101.1c.5,0,.9.1,1.3.3.4.2.7.5.8.9.2.4.3.8.3,1.4v.6h-3.9c0,.6.2,1,.5,1.3.3.3.7.5,1.3.5.4,0,.7,0,1,0,.3,0,.6-.2.9-.3v.9c-.3.1-.6.2-.9.3-.3,0-.6,0-1.1,0-.6,0-1-.1-1.5-.3-.4-.2-.7-.5-1-1-.2-.4-.4-1-.4-1.6s.1-1.2.3-1.6c.2-.4.5-.8.9-1,.4-.2.9-.4,1.4-.4ZM820.2,102c-.4,0-.7.1-1,.4-.2.3-.4.6-.4,1.1h2.7c0-.3,0-.6-.1-.8,0-.2-.2-.4-.4-.5-.2-.1-.4-.2-.7-.2ZM825.1,106.9h-1.1v-8.1h1.1v8.1ZM828,101.2v5.8h-1.1v-5.8h1.1ZM827.5,99c.2,0,.3,0,.4.2.1,0,.2.3.2.5s0,.4-.2.5c-.1.1-.3.2-.4.2-.2,0-.3,0-.5-.2-.1-.1-.2-.3-.2-.5s0-.4.2-.5c.1-.1.3-.2.5-.2ZM832.1,101.1c.7,0,1.2.2,1.6.5.4.3.5.8.5,1.5v3.9h-.8l-.2-.8h0c-.2.2-.3.4-.5.5-.2.1-.4.2-.6.3-.2,0-.5,0-.8,0-.3,0-.6,0-.9-.2-.3-.1-.5-.3-.6-.6-.2-.3-.2-.6-.2-1,0-.6.2-1,.7-1.3.4-.3,1.1-.5,2-.5h1v-.3c0-.4,0-.7-.3-.9-.2-.2-.5-.3-.8-.3-.3,0-.6,0-.8.1-.3,0-.5.2-.8.3l-.3-.8c.3-.1.6-.3.9-.4.4,0,.8-.1,1.2-.1ZM832.3,104.2c-.7,0-1.1.1-1.4.3-.2.2-.4.4-.4.8s0,.5.3.7c.2.1.4.2.7.2.4,0,.8-.1,1.1-.4.3-.3.4-.6.4-1.1v-.5h-.8ZM837,100.8c0,.2,0,.5,0,.7,0,.2,0,.4,0,.5h0c.2-.2.4-.4.7-.6.3-.2.6-.3,1.1-.2.7,0,1.3.2,1.7.8.4.5.6,1.2.6,2.2s0,1.2-.3,1.7c-.2.4-.5.8-.8,1-.3.2-.7.3-1.2.3-.4,0-.8,0-1.1-.2-.3-.2-.5-.4-.7-.6h0l-.2.7h-.8v-8.1h1.1v1.9ZM838.5,102c-.4,0-.7,0-.9.2-.2.1-.4.3-.5.6,0,.3-.1.7-.1,1.1h0c0,.7.1,1.2.3,1.6.2.3.6.5,1.2.5.5,0,.8-.2,1-.5.2-.4.3-.9.3-1.5s-.1-1.2-.3-1.5c-.2-.3-.6-.5-1.1-.5ZM843.6,106.9h-1.1v-8.1h1.1v8.1ZM847.6,101.1c.5,0,.9.1,1.3.3.4.2.7.5.8.9.2.4.3.8.3,1.4v.6h-3.9c0,.6.2,1,.5,1.3.3.3.7.5,1.3.5.4,0,.7,0,1,0,.3,0,.6-.2.9-.3v.9c-.3.1-.6.2-.9.3-.3,0-.6,0-1.1,0-.6,0-1-.1-1.5-.3-.4-.2-.7-.5-1-1-.2-.4-.4-1-.4-1.6s.1-1.2.3-1.6c.2-.4.5-.8.9-1,.4-.2.9-.4,1.4-.4ZM847.7,102c-.4,0-.7.1-1,.4-.2.3-.4.6-.4,1.1h2.7c0-.3,0-.6-.1-.8,0-.2-.2-.4-.4-.5-.2-.1-.4-.2-.7-.2ZM852.7,105.8c0,.2-.1.5-.2.8,0,.3-.2.6-.3.9-.1.3-.2.6-.4.8h-.8c0-.3.1-.6.2-.9,0-.3.1-.6.2-.9,0-.3.1-.6.1-.8h1.2Z"/>
      <path class="st13" d="M813.5,111.3c.7,0,1.2.2,1.6.5.4.3.5.8.5,1.5v3.9h-.8l-.2-.8h0c-.2.2-.3.4-.5.5-.2.1-.4.2-.6.3-.2,0-.5,0-.8,0s-.6,0-.9-.2c-.3-.1-.5-.3-.6-.6-.2-.3-.2-.6-.2-1,0-.6.2-1,.7-1.3.4-.3,1.1-.5,2-.5h1v-.3c0-.4,0-.7-.3-.9-.2-.2-.5-.3-.8-.3s-.6,0-.8.1c-.3,0-.5.2-.8.3l-.3-.8c.3-.1.6-.3.9-.4.4,0,.8-.1,1.2-.1ZM813.7,114.4c-.7,0-1.1.1-1.4.3s-.4.4-.4.8,0,.5.3.7c.2.1.4.2.7.2.4,0,.8-.1,1.1-.4.3-.2.4-.6.4-1.1v-.5h-.8ZM819.6,117.3c-.5,0-1-.1-1.4-.3-.4-.2-.7-.5-.9-1s-.3-1-.3-1.7.1-1.3.4-1.7c.2-.4.6-.8,1-1,.4-.2.9-.3,1.4-.3s.6,0,.9,0,.5.1.7.2l-.3.9c-.2,0-.4-.1-.6-.2-.2,0-.4,0-.6,0-.4,0-.7,0-.9.2-.2.1-.4.4-.5.7-.1.3-.2.7-.2,1.1s0,.8.2,1.1c.1.3.3.5.5.7.2.1.5.2.8.2s.6,0,.8,0c.2,0,.5-.2.7-.3v1c-.2.1-.4.2-.7.3-.2,0-.5,0-.9,0ZM824.6,116.4c.1,0,.3,0,.5,0,.2,0,.3,0,.4-.1v.9c-.1,0-.3,0-.5.1-.2,0-.4,0-.6,0-.3,0-.6,0-.9-.2-.3-.1-.5-.3-.6-.6-.2-.3-.2-.6-.2-1.1v-3.2h-.8v-.5l.8-.4.4-1.2h.7v1.3h1.6v.9h-1.6v3.2c0,.3,0,.5.2.7.2.1.4.2.6.2ZM827.7,111.4v5.8h-1.1v-5.8h1.1ZM827.2,109.3c.2,0,.3,0,.4.2.1,0,.2.3.2.5s0,.4-.2.5c-.1.1-.3.2-.4.2s-.3,0-.5-.2c-.1-.1-.2-.3-.2-.5s0-.4.2-.5c.1-.1.3-.2.5-.2ZM834.5,114.3c0,.5,0,.9-.2,1.3-.1.4-.3.7-.5.9-.2.3-.5.5-.9.6-.3.1-.7.2-1.1.2s-.7,0-1.1-.2c-.3-.1-.6-.3-.9-.6-.2-.3-.4-.6-.6-.9-.1-.4-.2-.8-.2-1.3s.1-1.2.3-1.6.5-.8.9-1c.4-.2.9-.3,1.5-.3s1,.1,1.4.3c.4.2.7.6,1,1,.2.4.3,1,.3,1.6ZM830.3,114.3c0,.4,0,.8.2,1.1.1.3.3.6.5.7.2.2.5.2.9.2s.6,0,.9-.2c.2-.2.4-.4.5-.7.1-.3.2-.7.2-1.1s0-.8-.2-1.1c-.1-.3-.3-.5-.5-.7-.2-.2-.5-.2-.9-.2-.5,0-.9.2-1.2.5-.2.4-.4.9-.4,1.5ZM838.9,111.3c.7,0,1.2.2,1.5.5.4.3.5.9.5,1.6v3.7h-1.1v-3.6c0-.4,0-.8-.3-1-.2-.2-.5-.3-.9-.3-.6,0-1,.2-1.2.5-.2.3-.3.8-.3,1.5v2.9h-1.1v-5.8h.9l.2.8h0c.1-.2.3-.4.5-.5.2-.1.4-.2.6-.3s.5,0,.7,0ZM844.9,111.3c.7,0,1.2.2,1.6.5.4.3.5.8.5,1.5v3.9h-.8l-.2-.8h0c-.2.2-.3.4-.5.5-.2.1-.4.2-.6.3-.2,0-.5,0-.8,0s-.6,0-.9-.2c-.3-.1-.5-.3-.6-.6-.2-.3-.2-.6-.2-1,0-.6.2-1,.7-1.3.4-.3,1.1-.5,2-.5h1v-.3c0-.4,0-.7-.3-.9-.2-.2-.5-.3-.8-.3s-.6,0-.8.1c-.3,0-.5.2-.8.3l-.3-.8c.3-.1.6-.3.9-.4.4,0,.7-.1,1.2-.1ZM845.1,114.4c-.7,0-1.1.1-1.4.3-.3.2-.4.4-.4.8,0,.3,0,.5.3.7.2.1.4.2.7.2.4,0,.8-.1,1.1-.4.3-.2.4-.6.4-1.1v-.5h-.8ZM849.9,111c0,.2,0,.5,0,.7,0,.2,0,.4,0,.5h0c.2-.2.4-.4.7-.6.3-.2.6-.2,1.1-.2.7,0,1.3.2,1.7.8.4.5.6,1.2.6,2.2,0,.7,0,1.2-.3,1.7-.2.4-.5.8-.8,1-.3.2-.7.3-1.2.3s-.8,0-1.1-.2c-.3-.2-.5-.4-.7-.6h0l-.2.7h-.8v-8.1h1.1v1.9ZM851.3,112.3c-.4,0-.7,0-.9.2-.2.1-.4.3-.5.6,0,.3-.1.7-.1,1.1h0c0,.7.1,1.2.3,1.6.2.3.6.5,1.2.5s.8-.2,1-.5c.2-.4.3-.9.3-1.5,0-.7-.1-1.2-.3-1.5-.2-.3-.6-.5-1.1-.5ZM856.5,117.2h-1.1v-8.1h1.1v8.1ZM860.5,111.3c.5,0,.9.1,1.3.3.4.2.7.5.8.9.2.4.3.8.3,1.4v.6h-3.9c0,.6.2,1,.5,1.3.3.3.7.5,1.3.5s.7,0,1,0c.3,0,.6-.2.9-.3v.9c-.3.1-.6.2-.9.3-.3,0-.6,0-1.1,0s-1-.1-1.5-.3c-.4-.2-.7-.5-1-1-.2-.4-.4-1-.4-1.6s.1-1.2.3-1.6c.2-.4.5-.8.9-1,.4-.2.9-.4,1.4-.4ZM860.5,112.2c-.4,0-.7.1-1,.4-.2.3-.4.6-.4,1.1h2.7c0-.3,0-.6-.1-.8s-.2-.4-.4-.5c-.2-.1-.4-.2-.7-.2ZM865.6,116.1c0,.2-.1.5-.2.8,0,.3-.2.6-.3.9-.1.3-.2.6-.4.8h-.8c0-.3.1-.6.2-.9,0-.3.1-.6.2-.9,0-.3.1-.6.1-.8h1.2Z"/>
      <path class="st13" d="M813.6,119.7c.4,0,.7,0,1,.2.3.1.5.3.7.5.2.2.2.5.2.9s-.1.8-.4,1.2c-.3.3-.7.6-1.1.9l1.9,1.8c.2-.2.3-.5.4-.8s.2-.6.3-.9h1.2c-.1.4-.3.9-.4,1.3-.2.4-.4.8-.7,1.1l1.6,1.5h-1.5l-.8-.8c-.2.2-.5.3-.7.5s-.5.2-.8.3c-.3,0-.6.1-1,.1s-1,0-1.3-.2c-.4-.2-.7-.4-.9-.7-.2-.3-.3-.7-.3-1.1s0-.7.2-.9.3-.5.5-.7c.2-.2.5-.4.8-.6-.2-.2-.3-.4-.4-.5s-.2-.4-.3-.6c0-.2-.1-.4-.1-.7,0-.4,0-.7.2-.9.2-.3.4-.5.7-.6.3-.1.7-.2,1.1-.2ZM813.1,123.9c-.2.1-.4.3-.6.4-.1.1-.3.3-.4.5,0,.2-.1.4-.1.6,0,.4.1.6.4.9.3.2.6.3,1,.3s.7,0,1-.2c.3-.1.5-.3.8-.5l-2.1-2ZM813.5,120.6c-.3,0-.5,0-.7.2-.2.1-.3.3-.3.6s0,.5.2.7c.1.2.3.4.5.6.4-.2.7-.4.8-.6.2-.2.3-.4.3-.7s0-.4-.2-.6c-.2-.1-.4-.2-.6-.2ZM824.6,121.6c.1,0,.2,0,.3,0,.1,0,.2,0,.3,0v1c-.2,0-.3,0-.4,0-.1,0-.2,0-.3,0-.2,0-.4,0-.6.1-.2,0-.4.2-.5.4-.1.1-.3.3-.4.5,0,.2-.1.5-.1.8v3h-1.1v-5.8h.9l.2,1h0c.1-.2.3-.4.4-.6.2-.2.4-.3.6-.4.2-.1.5-.2.7-.2ZM828.4,121.6c.5,0,.9.1,1.3.3.4.2.7.5.8.9.2.4.3.8.3,1.4v.6h-3.9c0,.6.2,1,.5,1.3.3.3.7.5,1.3.5s.7,0,1,0c.3,0,.6-.2.9-.3v.9c-.3.1-.6.2-.9.3s-.6,0-1.1,0-1-.1-1.5-.3c-.4-.2-.7-.5-1-1s-.4-1-.4-1.6.1-1.2.3-1.6c.2-.4.5-.8.9-1,.4-.2.9-.4,1.4-.4ZM828.4,122.5c-.4,0-.7.1-1,.4s-.4.6-.4,1.1h2.7c0-.3,0-.6-.1-.8s-.2-.4-.4-.5c-.2-.1-.4-.2-.7-.2ZM834.5,121.6c.7,0,1.2.2,1.6.5.4.3.5.8.5,1.5v3.9h-.8l-.2-.8h0c-.2.2-.3.4-.5.5-.2.1-.4.2-.6.3-.2,0-.5,0-.8,0s-.6,0-.9-.2c-.3-.1-.5-.3-.6-.6-.2-.3-.2-.6-.2-1,0-.6.2-1,.7-1.3.4-.3,1.1-.5,2-.5h1v-.3c0-.4,0-.7-.3-.9-.2-.2-.5-.3-.8-.3s-.6,0-.8.1c-.3,0-.5.2-.8.3l-.3-.8c.3-.1.6-.3.9-.4.4,0,.8-.1,1.2-.1ZM834.7,124.7c-.7,0-1.1.1-1.4.3s-.4.4-.4.8,0,.5.3.7c.2.1.4.2.7.2.4,0,.8-.1,1.1-.4.3-.2.4-.6.4-1.1v-.5h-.8ZM840.3,127.5c-.7,0-1.2-.2-1.7-.8-.4-.5-.6-1.2-.6-2.2s.2-1.7.6-2.2c.4-.5,1-.8,1.7-.8s.6,0,.8.1c.2,0,.4.2.6.3s.3.3.4.4h0c0,0,0-.2,0-.4,0-.2,0-.4,0-.5v-2.1h1.1v8.1h-.9l-.2-.8h0c-.1.2-.3.3-.4.5-.2.1-.3.2-.6.3-.2,0-.5.1-.8.1ZM840.6,126.6c.6,0,.9-.2,1.2-.5.2-.3.3-.8.3-1.4v-.2c0-.7-.1-1.2-.3-1.5-.2-.4-.6-.5-1.2-.5s-.8.2-1.1.6c-.2.4-.3.9-.3,1.5s.1,1.1.3,1.5c.2.3.6.5,1.1.5ZM844,121.7h1.2l1.2,3.3c0,.2.1.3.2.5,0,.2,0,.3.1.5,0,.1,0,.3,0,.4h0c0-.2,0-.4.2-.6,0-.3.2-.5.2-.8l1.1-3.3h1.2l-2.4,6.5c-.1.4-.3.7-.5,1-.2.3-.4.5-.7.6-.3.2-.6.2-1,.2s-.3,0-.5,0c-.1,0-.2,0-.3,0v-.9c0,0,.2,0,.3,0,.1,0,.2,0,.4,0,.2,0,.4,0,.6-.1s.3-.2.4-.4c.1-.2.2-.3.3-.5l.2-.6-2.3-5.8ZM850,125.1v-1h2.6v1h-2.6ZM856,126.6c.1,0,.3,0,.5,0,.2,0,.3,0,.4-.1v.9c-.1,0-.3,0-.5.1-.2,0-.4,0-.6,0-.3,0-.6,0-.9-.2-.3-.1-.5-.3-.6-.6s-.2-.6-.2-1.1v-3.2h-.8v-.5l.8-.4.4-1.2h.7v1.3h1.6v.9h-1.6v3.2c0,.3,0,.5.2.7.2.1.4.2.6.2ZM863.1,124.5c0,.5,0,.9-.2,1.3s-.3.7-.5.9c-.2.3-.5.5-.9.6-.3.1-.7.2-1.1.2s-.7,0-1.1-.2c-.3-.1-.6-.3-.9-.6-.2-.3-.4-.6-.6-.9-.1-.4-.2-.8-.2-1.3s.1-1.2.3-1.6.5-.8.9-1c.4-.2.9-.3,1.5-.3s1,.1,1.4.3c.4.2.7.6,1,1,.2.4.3,1,.3,1.6ZM858.9,124.5c0,.4,0,.8.2,1.1.1.3.3.6.5.7.2.2.5.2.9.2s.6,0,.9-.2c.2-.2.4-.4.5-.7.1-.3.2-.7.2-1.1s0-.8-.2-1.1c-.1-.3-.3-.5-.5-.7-.2-.2-.5-.2-.9-.2-.5,0-.9.2-1.2.5-.2.4-.4.9-.4,1.5ZM864.1,125.1v-1h2.6v1h-2.6ZM872.9,121.7v5.8h-.9l-.2-.8h0c-.1.2-.3.4-.5.5-.2.1-.4.2-.6.3-.2,0-.5,0-.7,0-.4,0-.8,0-1.1-.2-.3-.1-.6-.4-.7-.7-.2-.3-.2-.7-.2-1.2v-3.8h1.1v3.6c0,.4,0,.8.3,1,.2.2.5.3.9.3s.7,0,.9-.2c.2-.2.4-.4.5-.7,0-.3.1-.7.1-1.1v-2.9h1.1ZM878.5,125.8c0,.4,0,.7-.3,1-.2.2-.4.4-.8.6-.3.1-.8.2-1.2.2s-.7,0-1,0-.6-.2-.8-.3v-1c.3.1.6.2.9.3s.7.1,1,.1.7,0,.9-.2.3-.3.3-.5,0-.2-.1-.3c0-.1-.2-.2-.4-.3-.2-.1-.5-.2-.9-.4-.4-.1-.7-.3-.9-.4s-.4-.3-.6-.5c-.1-.2-.2-.5-.2-.8,0-.5.2-.9.6-1.1.4-.3.9-.4,1.6-.4s.7,0,1,.1c.3,0,.6.2.9.3l-.4.8c-.2,0-.5-.2-.8-.2s-.5-.1-.8-.1-.6,0-.8.2c-.2.1-.3.2-.3.4s0,.3.1.4.2.2.4.3c.2,0,.5.2.9.4.4.1.7.3.9.4s.4.3.6.5c.1.2.2.5.2.8ZM882.1,121.6c.5,0,.9.1,1.3.3.4.2.7.5.8.9.2.4.3.8.3,1.4v.6h-3.9c0,.6.2,1,.5,1.3.3.3.7.5,1.3.5s.7,0,1,0c.3,0,.6-.2.9-.3v.9c-.3.1-.6.2-.9.3-.3,0-.6,0-1.1,0s-1-.1-1.5-.3c-.4-.2-.7-.5-1-1-.2-.4-.4-1-.4-1.6s.1-1.2.3-1.6c.2-.4.5-.8.9-1,.4-.2.9-.4,1.4-.4ZM882.1,122.5c-.4,0-.7.1-1,.4-.2.3-.4.6-.4,1.1h2.7c0-.3,0-.6-.1-.8s-.2-.4-.4-.5c-.2-.1-.4-.2-.7-.2Z"/>
      <path class="st13" d="M813.2,137.8c-.7,0-1.2-.2-1.7-.8-.4-.5-.6-1.2-.6-2.2s.2-1.7.6-2.2c.4-.5,1-.8,1.7-.8s.6,0,.8.1c.2,0,.4.2.6.3s.3.3.4.4h0c0,0,0-.2,0-.4,0-.2,0-.4,0-.5v-2.1h1.1v8.1h-.9l-.2-.8h0c-.1.2-.3.3-.4.5-.2.1-.3.2-.6.3-.2,0-.5.1-.8.1ZM813.4,136.8c.6,0,.9-.2,1.2-.5.2-.3.3-.8.3-1.4v-.2c0-.7-.1-1.2-.3-1.5-.2-.4-.6-.5-1.2-.5s-.8.2-1.1.6c-.2.4-.3.9-.3,1.5s.1,1.1.3,1.5c.2.3.6.5,1.1.5ZM820.1,131.8c.7,0,1.2.2,1.6.5.4.3.5.8.5,1.5v3.9h-.8l-.2-.8h0c-.2.2-.3.4-.5.5-.2.1-.4.2-.6.3-.2,0-.5,0-.8,0s-.6,0-.9-.2c-.3-.1-.5-.3-.6-.6-.2-.3-.2-.6-.2-1,0-.6.2-1,.7-1.3.4-.3,1.1-.5,2-.5h1v-.3c0-.4,0-.7-.3-.9-.2-.2-.5-.3-.8-.3s-.6,0-.8.1c-.3,0-.5.2-.8.3l-.3-.8c.3-.1.6-.3.9-.4.4,0,.8-.1,1.2-.1ZM820.3,134.9c-.7,0-1.1.1-1.4.3s-.4.4-.4.8,0,.5.3.7c.2.1.4.2.7.2.4,0,.8-.1,1.1-.4.3-.2.4-.6.4-1.1v-.5h-.8ZM825.9,136.8c.1,0,.3,0,.5,0,.2,0,.3,0,.4-.1v.9c-.1,0-.3,0-.5.1s-.4,0-.6,0c-.3,0-.6,0-.9-.2-.3-.1-.5-.3-.6-.6s-.2-.6-.2-1.1v-3.2h-.8v-.5l.8-.4.4-1.2h.7v1.3h1.6v.9h-1.6v3.2c0,.3,0,.5.2.7.2.1.4.2.6.2ZM830.2,131.8c.7,0,1.2.2,1.6.5.4.3.5.8.5,1.5v3.9h-.8l-.2-.8h0c-.2.2-.3.4-.5.5-.2.1-.4.2-.6.3-.2,0-.5,0-.8,0s-.6,0-.9-.2c-.3-.1-.5-.3-.6-.6-.2-.3-.2-.6-.2-1,0-.6.2-1,.7-1.3.4-.3,1.1-.5,2-.5h1v-.3c0-.4,0-.7-.3-.9-.2-.2-.5-.3-.8-.3s-.6,0-.8.1c-.3,0-.5.2-.8.3l-.3-.8c.3-.1.6-.3.9-.4.4,0,.8-.1,1.2-.1ZM830.5,134.9c-.7,0-1.1.1-1.4.3-.2.2-.4.4-.4.8,0,.3,0,.5.3.7.2.1.4.2.7.2.4,0,.8-.1,1.1-.4.3-.2.4-.6.4-1.1v-.5h-.8Z"/>
      <path class="st10" d="M783.7,120.1h17.6"/>
      <path class="st2" d="M783.7,120.1h11.6"/>
      <path class="st11" d="M795.3,121.8l4.5-1.7-4.5-1.7v3.3Z"/>
      <path class="st5" d="M125.9,175.7h0c0-18.1,14.7-32.8,32.8-32.8h0c8.7,0,17,3.5,23.2,9.6,6.1,6.1,9.6,14.5,9.6,23.2h0c0,18.1-14.7,32.8-32.8,32.8h0c-18.1,0-32.8-14.7-32.8-32.8Z"/>
      <path class="st2" d="M125.9,175.7h0c0-18.1,14.7-32.8,32.8-32.8h0c8.7,0,17,3.5,23.2,9.6,6.1,6.1,9.6,14.5,9.6,23.2h0c0,18.1-14.7,32.8-32.8,32.8h0c-18.1,0-32.8-14.7-32.8-32.8Z"/>
      <path class="st13" d="M155,170.5c0,.6-.1,1.2-.4,1.6-.2.4-.6.8-1,1s-1,.3-1.6.3h-1.6v-5.7h1.8c.6,0,1.1.1,1.5.3.4.2.8.5,1,.9.2.4.3.9.3,1.5ZM154.1,170.5c0-.5,0-.9-.2-1.2-.2-.3-.4-.5-.7-.7-.3-.2-.7-.2-1.1-.2h-.9v4.2h.7c.7,0,1.3-.2,1.6-.5.4-.4.5-.9.5-1.6ZM157.8,169c.5,0,.9.1,1.2.4.3.2.4.6.4,1.1v2.9h-.6l-.2-.6h0c-.1.1-.3.3-.4.4-.1.1-.3.2-.4.2-.2,0-.4,0-.6,0s-.5,0-.7-.1c-.2,0-.4-.2-.5-.4-.1-.2-.2-.4-.2-.7,0-.4.2-.8.5-1,.3-.2.8-.4,1.5-.4h.7v-.2c0-.3,0-.6-.2-.7-.1-.1-.3-.2-.6-.2s-.4,0-.6.1c-.2,0-.4.1-.6.2l-.2-.6c.2-.1.4-.2.7-.3.3,0,.6-.1.9-.1ZM158,171.3c-.5,0-.8,0-1,.2-.2.1-.3.3-.3.6s0,.4.2.5c.1.1.3.2.5.2.3,0,.6,0,.8-.3s.3-.5.3-.8v-.4h-.6ZM162.3,172.8c.1,0,.2,0,.3,0,.1,0,.2,0,.3,0v.6c0,0-.2,0-.4.1s-.3,0-.5,0c-.2,0-.4,0-.6-.1-.2,0-.4-.2-.5-.4-.1-.2-.2-.5-.2-.8v-2.4h-.6v-.4l.6-.3.3-.9h.5v1h1.2v.7h-1.2v2.4c0,.2,0,.4.2.5.1.1.3.2.5.2ZM165.5,169c.5,0,.9.1,1.2.4.3.2.4.6.4,1.1v2.9h-.6l-.2-.6h0c-.1.1-.3.3-.4.4-.1.1-.3.2-.4.2-.2,0-.4,0-.6,0s-.5,0-.7-.1c-.2,0-.4-.2-.5-.4-.1-.2-.2-.4-.2-.7,0-.4.2-.8.5-1,.3-.2.8-.4,1.5-.4h.7v-.2c0-.3,0-.6-.2-.7-.1-.1-.3-.2-.6-.2s-.4,0-.6.1c-.2,0-.4.1-.6.2l-.2-.6c.2-.1.4-.2.7-.3.3,0,.6-.1.9-.1ZM165.6,171.3c-.5,0-.8,0-1,.2-.2.1-.3.3-.3.6s0,.4.2.5c.1.1.3.2.5.2.3,0,.6,0,.8-.3s.3-.5.3-.8v-.4h-.6Z"/>
      <path class="st13" d="M149.4,182.2c0,.3,0,.5-.2.7-.1.2-.3.3-.6.4-.3,0-.6.1-.9.1s-.6,0-.8,0c-.2,0-.4-.1-.6-.2v-.8c.2,0,.4.2.7.2.2,0,.5.1.7.1s.6,0,.7-.2c.1-.1.2-.2.2-.4s0-.2,0-.3c0,0-.2-.2-.3-.2-.1,0-.4-.2-.6-.3-.3-.1-.5-.2-.7-.3-.2-.1-.3-.2-.4-.4-.1-.2-.2-.3-.2-.6,0-.4.2-.7.5-.9.3-.2.7-.3,1.2-.3s.5,0,.7,0c.2,0,.5.1.7.2l-.3.6c-.2,0-.4-.1-.6-.2-.2,0-.4,0-.6,0s-.5,0-.6.1c-.1,0-.2.2-.2.3s0,.2,0,.3c0,0,.2.1.3.2.2,0,.4.2.6.3.3.1.5.2.7.3.2.1.3.2.4.4.1.2.2.3.2.6ZM154.2,181.2c0,.4,0,.7-.1,1,0,.3-.2.5-.4.7-.2.2-.4.3-.7.4-.2,0-.5.1-.8.1s-.6,0-.8-.1c-.2-.1-.5-.2-.6-.4-.2-.2-.3-.4-.4-.7,0-.3-.1-.6-.1-1s0-.9.2-1.2c.2-.3.4-.6.7-.8.3-.2.7-.3,1.1-.3s.7,0,1,.3c.3.2.5.4.7.8.2.3.3.7.3,1.2ZM151.1,181.2c0,.3,0,.6.1.8,0,.2.2.4.4.5.2.1.4.2.7.2s.5,0,.6-.2c.2-.1.3-.3.4-.5,0-.2.1-.5.1-.8s0-.6-.1-.8c0-.2-.2-.4-.4-.5-.2-.1-.4-.2-.7-.2-.4,0-.7.1-.9.4-.2.3-.3.6-.3,1.1ZM159,179.1v4.3h-.7v-.6h-.2c0,.1-.2.3-.4.4-.1,0-.3.2-.5.2-.2,0-.3,0-.5,0-.3,0-.6,0-.9-.2-.2-.1-.4-.3-.5-.5-.1-.2-.2-.5-.2-.9v-2.8h.9v2.7c0,.3,0,.6.2.8.1.2.4.2.7.2s.5,0,.7-.2c.2-.1.3-.3.4-.5,0-.2.1-.5.1-.8v-2.2h.9ZM162.5,179c0,0,.2,0,.2,0,0,0,.2,0,.2,0v.8c-.2,0-.2,0-.3,0,0,0-.2,0-.2,0-.2,0-.3,0-.5,0-.1,0-.3.2-.4.3-.1.1-.2.2-.3.4,0,.2,0,.4,0,.6v2.3h-.8v-4.3h.7v.8h.2c0-.2.2-.3.3-.4.1-.1.3-.2.4-.3.2,0,.3-.1.5-.1ZM165.3,183.5c-.4,0-.7,0-1-.2s-.5-.4-.7-.7c-.2-.3-.2-.8-.2-1.3s0-.9.3-1.3c.2-.3.4-.6.7-.7s.7-.2,1.1-.2.4,0,.7,0c.2,0,.4,0,.5.2l-.2.7c-.1,0-.3-.1-.5-.2-.2,0-.3,0-.5,0-.3,0-.5,0-.7.2-.2.1-.3.3-.4.5,0,.2-.1.5-.1.8s0,.6.1.8c0,.2.2.4.4.5.2.1.4.2.6.2s.5,0,.6,0c.2,0,.4-.1.5-.2v.7c-.1,0-.3.1-.5.2-.2,0-.4,0-.7,0ZM169.2,179c.4,0,.7,0,1,.2.3.2.5.4.6.7.1.3.2.6.2,1v.5h-2.9c0,.4.1.8.3,1,.2.2.5.3,1,.3s.5,0,.7,0c.2,0,.4-.1.7-.2v.7c-.2,0-.4.2-.7.2-.2,0-.5,0-.8,0s-.8,0-1.1-.2c-.3-.2-.6-.4-.7-.8-.2-.3-.3-.7-.3-1.2s0-.9.2-1.2c.2-.3.4-.6.7-.8.3-.2.6-.3,1-.3ZM169.2,179.7c-.3,0-.6,0-.7.3-.2.2-.3.5-.3.8h2c0-.2,0-.4-.1-.6,0-.2-.2-.3-.3-.4-.1-.1-.3-.2-.5-.2Z"/>
      <path class="st5" d="M409.1,22.1h320.6v37.5h-320.6V22.1Z"/>
      <path class="st13" d="M445,38.8c0,1-.1,2-.4,2.8-.2.8-.6,1.6-1.2,2.2-.5.6-1.2,1.1-2,1.4-.8.3-1.7.5-2.8.5s-2-.2-2.8-.5c-.8-.3-1.5-.8-2-1.4-.5-.6-.9-1.3-1.2-2.2-.2-.8-.4-1.8-.4-2.8s.2-2.6.7-3.6c.5-1,1.2-1.8,2.1-2.4.9-.6,2.1-.9,3.6-.9s2.6.3,3.6.9c.9.6,1.6,1.4,2.1,2.4.4,1,.7,2.2.7,3.6ZM435.3,38.8c0,.9.1,1.7.3,2.4.2.7.6,1.2,1.1,1.5s1.1.5,1.9.5,1.4-.2,1.9-.5c.5-.4.8-.9,1.1-1.5.2-.7.3-1.5.3-2.4,0-1.4-.3-2.5-.8-3.3-.5-.8-1.4-1.2-2.5-1.2s-1.4.2-1.9.5c-.5.4-.9.9-1.1,1.5-.2.7-.3,1.5-.3,2.4ZM451.9,32.1c1.8,0,3.2.3,4,.8.8.5,1.2,1.4,1.2,2.5,0,.6-.1,1-.3,1.5-.2.4-.5.7-.8,1-.3.2-.7.4-1.1.5h0c.4.2.9.3,1.2.6.4.2.7.5,1,1,.2.4.4,1,.4,1.7,0,.8-.2,1.5-.6,2.1-.4.6-1,1-1.7,1.3-.7.3-1.6.5-2.6.5h-5v-13.3h4.3ZM452.1,37.4c.8,0,1.4-.1,1.7-.4.3-.3.5-.7.5-1.2,0-.5-.2-.9-.5-1.1-.4-.2-.9-.4-1.8-.4h-1.5v3.1h1.6ZM450.5,39.6v3.6h1.8c.8,0,1.4-.2,1.8-.5.3-.3.5-.8.5-1.3,0-.3,0-.6-.2-.9-.1-.3-.4-.5-.7-.6-.3-.2-.8-.2-1.4-.2h-1.7ZM465.1,45.4h-6.1v-1.6l1.6-.7v-8.6l-1.6-.8v-1.6h6.1v1.6l-1.6.8v8.6l1.6.7v1.6ZM475.2,41.7c0,.8-.2,1.5-.6,2-.4.6-.9,1-1.7,1.4-.7.3-1.6.5-2.7.5s-.9,0-1.4,0c-.4,0-.9-.2-1.3-.3-.4-.1-.8-.3-1.1-.4v-2.6c.6.3,1.3.5,2,.8.7.2,1.3.3,2,.3s.8,0,1.1-.2c.3-.1.5-.3.6-.5.1-.2.2-.5.2-.7s-.1-.6-.3-.9c-.2-.2-.5-.5-.9-.7-.4-.2-.8-.4-1.3-.7-.3-.1-.6-.3-1-.5-.4-.2-.7-.5-1-.8-.3-.3-.6-.7-.8-1.1-.2-.4-.3-1-.3-1.6s.2-1.5.5-2c.4-.6.9-1,1.6-1.3.7-.3,1.5-.5,2.4-.5s1.4,0,2,.2c.6.2,1.3.4,2,.7l-.9,2.2c-.6-.2-1.2-.4-1.6-.6-.5-.1-1-.2-1.5-.2s-.6,0-.9.2c-.2.1-.4.3-.6.5-.1.2-.2.4-.2.7s0,.6.3.8.5.4.8.6.8.4,1.4.7c.7.3,1.3.7,1.8,1,.5.3.8.8,1.1,1.2.3.5.4,1.1.4,1.8ZM488.2,34.3c-.5,0-1,.1-1.5.3-.4.2-.8.5-1.1.9-.3.4-.5.9-.7,1.4s-.2,1.2-.2,1.9.1,1.7.4,2.4c.3.7.7,1.2,1.2,1.5.5.3,1.2.5,2,.5s1.1,0,1.7-.2c.5-.1,1.1-.3,1.6-.5v2.4c-.6.2-1.1.4-1.7.5-.6.1-1.2.2-1.9.2-1.4,0-2.6-.3-3.5-.8-.9-.6-1.6-1.4-2-2.4s-.7-2.2-.7-3.6.1-1.9.4-2.8c.3-.8.7-1.6,1.2-2.2.6-.6,1.2-1.1,2-1.4.8-.3,1.7-.5,2.8-.5s1.3,0,2,.2c.7.1,1.3.4,1.9.7l-.9,2.3c-.4-.2-.9-.4-1.4-.5-.5-.2-1-.2-1.6-.2ZM503.6,40.3c0,.8-.1,1.6-.3,2.3-.2.7-.6,1.2-1,1.7-.4.4-.9.8-1.6,1-.6.2-1.3.3-2.1.3s-1.4-.1-2-.3c-.6-.2-1.1-.6-1.5-1-.4-.4-.8-1-1-1.7-.2-.7-.4-1.4-.4-2.3s.2-2.1.6-2.9c.4-.8,1-1.4,1.7-1.8.8-.4,1.6-.6,2.7-.6s1.8.2,2.5.6c.7.4,1.3,1,1.7,1.8.4.8.6,1.7.6,2.9ZM496.5,40.3c0,.7,0,1.2.2,1.7.1.5.4.8.7,1.1.3.2.7.4,1.2.4s.9-.1,1.2-.4c.3-.2.5-.6.7-1.1.1-.5.2-1,.2-1.7s0-1.2-.2-1.7c-.1-.5-.4-.8-.7-1-.3-.2-.7-.4-1.2-.4-.7,0-1.3.3-1.6.8-.3.5-.5,1.3-.5,2.3ZM517.8,35.1c1.2,0,2,.3,2.6.9s.9,1.5.9,2.9v6.6h-2.8v-5.9c0-.8-.1-1.3-.4-1.7-.3-.3-.7-.5-1.2-.5s-1.2.3-1.5.8c-.3.5-.5,1.3-.5,2.2v5.1h-2.8v-5.9c0-.5,0-.9-.2-1.2-.1-.3-.3-.6-.5-.7-.2-.2-.5-.2-.9-.2-.5,0-.9.1-1.2.4-.3.3-.5.6-.6,1.1-.1.5-.2,1.1-.2,1.8v4.8h-2.8v-10.2h2.2l.4,1.3h0c.2-.3.4-.6.7-.8.3-.2.6-.4,1-.5.4-.1.8-.2,1.3-.2.8,0,1.4.1,1.9.4.5.3.9.6,1.2,1.1h0c.3-.5.8-.9,1.3-1.1.5-.3,1.1-.4,1.8-.4ZM536,35.1c1.2,0,2,.3,2.6.9s.9,1.5.9,2.9v6.6h-2.8v-5.9c0-.8-.1-1.3-.4-1.7-.3-.3-.7-.5-1.2-.5s-1.2.3-1.5.8c-.3.5-.5,1.3-.5,2.2v5.1h-2.8v-5.9c0-.5,0-.9-.2-1.2-.1-.3-.3-.6-.5-.7-.2-.2-.5-.2-.9-.2-.5,0-.9.1-1.2.4-.3.3-.5.6-.6,1.1-.1.5-.2,1.1-.2,1.8v4.8h-2.8v-10.2h2.2l.4,1.3h0c.2-.3.4-.6.7-.8.3-.2.6-.4,1-.5.4-.1.8-.2,1.3-.2.8,0,1.4.1,1.9.4.5.3.9.6,1.2,1.1h0c.3-.5.8-.9,1.3-1.1.5-.3,1.1-.4,1.8-.4ZM551.6,35.2v10.2h-2.2l-.3-1.3h-.2c-.2.4-.5.6-.8.9-.3.2-.7.4-1.1.5-.4.1-.8.2-1.2.2-.7,0-1.3-.1-1.9-.4s-1-.7-1.3-1.2c-.3-.6-.5-1.3-.5-2.1v-6.6h2.8v5.9c0,.7.1,1.3.4,1.6.3.4.7.5,1.2.5s1-.1,1.3-.4c.3-.2.5-.6.7-1.1.1-.5.2-1.1.2-1.8v-4.8h2.8ZM560.1,35.1c1.1,0,2,.3,2.6.9.6.6,1,1.5,1,2.9v6.6h-2.8v-5.9c0-.7-.1-1.3-.4-1.6-.3-.4-.7-.6-1.2-.6-.8,0-1.4.3-1.7.9-.3.6-.5,1.4-.5,2.5v4.8h-2.8v-10.2h2.2l.4,1.4h.1c.2-.3.5-.6.8-.8.3-.2.7-.4,1.1-.5.4-.1.8-.2,1.3-.2ZM569.3,35.2v10.2h-2.8v-10.2h2.8ZM567.9,31.2c.4,0,.8,0,1.1.3.3.2.5.6.5,1.1s-.2.9-.5,1.1c-.3.2-.7.3-1.1.3s-.8,0-1.1-.3c-.3-.2-.5-.6-.5-1.1s.2-.9.5-1.1c.3-.2.7-.3,1.1-.3ZM576.4,43.4c.3,0,.6,0,.9,0,.3,0,.6-.1.9-.2v2.1c-.3.1-.7.2-1.1.3s-.9.1-1.5.1-1.1,0-1.6-.3c-.5-.2-.9-.5-1.1-1-.3-.5-.4-1.2-.4-2v-4.9h-1.3v-1.2l1.5-.9.8-2.1h1.8v2.2h2.9v2.1h-2.9v4.9c0,.4.1.7.3.9.2.2.5.3.9.3ZM578.8,35.2h3l1.9,5.8c0,.2.1.4.2.6,0,.2.1.4.2.6,0,.2,0,.4,0,.6h0c0-.3.1-.5.2-.9s.2-.6.3-.9l1.9-5.8h2.9l-4.2,11.1c-.3.8-.6,1.4-1,1.9-.4.5-.8.9-1.4,1.2-.5.3-1.2.4-2,.4s-.6,0-.8,0c-.2,0-.4,0-.6-.1v-2.2c.1,0,.3,0,.5,0,.2,0,.4,0,.6,0,.4,0,.7,0,1-.2.3-.2.5-.4.7-.6.2-.2.3-.5.5-.9l.2-.6-4-10.1ZM600.2,35.1c1.3,0,2.3.3,2.9.9.7.6,1,1.5,1,2.7v6.8h-2l-.5-1.4h0c-.3.4-.6.7-.9.9s-.7.4-1.1.5c-.4.1-.9.2-1.5.2s-1.1-.1-1.6-.3c-.5-.2-.8-.6-1.1-1-.3-.5-.4-1.1-.4-1.8,0-1.1.4-1.9,1.2-2.4.8-.5,1.9-.8,3.5-.9h1.7v-.4c0-.6-.1-1-.4-1.3-.3-.2-.7-.4-1.2-.4s-.9,0-1.4.2c-.5.1-1,.3-1.4.5l-.8-1.9c.5-.3,1.1-.5,1.8-.6.7-.2,1.5-.2,2.3-.2ZM600.2,40.8c-.9,0-1.5.2-1.8.4-.3.3-.5.6-.5,1.1s.1.8.4,1,.6.3,1,.3c.6,0,1.1-.2,1.5-.5.4-.4.6-.9.6-1.5v-.8h-1.1ZM610.1,45.6c-1.1,0-2-.4-2.8-1.3-.7-.9-1.1-2.2-1.1-3.9s.4-3.1,1.1-4c.7-.9,1.7-1.3,2.8-1.3s.9,0,1.2.2c.4.1.7.3.9.5.3.2.5.5.7.8h0c0-.2,0-.5-.1-.9,0-.4,0-.8,0-1.1v-3.2h2.8v14.2h-2.2l-.6-1.3h-.1c-.2.3-.4.6-.7.8-.3.2-.6.4-.9.5-.4.1-.8.2-1.3.2ZM611.1,43.4c.8,0,1.3-.2,1.6-.7s.5-1.1.5-2v-.3c0-1-.2-1.7-.5-2.2-.3-.5-.8-.8-1.7-.8s-1.1.3-1.4.8c-.3.5-.5,1.3-.5,2.3s.2,1.7.5,2.2c.3.5.8.7,1.5.7ZM621.9,45.6c-1.1,0-2-.4-2.8-1.3-.7-.9-1.1-2.2-1.1-3.9s.4-3.1,1.1-4c.7-.9,1.7-1.3,2.8-1.3s.9,0,1.2.2c.4.1.7.3.9.5.3.2.5.5.7.8h0c0-.2,0-.5-.1-.9,0-.4,0-.8,0-1.1v-3.2h2.8v14.2h-2.2l-.6-1.3h-.1c-.2.3-.4.6-.7.8-.3.2-.6.4-.9.5s-.8.2-1.3.2ZM622.9,43.4c.8,0,1.3-.2,1.6-.7s.5-1.1.5-2v-.3c0-1-.2-1.7-.5-2.2-.3-.5-.8-.8-1.7-.8s-1.1.3-1.4.8c-.3.5-.5,1.3-.5,2.3s.2,1.7.5,2.2c.3.5.8.7,1.5.7ZM634.7,35.1c.9,0,1.8.2,2.4.5.7.4,1.2.9,1.6,1.6.4.7.6,1.5.6,2.5v1.4h-6.5c0,.8.3,1.4.7,1.8.4.4,1.1.7,1.9.7s1.2,0,1.7-.2,1.1-.3,1.6-.6v2.1c-.5.2-1,.4-1.6.5-.6.1-1.2.2-2.1.2s-1.9-.2-2.7-.6c-.8-.4-1.4-.9-1.8-1.7-.4-.8-.7-1.8-.7-2.9s.2-2.2.6-3c.4-.8,1-1.4,1.7-1.8.7-.4,1.6-.6,2.5-.6ZM634.8,37.1c-.6,0-1,.2-1.4.5s-.5.9-.6,1.6h3.8c0-.4,0-.8-.2-1.1-.1-.3-.3-.6-.6-.8-.3-.2-.6-.3-1-.3ZM644.9,45.6c-1.1,0-2-.4-2.8-1.3-.7-.9-1.1-2.2-1.1-3.9s.4-3.1,1.1-4c.7-.9,1.7-1.3,2.8-1.3s.9,0,1.2.2c.4.1.7.3.9.5.3.2.5.5.7.8h0c0-.2,0-.5-.1-.9,0-.4,0-.8,0-1.1v-3.2h2.8v14.2h-2.2l-.6-1.3h-.1c-.2.3-.4.6-.7.8-.3.2-.6.4-.9.5s-.8.2-1.3.2ZM645.8,43.4c.8,0,1.3-.2,1.6-.7s.5-1.1.5-2v-.3c0-1-.2-1.7-.5-2.2-.3-.5-.8-.8-1.7-.8s-1.1.3-1.4.8c-.3.5-.5,1.3-.5,2.3s.2,1.7.5,2.2c.3.5.8.7,1.5.7ZM660.7,45.4l-3.9-10.2h3l1.9,6c0,.1.1.3.2.5,0,.2.1.4.2.6s0,.4,0,.6h0c0-.2,0-.3.1-.5,0-.2.1-.4.2-.6s.1-.4.2-.5l1.9-6h3l-3.9,10.2h-2.9ZM673.4,35.1c1.3,0,2.3.3,2.9.9.7.6,1,1.5,1,2.7v6.8h-2l-.5-1.4h0c-.3.4-.6.7-.9.9s-.7.4-1.1.5c-.4.1-.9.2-1.5.2s-1.1-.1-1.6-.3c-.5-.2-.8-.6-1.1-1-.3-.5-.4-1.1-.4-1.8,0-1.1.4-1.9,1.2-2.4.8-.5,1.9-.8,3.5-.9h1.7v-.4c0-.6-.1-1-.4-1.3-.3-.2-.7-.4-1.2-.4s-.9,0-1.4.2c-.5.1-1,.3-1.4.5l-.8-1.9c.5-.3,1.1-.5,1.8-.6.7-.2,1.5-.2,2.3-.2ZM673.4,40.8c-.9,0-1.5.2-1.8.4-.3.3-.5.6-.5,1.1s.1.8.4,1,.6.3,1,.3c.6,0,1.1-.2,1.5-.5.4-.4.6-.9.6-1.5v-.8h-1.1ZM682.8,45.4h-2.8v-14.2h2.8v14.2ZM694.9,35.2v10.2h-2.2l-.3-1.3h-.2c-.2.4-.5.6-.8.9-.3.2-.7.4-1.1.5-.4.1-.8.2-1.2.2-.7,0-1.3-.1-1.9-.4-.5-.3-1-.7-1.3-1.2-.3-.6-.5-1.3-.5-2.1v-6.6h2.8v5.9c0,.7.1,1.3.4,1.6.3.4.7.5,1.2.5s1-.1,1.3-.4c.3-.2.5-.6.7-1.1.1-.5.2-1.1.2-1.8v-4.8h2.8ZM702,35.1c.9,0,1.8.2,2.4.5.7.4,1.2.9,1.6,1.6.4.7.6,1.5.6,2.5v1.4h-6.5c0,.8.3,1.4.7,1.8.4.4,1.1.7,1.9.7s1.2,0,1.7-.2c.5-.1,1.1-.3,1.6-.6v2.1c-.5.2-1,.4-1.6.5-.6.1-1.2.2-2.1.2s-1.9-.2-2.7-.6c-.8-.4-1.4-.9-1.8-1.7-.4-.8-.7-1.8-.7-2.9s.2-2.2.6-3c.4-.8,1-1.4,1.7-1.8.7-.4,1.6-.6,2.5-.6ZM702.1,37.1c-.6,0-1,.2-1.4.5s-.5.9-.6,1.6h3.8c0-.4,0-.8-.2-1.1-.1-.3-.3-.6-.6-.8-.3-.2-.6-.3-1-.3Z"/>
    </g>
  </g>
</svg>