<?xml version="1.0" encoding="UTF-8"?>
<svg id="Layer_1" xmlns="http://www.w3.org/2000/svg" xmlns:xlink="http://www.w3.org/1999/xlink" version="1.1" viewBox="0 0 960 540">
  <!-- Generator: Adobe Illustrator 29.4.0, SVG Export Plug-In . SVG Version: 2.1.0 Build 152)  -->
  <defs>
    <style>
      .st0, .st1, .st2 {
        fill: none;
      }

      .st3, .st4, .st5, .st6, .st7, .st8, .st9, .st10, .st11, .st12 {
        fill-rule: evenodd;
      }

      .st3, .st13 {
        fill: #fff;
      }

      .st4, .st14, .st5, .st6, .st7, .st12 {
        fill: #156082;
      }

      .st5 {
        fill-opacity: .1;
      }

      .st6 {
        fill-opacity: .8;
      }

      .st7 {
        fill-opacity: .4;
      }

      .st8 {
        fill: #080e10;
      }

      .st1, .st2 {
        stroke-linejoin: round;
      }

      .st1, .st12 {
        stroke: #156082;
      }

      .st2, .st10 {
        stroke: #005c6d;
      }

      .st9 {
        fill: #173a4a;
      }

      .st10 {
        fill: #005c6d;
      }

      .st10, .st12 {
        stroke-miterlimit: 10;
      }

      .st11 {
        fill-opacity: 0;
      }

      .st15 {
        clip-path: url(#clippath);
      }
    </style>
    <clipPath id="clippath">
      <rect class="st0" y="-22" width="960" height="540"/>
    </clipPath>
  </defs>
  <g class="st15">
    <g>
      <path class="st3" d="M0,.2h960v540H0V.2Z"/>
      <path class="st3" d="M113.3,103.2h0c0-18.7,15.2-33.9,33.9-33.9h0c9,0,17.6,3.6,24,9.9,6.4,6.4,9.9,15,9.9,24h0c0,18.7-15.2,33.9-33.9,33.9h0c-18.7,0-33.9-15.2-33.9-33.9Z"/>
      <path class="st1" d="M113.3,103.2h0c0-18.7,15.2-33.9,33.9-33.9h0c9,0,17.6,3.6,24,9.9,6.4,6.4,9.9,15,9.9,24h0c0,18.7-15.2,33.9-33.9,33.9h0c-18.7,0-33.9-15.2-33.9-33.9Z"/>
      <path class="st3" d="M188,103.2h0c0-18.7,15.2-33.9,33.9-33.9h0c9,0,17.6,3.6,24,9.9,6.4,6.4,9.9,15,9.9,24h0c0,18.7-15.2,33.9-33.9,33.9h0c-18.7,0-33.9-15.2-33.9-33.9Z"/>
      <path class="st1" d="M188,103.2h0c0-18.7,15.2-33.9,33.9-33.9h0c9,0,17.6,3.6,24,9.9,6.4,6.4,9.9,15,9.9,24h0c0,18.7-15.2,33.9-33.9,33.9h0c-18.7,0-33.9-15.2-33.9-33.9Z"/>
      <path class="st5" d="M488.8,451.8h0c0-4.3,3.5-7.8,7.8-7.8h156.1c2.1,0,4.1.8,5.5,2.3,1.5,1.5,2.3,3.5,2.3,5.5v31.3c0,4.3-3.5,7.8-7.8,7.8h-156.1c-4.3,0-7.8-3.5-7.8-7.8v-31.3h0Z"/>
      <path class="st1" d="M488.8,451.8h0c0-4.3,3.5-7.8,7.8-7.8h156.1c2.1,0,4.1.8,5.5,2.3,1.5,1.5,2.3,3.5,2.3,5.5v31.3c0,4.3-3.5,7.8-7.8,7.8h-156.1c-4.3,0-7.8-3.5-7.8-7.8v-31.3h0Z"/>
      <path class="st14" d="M532.2,467.6c0,1-.2,1.8-.5,2.4-.4.6-.9,1.1-1.5,1.5-.7.3-1.5.5-2.4.5h-2.5v-8.6h2.7c.9,0,1.6.2,2.3.5.6.3,1.1.8,1.5,1.4.3.6.5,1.4.5,2.3h0ZM530.9,467.6c0-.7,0-1.3-.4-1.8-.2-.5-.6-.8-1-1s-1-.3-1.6-.3h-1.3v6.4h1c1.1,0,1.9-.3,2.4-.8s.8-1.4.8-2.4h0ZM536.5,465.3c.8,0,1.4.2,1.8.5.4.4.6.9.6,1.7v4.4h-.9l-.2-.9h0c-.2.2-.4.4-.6.6-.2.1-.4.3-.7.3s-.6.1-.9.1-.7,0-1-.2c-.3-.1-.5-.4-.7-.6-.2-.3-.3-.7-.3-1.1s.2-1.1.8-1.5c.5-.4,1.3-.5,2.3-.6h1.1v-.4c0-.5,0-.8-.3-1s-.5-.3-.9-.3-.6,0-1,.2c-.3,0-.6.2-.9.3l-.4-.9c.3-.2.7-.3,1-.4.4-.1.8-.2,1.3-.2h0ZM536.8,468.8c-.7,0-1.2.2-1.5.4-.3.2-.4.5-.4.9s0,.6.3.7c.2.2.5.2.8.2.5,0,.9-.1,1.2-.4s.5-.7.5-1.3v-.6h-.9,0ZM543.1,471h.5c.2,0,.3,0,.5-.1v1c0,0-.3.1-.6.2h-.7c-.4,0-.7,0-1-.2-.3-.1-.5-.3-.7-.6-.2-.3-.3-.7-.3-1.2v-3.6h-.9v-.6l.9-.5.5-1.4h.8v1.5h1.8v1h-1.8v3.6c0,.3,0,.6.2.8.2.2.4.2.7.2h0ZM548,465.3c.8,0,1.4.2,1.8.5.4.4.6.9.6,1.7v4.4h-.9l-.2-.9h0c-.2.2-.4.4-.6.6-.2.1-.4.3-.7.3s-.6.1-.9.1-.7,0-1-.2c-.3-.1-.5-.4-.7-.6-.2-.3-.3-.7-.3-1.1s.2-1.1.8-1.5c.5-.4,1.3-.5,2.3-.6h1.1v-.4c0-.5,0-.8-.3-1s-.5-.3-.9-.3-.6,0-1,.2c-.3,0-.6.2-.9.3l-.4-.9c.3-.2.7-.3,1-.4.4-.1.8-.2,1.3-.2h0ZM548.2,468.8c-.7,0-1.2.2-1.5.4-.3.2-.4.5-.4.9s0,.6.3.7c.2.2.5.2.8.2.5,0,.9-.1,1.2-.4s.5-.7.5-1.3v-.6h-.9,0ZM559.3,471.9l-2.6-7.3h0v7.2h-1.2v-8.6h1.8l2.5,6.9h0l2.5-6.9h1.8v8.6h-1.3v-7.2h0l-2.7,7.3h-1.1.3ZM572.1,468.7c0,.5,0,1-.2,1.4,0,.4-.3.8-.6,1.1-.3.3-.6.5-1,.7-.4.1-.8.2-1.3.2s-.8,0-1.2-.2-.7-.4-1-.7c-.3-.3-.5-.6-.6-1.1,0-.4-.2-.9-.2-1.4s0-1.3.4-1.8c.2-.5.6-.9,1-1.1.5-.3,1-.4,1.6-.4s1.1.1,1.6.4c.4.3.8.6,1.1,1.1s.4,1.1.4,1.8ZM567.4,468.7c0,.5,0,.9.2,1.3,0,.3.3.6.6.8s.6.3,1,.3.7,0,1-.3c.3-.2.4-.5.6-.8,0-.4.2-.8.2-1.3s0-.9-.2-1.2c0-.3-.3-.6-.6-.8s-.6-.3-1-.3c-.6,0-1,.2-1.3.6s-.4,1-.4,1.7h0ZM575,465v1.4h0c.2-.3.4-.5.8-.7.3-.2.7-.3,1.2-.3.8,0,1.4.3,1.9.8.5.6.7,1.4.7,2.5s0,1.4-.3,1.9-.5.9-.9,1.1-.8.4-1.4.4-.9,0-1.2-.3c-.3-.2-.5-.4-.7-.6h0l-.2.8h-.9v-9.1h1.3v2.2h-.3ZM576.7,466.4c-.4,0-.7,0-1,.2s-.4.4-.5.7c0,.3-.2.7-.2,1.2h0c0,.8,0,1.4.4,1.8.2.4.7.6,1.3.6s.9-.2,1.2-.6.4-1,.4-1.7,0-1.3-.4-1.7c-.3-.4-.7-.6-1.2-.6h0ZM582.4,465.5v6.5h-1.3v-6.5h1.3ZM581.8,463c.2,0,.4,0,.5.2,0,.1.2.3.2.5s0,.4-.2.6c0,.1-.3.2-.5.2s-.4,0-.5-.2c0-.1-.2-.3-.2-.6s0-.4.2-.5c0-.1.3-.2.5-.2ZM585.7,471.9h-1.3v-9.1h1.3v9.1ZM588.9,465.5v6.5h-1.3v-6.5h1.3ZM588.3,463c.2,0,.4,0,.5.2,0,.1.2.3.2.5s0,.4-.2.6c0,.1-.3.2-.5.2s-.4,0-.5-.2c0-.1-.2-.3-.2-.6s0-.4.2-.5c0-.1.3-.2.5-.2ZM595.2,471.9h-4.8v-.8l3.3-4.7h-3.1v-1h4.5v.9l-3.3,4.6h3.4v1h0ZM599.2,465.3c.8,0,1.4.2,1.8.5.4.4.6.9.6,1.7v4.4h-.9l-.2-.9h0c-.2.2-.4.4-.6.6-.2.1-.4.3-.7.3s-.6.1-.9.1-.7,0-1-.2c-.3-.1-.5-.4-.7-.6-.2-.3-.3-.7-.3-1.1s.2-1.1.8-1.5c.5-.4,1.3-.5,2.3-.6h1.1v-.4c0-.5,0-.8-.3-1s-.5-.3-.9-.3-.6,0-1,.2c-.3,0-.6.2-.9.3l-.4-.9c.3-.2.7-.3,1-.4.4-.1.8-.2,1.3-.2h0ZM599.4,468.8c-.7,0-1.2.2-1.5.4-.3.2-.4.5-.4.9s0,.6.3.7c.2.2.5.2.8.2.5,0,.9-.1,1.2-.4s.5-.7.5-1.3v-.6h-.9,0ZM605.8,471h.5c.2,0,.3,0,.5-.1v1c0,0-.3.1-.6.2h-.7c-.4,0-.7,0-1-.2-.3-.1-.5-.3-.7-.6-.2-.3-.3-.7-.3-1.2v-3.6h-.9v-.6l.9-.5.5-1.4h.8v1.5h1.8v1h-1.8v3.6c0,.3,0,.6.2.8.2.2.4.2.7.2h0ZM609.3,465.5v6.5h-1.3v-6.5h1.3ZM608.7,463c.2,0,.4,0,.5.2,0,.1.2.3.2.5s0,.4-.2.6c0,.1-.3.2-.5.2s-.4,0-.5-.2c0-.1-.2-.3-.2-.6s0-.4.2-.5c0-.1.3-.2.5-.2ZM617,468.7c0,.5,0,1-.2,1.4,0,.4-.3.8-.6,1.1-.3.3-.6.5-1,.7-.4.1-.8.2-1.3.2s-.8,0-1.2-.2-.7-.4-1-.7c-.3-.3-.5-.6-.6-1.1,0-.4-.2-.9-.2-1.4s0-1.3.4-1.8c.2-.5.6-.9,1-1.1.5-.3,1-.4,1.6-.4s1.1.1,1.6.4c.4.3.8.6,1.1,1.1s.4,1.1.4,1.8ZM612.3,468.7c0,.5,0,.9.2,1.3,0,.3.3.6.6.8s.6.3,1,.3.7,0,1-.3c.3-.2.4-.5.6-.8,0-.4.2-.8.2-1.3s0-.9-.2-1.2c0-.3-.3-.6-.6-.8s-.6-.3-1-.3c-.6,0-1,.2-1.3.6s-.4,1-.4,1.7h0ZM621.9,465.3c.8,0,1.3.2,1.7.6s.6,1,.6,1.8v4.2h-1.3v-4c0-.5,0-.9-.3-1.1s-.5-.4-1-.4-1.1.2-1.4.6c-.2.4-.4.9-.4,1.7v3.3h-1.3v-6.5h1l.2.9h0c0-.2.3-.4.5-.5.2-.2.4-.3.7-.3s.5-.1.8-.1l.2-.2Z"/>
      <path class="st7" d="M489,400.4h0c0-4.3,3.5-7.8,7.8-7.8h156.1c2.1,0,4.1.8,5.5,2.3,1.5,1.5,2.3,3.5,2.3,5.5v31.3c0,4.3-3.5,7.8-7.8,7.8h-156.1c-4.3,0-7.8-3.5-7.8-7.8v-31.3h0Z"/>
      <path class="st2" d="M489,400.4h0c0-4.3,3.5-7.8,7.8-7.8h156.1c2.1,0,4.1.8,5.5,2.3,1.5,1.5,2.3,3.5,2.3,5.5v31.3c0,4.3-3.5,7.8-7.8,7.8h-156.1c-4.3,0-7.8-3.5-7.8-7.8v-31.3h0Z"/>
      <path class="st14" d="M541,416.3c0,.7,0,1.3-.3,1.9-.2.6-.4,1-.8,1.4-.3.4-.8.7-1.3.9l2.1,2.2h-1.8l-1.6-1.9h-.2c-.7,0-1.3-.1-1.8-.3-.5-.2-.9-.5-1.2-.9s-.6-.9-.8-1.4-.2-1.1-.2-1.8,0-1.6.4-2.3c.3-.7.7-1.2,1.3-1.5.6-.4,1.3-.6,2.2-.6s1.6.2,2.2.5c.6.4,1,.9,1.3,1.5.3.7.5,1.4.5,2.3h0ZM534.4,416.3c0,.7,0,1.3.3,1.8.2.5.5.9.9,1.1.4.3.9.4,1.5.4s1.1-.1,1.5-.4.7-.6.8-1.1c.2-.5.3-1.1.3-1.8,0-1-.2-1.8-.6-2.4-.4-.6-1.1-.9-2-.9s-1.1.1-1.5.4-.7.6-.9,1.1-.3,1.1-.3,1.8ZM548.2,414.1v6.5h-1l-.2-.9h0c0,.2-.3.4-.5.6s-.5.2-.7.3c-.2,0-.5.1-.8.1-.5,0-.9,0-1.3-.2-.3-.2-.6-.4-.8-.8s-.3-.8-.3-1.3v-4.2h1.3v4c0,.5,0,.9.3,1.1s.6.4,1,.4.8,0,1-.3c.3-.2.4-.4.5-.8,0-.3.2-.8.2-1.2v-3.3h1.3ZM552.8,414c.8,0,1.4.2,1.8.5.4.4.6.9.6,1.7v4.4h-.9l-.2-.9h0c-.2.2-.4.4-.6.6-.2.1-.4.3-.7.3s-.6.1-.9.1-.7,0-1-.2c-.3-.1-.5-.4-.7-.6-.2-.3-.3-.7-.3-1.1s.2-1.1.8-1.5c.5-.4,1.3-.5,2.3-.6h1.1v-.4c0-.5,0-.8-.3-1s-.5-.3-.9-.3-.6,0-1,.2c-.3,0-.6.2-.9.3l-.4-.9c.3-.2.7-.3,1-.4.4-.1.8-.2,1.3-.2h0ZM553,417.5c-.7,0-1.2.2-1.5.4-.3.2-.4.5-.4.9s0,.6.3.7c.2.2.5.2.8.2.5,0,.9-.1,1.2-.4s.5-.7.5-1.3v-.6h-.9,0ZM558.3,420.6h-1.3v-9.1h1.3v9.1ZM561.6,414.1v6.5h-1.3v-6.5h1.3ZM560.9,411.6c.2,0,.4,0,.5.2,0,.1.2.3.2.5s0,.4-.2.6-.3.2-.5.2-.4,0-.5-.2-.2-.3-.2-.6,0-.4.2-.5c0-.1.3-.2.5-.2ZM565.9,419.7h.5c.2,0,.3,0,.5-.1v1c0,0-.3.1-.6.2h-.7c-.4,0-.7,0-1-.2-.3-.1-.5-.3-.7-.6-.2-.3-.3-.7-.3-1.2v-3.6h-.9v-.6l.9-.5.5-1.4h.8v1.5h1.8v1h-1.8v3.6c0,.3,0,.6.2.8.2.2.4.2.7.2h0ZM567.2,414.1h1.4l1.3,3.7c0,.2,0,.4.2.5,0,.2,0,.4.2.5,0,.2,0,.3,0,.5h0c0-.2,0-.4.2-.7,0-.3.2-.6.3-.9l1.3-3.7h1.4l-2.8,7.3c-.2.4-.4.8-.6,1.1-.2.3-.5.6-.8.7-.3.2-.7.2-1.1.2h-.9v-1h.7c.2,0,.5,0,.6-.1s.3-.2.5-.4c0-.2.2-.4.3-.6l.3-.7-2.6-6.5h0ZM580.2,420.7c-.6,0-1.1-.1-1.6-.3-.4-.2-.8-.6-1.1-1.1-.2-.5-.4-1.1-.4-1.9s0-1.4.4-1.9c.3-.5.6-.9,1.1-1.1s1-.4,1.6-.4.7,0,1,.1.6.2.8.3l-.4,1c-.2,0-.4-.2-.7-.2s-.5-.1-.7-.1c-.4,0-.7,0-1,.3-.3.2-.5.4-.6.8,0,.3-.2.8-.2,1.2s0,.9.2,1.2.3.6.6.8c.2.2.6.2.9.2s.7,0,1-.1c.3,0,.5-.2.8-.3v1.1c-.2.1-.5.2-.8.3-.3,0-.6.1-1,.1h.1ZM589.2,417.3c0,.5,0,1-.2,1.4,0,.4-.3.8-.6,1.1-.3.3-.6.5-1,.7-.4.1-.8.2-1.3.2s-.8,0-1.2-.2-.7-.4-1-.7c-.3-.3-.5-.6-.6-1.1,0-.4-.2-.9-.2-1.4s0-1.3.4-1.8c.2-.5.6-.9,1-1.1.5-.3,1-.4,1.6-.4s1.1.1,1.6.4c.4.3.8.6,1.1,1.1s.4,1.1.4,1.8ZM584.4,417.3c0,.5,0,.9.2,1.3,0,.3.3.6.6.8.3.2.6.3,1,.3s.7,0,1-.3c.3-.2.4-.5.6-.8,0-.4.2-.8.2-1.3s0-.9-.2-1.2c0-.3-.3-.6-.6-.8s-.6-.3-1-.3c-.6,0-1,.2-1.3.6s-.4,1-.4,1.7h0ZM594.1,414c.8,0,1.3.2,1.7.6s.6,1,.6,1.8v4.2h-1.3v-4c0-.5,0-.9-.3-1.1s-.5-.4-1-.4-1.1.2-1.4.6c-.2.4-.4.9-.4,1.7v3.3h-1.3v-6.5h1l.2.9h0c0-.2.3-.4.5-.5.2-.2.4-.3.7-.3s.5-.1.8-.1l.2-.2ZM600.7,419.7h.5c.2,0,.3,0,.5-.1v1c0,0-.3.1-.6.2h-.7c-.4,0-.7,0-1-.2-.3-.1-.5-.3-.7-.6-.2-.3-.3-.7-.3-1.2v-3.6h-.9v-.6l.9-.5.5-1.4h.8v1.5h1.8v1h-1.8v3.6c0,.3,0,.6.2.8.2.2.4.2.7.2h0ZM606.1,414h.8v1.2h-.9c-.2,0-.5,0-.7.1-.2,0-.4.2-.6.4-.2.2-.3.4-.4.6,0,.2-.2.5-.2.9v3.4h-1.3v-6.5h1l.2,1.2h0c0-.2.3-.4.5-.6s.4-.4.7-.5.5-.2.8-.2h0ZM613.5,417.3c0,.5,0,1-.2,1.4,0,.4-.3.8-.6,1.1-.3.3-.6.5-1,.7-.4.1-.8.2-1.3.2s-.8,0-1.2-.2-.7-.4-1-.7c-.3-.3-.5-.6-.6-1.1,0-.4-.2-.9-.2-1.4s0-1.3.4-1.8c.2-.5.6-.9,1-1.1.5-.3,1-.4,1.6-.4s1.1.1,1.6.4c.4.3.8.6,1.1,1.1s.4,1.1.4,1.8ZM608.7,417.3c0,.5,0,.9.2,1.3,0,.3.3.6.6.8.3.2.6.3,1,.3s.7,0,1-.3c.3-.2.4-.5.6-.8,0-.4.2-.8.2-1.3s0-.9-.2-1.2c0-.3-.3-.6-.6-.8s-.6-.3-1-.3c-.6,0-1,.2-1.3.6s-.4,1-.4,1.7h0ZM616.4,420.6h-1.3v-9.1h1.3v9.1Z"/>
      <path class="st6" d="M486.3,349h0c0-4.3,3.5-7.8,7.8-7.8h156.1c2.1,0,4.1.8,5.5,2.3,1.5,1.5,2.3,3.5,2.3,5.5v31.3c0,4.3-3.5,7.8-7.8,7.8h-156.1c-4.3,0-7.8-3.5-7.8-7.8v-31.3h0Z"/>
      <path class="st2" d="M486.3,349h0c0-4.3,3.5-7.8,7.8-7.8h156.1c2.1,0,4.1.8,5.5,2.3,1.5,1.5,2.3,3.5,2.3,5.5v31.3c0,4.3-3.5,7.8-7.8,7.8h-156.1c-4.3,0-7.8-3.5-7.8-7.8v-31.3h0Z"/>
      <path class="st13" d="M533.1,364.8c0,1-.2,1.8-.5,2.4-.4.6-.9,1.1-1.5,1.5-.7.3-1.5.5-2.4.5h-2.5v-8.6h2.7c.9,0,1.6.2,2.3.5.6.3,1.1.8,1.5,1.4s.5,1.4.5,2.3h0ZM531.7,364.9c0-.7,0-1.3-.4-1.8-.2-.5-.6-.8-1-1s-1-.3-1.6-.3h-1.3v6.4h1c1.1,0,1.9-.3,2.4-.8s.8-1.4.8-2.4h0ZM537.4,362.6c.8,0,1.4.2,1.8.5.4.4.6.9.6,1.7v4.4h-.9l-.2-.9h0c-.2.2-.4.4-.6.6-.2.1-.4.3-.7.3s-.6.1-.9.1-.7,0-1-.2c-.3-.1-.5-.4-.7-.6-.2-.3-.3-.7-.3-1.1s.2-1.1.8-1.5c.5-.4,1.3-.5,2.3-.6h1.1v-.4c0-.5,0-.8-.3-1s-.5-.3-.9-.3-.6,0-1,.2c-.3,0-.6.2-.9.3l-.4-.9c.3-.2.7-.3,1-.4s.8-.2,1.3-.2h0ZM537.6,366.1c-.7,0-1.2.2-1.5.4-.3.2-.4.5-.4.9s0,.6.3.7c.2.2.5.2.8.2.5,0,.9-.1,1.2-.4s.5-.7.5-1.3v-.6h-.9,0ZM544,368.3h.5c.2,0,.3,0,.5-.1v1c0,0-.3.1-.6.2h-.7c-.4,0-.7,0-1-.2-.3-.1-.5-.3-.7-.6-.2-.3-.3-.7-.3-1.2v-3.6h-.9v-.6l.9-.5.5-1.4h.8v1.5h1.8v1h-1.8v3.6c0,.3,0,.6.2.8.2.2.4.2.7.2h0ZM548.8,362.6c.8,0,1.4.2,1.8.5.4.4.6.9.6,1.7v4.4h-.9l-.2-.9h0c-.2.2-.4.4-.6.6-.2.1-.4.3-.7.3s-.6.1-.9.1-.7,0-1-.2c-.3-.1-.5-.4-.7-.6-.2-.3-.3-.7-.3-1.1s.2-1.1.8-1.5c.5-.4,1.3-.5,2.3-.6h1.1v-.4c0-.5,0-.8-.3-1s-.5-.3-.9-.3-.6,0-1,.2c-.3,0-.6.2-.9.3l-.4-.9c.3-.2.7-.3,1-.4s.8-.2,1.3-.2h0ZM549.1,366.1c-.7,0-1.2.2-1.5.4-.3.2-.4.5-.4.9s0,.6.3.7c.2.2.5.2.8.2.5,0,.9-.1,1.2-.4s.5-.7.5-1.3v-.6h-.9,0ZM557.5,362.7v6.5h-1.3v-6.5h1.3ZM556.9,360.3c.2,0,.4,0,.5.2,0,.1.2.3.2.5s0,.4-.2.6c0,.1-.3.2-.5.2s-.4,0-.5-.2c0-.1-.2-.3-.2-.6s0-.4.2-.5c0-.1.3-.2.5-.2ZM562.7,362.6c.8,0,1.3.2,1.7.6s.6,1,.6,1.8v4.2h-1.3v-4c0-.5,0-.9-.3-1.1s-.5-.4-1-.4-1.1.2-1.4.6c-.2.4-.4.9-.4,1.7v3.3h-1.3v-6.5h1l.2.9h0c0-.2.3-.4.5-.5.2-.2.4-.3.7-.3s.5-.1.8-.1l.2-.2ZM569.3,368.3h.5c.2,0,.3,0,.5-.1v1c0,0-.3.1-.6.2h-.7c-.4,0-.7,0-1-.2-.3-.1-.5-.3-.7-.6-.2-.3-.3-.7-.3-1.2v-3.6h-.9v-.6l.9-.5.5-1.4h.8v1.5h1.8v1h-1.8v3.6c0,.3,0,.6.2.8.2.2.4.2.7.2h0ZM574.1,362.6c.6,0,1.1.1,1.5.4.4.2.7.6.9,1s.3,1,.3,1.6v.7h-4.3c0,.7.2,1.2.5,1.5.3.4.8.5,1.4.5s.8,0,1.1-.1c.3,0,.7-.2,1-.4v1.1c-.3.1-.7.3-1,.3s-.7.1-1.2.1-1.2-.1-1.6-.4c-.5-.2-.9-.6-1.1-1.1-.3-.5-.4-1.1-.4-1.8s0-1.3.4-1.8c.2-.5.6-.9,1-1.2s.9-.4,1.5-.4h0ZM574.2,363.6c-.5,0-.8.2-1.1.5s-.4.7-.5,1.2h3c0-.3,0-.6-.2-.9,0-.2-.3-.4-.5-.6s-.5-.2-.8-.2h0ZM580.7,362.6c.4,0,.8,0,1.1.2s.6.4.8.7h0v-.8h1.2v6.6c0,.6,0,1.1-.3,1.5s-.5.7-1,.9c-.4.2-1,.3-1.7.3h-1.3c-.4,0-.7-.2-1.1-.3v-1.1c.3.2.7.3,1.1.4.4,0,.8.1,1.3.1s1-.2,1.3-.5.5-.7.5-1.2v-1h0c-.2.3-.5.6-.8.7-.3.2-.7.2-1.2.2-.8,0-1.4-.3-1.9-.9s-.7-1.4-.7-2.5.2-1.8.7-2.5c.5-.6,1.1-.9,1.9-.9h.1ZM581,363.7c-.3,0-.6,0-.9.3-.2.2-.4.4-.5.8,0,.3-.2.8-.2,1.3,0,.8,0,1.3.4,1.7.3.4.7.6,1.2.6s.6,0,.8-.1c.2,0,.4-.2.5-.4,0-.2.2-.4.3-.6s0-.6,0-.9v-.3c0-.5,0-1-.2-1.3,0-.3-.3-.6-.6-.8-.3-.2-.6-.2-1-.2h.2ZM589.1,362.6h.8v1.2h-.9c-.2,0-.5,0-.7.1-.2,0-.4.2-.6.4-.2.2-.3.4-.4.6,0,.2-.2.5-.2.9v3.4h-1.3v-6.5h1l.2,1.2h0c0-.2.3-.4.5-.6s.4-.4.7-.5.5-.2.8-.2h0ZM593.3,362.6c.8,0,1.4.2,1.8.5.4.4.6.9.6,1.7v4.4h-.9l-.2-.9h0c-.2.2-.4.4-.6.6-.2.1-.4.3-.7.3s-.6.1-.9.1-.7,0-1-.2c-.3-.1-.5-.4-.7-.6-.2-.3-.3-.7-.3-1.1s.2-1.1.8-1.5c.5-.4,1.3-.5,2.3-.6h1.1v-.4c0-.5,0-.8-.3-1s-.5-.3-.9-.3-.6,0-1,.2c-.3,0-.6.2-.9.3l-.4-.9c.3-.2.7-.3,1-.4s.8-.2,1.3-.2h0ZM593.6,366.1c-.7,0-1.2.2-1.5.4-.3.2-.4.5-.4.9s0,.6.3.7c.2.2.5.2.8.2.5,0,.9-.1,1.2-.4s.5-.7.5-1.3v-.6h-.9,0ZM600,368.3h.5c.2,0,.3,0,.5-.1v1c0,0-.3.1-.6.2h-.7c-.4,0-.7,0-1-.2-.3-.1-.5-.3-.7-.6-.2-.3-.3-.7-.3-1.2v-3.6h-.9v-.6l.9-.5.5-1.4h.8v1.5h1.8v1h-1.8v3.6c0,.3,0,.6.2.8.2.2.4.2.7.2h0ZM603.5,362.7v6.5h-1.3v-6.5h1.3ZM602.8,360.3c.2,0,.4,0,.5.2,0,.1.2.3.2.5s0,.4-.2.6-.3.2-.5.2-.4,0-.5-.2-.2-.3-.2-.6,0-.4.2-.5c0-.1.3-.2.5-.2ZM611.2,365.9c0,.5,0,1-.2,1.4,0,.4-.3.8-.6,1.1-.3.3-.6.5-1,.7-.4.1-.8.2-1.3.2s-.8,0-1.2-.2-.7-.4-1-.7c-.3-.3-.5-.6-.6-1.1,0-.4-.2-.9-.2-1.4s0-1.3.4-1.8c.2-.5.6-.9,1-1.1.5-.3,1-.4,1.6-.4s1.1.1,1.6.4c.4.3.8.6,1.1,1.1s.4,1.1.4,1.8ZM606.4,365.9c0,.5,0,.9.2,1.3,0,.3.3.6.6.8.3.2.6.3,1,.3s.7,0,1-.3c.3-.2.4-.5.6-.8,0-.4.2-.8.2-1.3s0-.9-.2-1.2c0-.3-.3-.6-.6-.8s-.6-.3-1-.3c-.6,0-1,.2-1.3.6s-.4,1-.4,1.7h0ZM616.1,362.6c.8,0,1.3.2,1.7.6s.6,1,.6,1.8v4.2h-1.3v-4c0-.5,0-.9-.3-1.1s-.5-.4-1-.4-1.1.2-1.4.6c-.2.4-.4.9-.4,1.7v3.3h-1.3v-6.5h1l.2.9h0c0-.2.3-.4.5-.5.2-.2.4-.3.7-.3s.5-.1.8-.1l.2-.2Z"/>
      <path class="st4" d="M392.5,297.7h0c0-4.3,3.5-7.8,7.8-7.8h156.1c2.1,0,4.1.8,5.5,2.3,1.5,1.5,2.3,3.5,2.3,5.5v31.3c0,4.3-3.5,7.8-7.8,7.8h-156.1c-4.3,0-7.8-3.5-7.8-7.8v-31.3h0Z"/>
      <path class="st2" d="M392.5,297.7h0c0-4.3,3.5-7.8,7.8-7.8h156.1c2.1,0,4.1.8,5.5,2.3,1.5,1.5,2.3,3.5,2.3,5.5v31.3c0,4.3-3.5,7.8-7.8,7.8h-156.1c-4.3,0-7.8-3.5-7.8-7.8v-31.3h0Z"/>
      <path class="st13" d="M419.3,309.3c1.1,0,1.9.2,2.4.7.5.4.8,1.1.8,1.9s0,.7-.2,1c-.1.3-.3.6-.6.9s-.6.5-1,.6-1,.2-1.6.2h-.9v3.2h-1.3v-8.6h2.4ZM419.3,310.4h-1v3.1h.8c.5,0,.9,0,1.2-.2.3-.1.6-.3.7-.5.2-.2.2-.6.2-1s-.2-.9-.5-1.1c-.3-.3-.8-.4-1.5-.4h0ZM427.3,311.2h.8v1.2h-.9c-.2,0-.5,0-.7.1-.2,0-.4.2-.6.4-.2.2-.3.4-.4.6s-.2.5-.2.9v3.4h-1.3v-6.5h1l.2,1.2h0c.1-.2.3-.4.5-.6s.4-.4.7-.5c.3-.1.5-.2.8-.2h.1ZM434.7,314.6c0,.5,0,1-.2,1.4-.1.4-.3.8-.6,1.1s-.6.5-1,.7c-.4.1-.8.2-1.3.2s-.8,0-1.2-.2c-.4-.2-.7-.4-1-.7-.3-.3-.5-.6-.6-1.1-.1-.4-.2-.9-.2-1.4s.1-1.3.4-1.8c.2-.5.6-.9,1-1.1.5-.3,1-.4,1.6-.4s1.1.1,1.6.4c.4.3.8.6,1.1,1.1.3.5.4,1.1.4,1.8h0ZM429.9,314.6c0,.5,0,.9.2,1.3.1.3.3.6.6.8.3.2.6.3,1,.3s.7,0,1-.3c.3-.2.4-.5.6-.8.1-.4.2-.8.2-1.3s0-.9-.2-1.2c-.1-.3-.3-.6-.6-.8s-.6-.3-1-.3c-.6,0-1,.2-1.3.6s-.4,1-.4,1.7h-.1ZM438.5,318c-.8,0-1.4-.3-1.9-.8-.5-.6-.7-1.4-.7-2.5s.2-1.9.7-2.5,1.1-.9,1.9-.9.6,0,.9.1c.2,0,.4.2.6.3.2.1.3.3.5.5h0v-3.5h1.3v9.1h-1l-.2-.9h0c-.1.2-.3.3-.5.5-.2.1-.4.3-.6.4-.2,0-.5.1-.9.1h0ZM438.8,316.9c.6,0,1.1-.2,1.3-.5.2-.4.4-.9.4-1.6v-.2c0-.8-.1-1.3-.4-1.7-.2-.4-.7-.6-1.3-.6s-.9.2-1.2.6c-.3.4-.4,1-.4,1.7s.1,1.3.4,1.7c.3.4.7.6,1.2.6ZM449.3,311.4v6.5h-1l-.2-.9h0c-.1.2-.3.4-.5.6-.2.1-.5.2-.7.3-.2,0-.5.1-.8.1-.5,0-.9,0-1.3-.2-.3-.2-.6-.4-.8-.8-.2-.4-.3-.8-.3-1.3v-4.2h1.3v4c0,.5.1.9.3,1.1.2.2.6.4,1,.4s.8,0,1-.3c.3-.2.4-.4.5-.8.1-.3.2-.8.2-1.2v-3.3h1.3ZM453.9,318c-.6,0-1.1-.1-1.6-.3-.4-.2-.8-.6-1.1-1.1-.2-.5-.4-1.1-.4-1.9s.1-1.4.4-1.9.6-.9,1.1-1.1,1-.4,1.6-.4.7,0,1,.1c.3,0,.6.2.8.3l-.4,1c-.2,0-.4-.2-.7-.2s-.5-.1-.7-.1c-.4,0-.7,0-1,.3-.3.2-.5.4-.6.8-.1.3-.2.8-.2,1.2s0,.9.2,1.2c.1.3.3.6.6.8.2.2.6.2.9.2s.7,0,1-.1c.3,0,.5-.2.8-.3v1.1c-.2.1-.5.2-.8.3-.3,0-.6.1-1,.1h.1ZM459.5,316.9h.5c.2,0,.3,0,.5-.1v1c-.1,0-.3.1-.6.2h-.7c-.4,0-.7,0-1-.2-.3-.1-.5-.3-.7-.6-.2-.3-.3-.7-.3-1.2v-3.6h-.9v-.6l.9-.5.5-1.4h.8v1.5h1.8v1h-1.8v3.6c0,.3,0,.6.2.8.2.2.4.2.7.2h.1ZM471.9,313.5c0,1-.2,1.8-.5,2.4-.4.6-.9,1.1-1.5,1.5-.7.3-1.5.5-2.4.5h-2.5v-8.6h2.7c.9,0,1.6.2,2.3.5.6.3,1.1.8,1.5,1.4.3.6.5,1.4.5,2.3h-.1ZM470.6,313.5c0-.7-.1-1.3-.4-1.8-.2-.5-.6-.8-1-1s-1-.3-1.6-.3h-1.3v6.4h1c1.1,0,1.9-.3,2.4-.8s.8-1.4.8-2.4h.1ZM476.2,311.2c.6,0,1.1.1,1.5.4.4.2.7.6.9,1,.2.4.3,1,.3,1.6v.7h-4.3c0,.7.2,1.2.5,1.5.3.4.8.5,1.4.5s.8,0,1.1-.1c.3,0,.7-.2,1-.4v1.1c-.3.1-.7.3-1,.3s-.7.1-1.2.1-1.2-.1-1.6-.4c-.5-.2-.9-.6-1.1-1.1-.3-.5-.4-1.1-.4-1.8s.1-1.3.4-1.8c.2-.5.6-.9,1-1.2.4-.3.9-.4,1.5-.4h0ZM476.2,312.2c-.5,0-.8.2-1.1.5-.3.3-.4.7-.5,1.2h3c0-.3,0-.6-.2-.9-.1-.2-.3-.4-.5-.6s-.5-.2-.8-.2h.1ZM481.8,317.8l-2.5-6.5h1.4l1.3,3.8c0,.2.1.3.2.5,0,.2.1.4.2.6,0,.2,0,.3.1.4h0c0-.1,0-.3.1-.4,0-.2.1-.4.2-.6,0-.2.1-.4.2-.5l1.3-3.8h1.4l-2.5,6.5h-1.4ZM489.2,311.2c.6,0,1.1.1,1.5.4.4.2.7.6.9,1,.2.4.3,1,.3,1.6v.7h-4.3c0,.7.2,1.2.5,1.5.3.4.8.5,1.4.5s.8,0,1.1-.1c.3,0,.7-.2,1-.4v1.1c-.3.1-.7.3-1,.3s-.7.1-1.2.1-1.2-.1-1.6-.4c-.5-.2-.9-.6-1.1-1.1-.3-.5-.4-1.1-.4-1.8s.1-1.3.4-1.8c.2-.5.6-.9,1-1.2.4-.3.9-.4,1.5-.4h0ZM489.2,312.2c-.5,0-.8.2-1.1.5-.3.3-.4.7-.5,1.2h3c0-.3,0-.6-.2-.9-.1-.2-.3-.4-.5-.6s-.5-.2-.8-.2h.1ZM494.8,317.8h-1.3v-9.1h1.3v9.1ZM502.5,314.6c0,.5,0,1-.2,1.4-.1.4-.3.8-.6,1.1s-.6.5-1,.7c-.4.1-.8.2-1.3.2s-.8,0-1.2-.2c-.4-.2-.7-.4-1-.7-.3-.3-.5-.6-.6-1.1-.1-.4-.2-.9-.2-1.4s.1-1.3.4-1.8c.2-.5.6-.9,1-1.1.5-.3,1-.4,1.6-.4s1.1.1,1.6.4c.4.3.8.6,1.1,1.1.3.5.4,1.1.4,1.8h0ZM497.7,314.6c0,.5,0,.9.2,1.3.1.3.3.6.6.8.3.2.6.3,1,.3s.7,0,1-.3c.3-.2.4-.5.6-.8.1-.4.2-.8.2-1.3s0-.9-.2-1.2c-.1-.3-.3-.6-.6-.8s-.6-.3-1-.3c-.6,0-1,.2-1.3.6s-.4,1-.4,1.7h-.1ZM507.3,311.2c.8,0,1.4.3,1.9.8s.7,1.4.7,2.5-.1,1.4-.3,1.9c-.2.5-.5.9-.9,1.1s-.8.4-1.4.4-.6,0-.9-.1c-.2,0-.4-.2-.6-.3-.2-.1-.3-.3-.5-.4h0v3.6h-1.3v-9.3h1l.2.9h0c.1-.2.3-.3.5-.5s.4-.3.6-.4c.2,0,.5-.1.9-.1h0ZM507,312.3c-.4,0-.7,0-1,.2-.2.1-.4.4-.5.7-.1.3-.2.7-.2,1.2v.2c0,.5,0,.9.2,1.3.1.3.3.6.5.8.2.2.6.3,1,.3s.7,0,.9-.3c.2-.2.4-.5.5-.8s.2-.8.2-1.2c0-.7-.1-1.2-.4-1.7-.3-.4-.7-.6-1.2-.6h0ZM518.7,311.2c.7,0,1.3.2,1.7.6s.5,1,.5,1.8v4.2h-1.3v-4c0-.5,0-.9-.3-1.1-.2-.2-.5-.4-.9-.4s-1,.2-1.2.5c-.2.4-.4.9-.4,1.5v3.5h-1.3v-4c0-.3,0-.6,0-.8,0-.2-.2-.4-.4-.5s-.4-.2-.7-.2-.7,0-1,.3-.4.4-.5.8c0,.3-.2.7-.2,1.2v3.3h-1.3v-6.5h1l.2.9h0c0-.2.3-.4.5-.5.2-.2.4-.3.7-.3s.5-.1.8-.1c.5,0,.9,0,1.2.3.3.2.6.4.8.8h0c.2-.4.5-.6.9-.8.4-.2.8-.3,1.2-.3v-.2ZM525.4,311.2c.6,0,1.1.1,1.5.4.4.2.7.6.9,1s.3,1,.3,1.6v.7h-4.3c0,.7.2,1.2.5,1.5.3.4.8.5,1.4.5s.8,0,1.1-.1c.3,0,.7-.2,1-.4v1.1c-.3.1-.7.3-1,.3s-.7.1-1.2.1-1.2-.1-1.6-.4c-.5-.2-.9-.6-1.1-1.1-.3-.5-.4-1.1-.4-1.8s0-1.3.4-1.8c.2-.5.6-.9,1-1.2.4-.3.9-.4,1.5-.4h0ZM525.4,312.2c-.5,0-.8.2-1.1.5s-.4.7-.5,1.2h3c0-.3,0-.6-.2-.9,0-.2-.3-.4-.5-.6s-.5-.2-.8-.2h0ZM533,311.2c.8,0,1.3.2,1.7.6s.6,1,.6,1.8v4.2h-1.3v-4c0-.5,0-.9-.3-1.1s-.5-.4-1-.4-1.1.2-1.4.6c-.2.4-.4.9-.4,1.7v3.3h-1.3v-6.5h1l.2.9h0c0-.2.3-.4.5-.5.2-.2.4-.3.7-.3s.5-.1.8-.1l.2-.2ZM539.6,316.9h.5c.2,0,.3,0,.5-.1v1c0,0-.3.1-.6.2h-.7c-.4,0-.7,0-1-.2-.3-.1-.5-.3-.7-.6-.2-.3-.3-.7-.3-1.2v-3.6h-.9v-.6l.9-.5.5-1.4h.8v1.5h1.8v1h-1.8v3.6c0,.3,0,.6.2.8.2.2.4.2.7.2h0Z"/>
      <path class="st3" d="M477.2,467.4h0c0-6,4.8-10.8,10.8-10.8h0c2.9,0,5.6,1.1,7.6,3.2,2,2,3.2,4.8,3.2,7.6h0c0,6-4.8,10.8-10.8,10.8h0c-6,0-10.8-4.8-10.8-10.8h0Z"/>
      <path class="st2" d="M477.2,467.4h0c0-6,4.8-10.8,10.8-10.8h0c2.9,0,5.6,1.1,7.6,3.2,2,2,3.2,4.8,3.2,7.6h0c0,6-4.8,10.8-10.8,10.8h0c-6,0-10.8-4.8-10.8-10.8h0Z"/>
      <path class="st11" d="M474.6,449.6h25.1v35.6h-25.1v-35.6Z"/>
      <path class="st14" d="M489.1,471.4h-2v-7.4l-.3.3-.4.4-1.1.9-1-1.2,3.1-2.4h1.6v9.5h0Z"/>
      <path class="st3" d="M477.3,416h0c0-6,4.8-10.8,10.8-10.8h0c2.9,0,5.6,1.1,7.6,3.2,2,2,3.2,4.8,3.2,7.6h0c0,6-4.8,10.8-10.8,10.8h0c-6,0-10.8-4.8-10.8-10.8h0Z"/>
      <path class="st2" d="M477.3,416h0c0-6,4.8-10.8,10.8-10.8h0c2.9,0,5.6,1.1,7.6,3.2,2,2,3.2,4.8,3.2,7.6h0c0,6-4.8,10.8-10.8,10.8h0c-6,0-10.8-4.8-10.8-10.8h0Z"/>
      <path class="st11" d="M474.7,398.3h25.1v35.6h-25.1v-35.6Z"/>
      <path class="st14" d="M490.9,420.1h-6.7v-1.4l2.4-2.4,1.2-1.2c.3-.3.5-.6.6-.9s.2-.6.2-.9-.1-.7-.3-.8c-.2-.2-.5-.3-.8-.3s-.7,0-1.1.2c-.3.2-.7.4-1.1.7l-1.1-1.3c.3-.2.6-.5.9-.7s.7-.4,1.1-.5.9-.2,1.5-.2,1.2.1,1.6.3c.4.2.8.5,1,.9.3.4.4.8.4,1.3s-.1,1-.3,1.4c-.2.4-.5.9-.9,1.3l-1.4,1.4-1.2,1.2h4.2v1.7l-.2.2Z"/>
      <path class="st3" d="M474.7,364.7h0c0-6,4.8-10.8,10.8-10.8h0c2.9,0,5.6,1.1,7.6,3.2s3.2,4.8,3.2,7.6h0c0,6-4.8,10.8-10.8,10.8h0c-6,0-10.8-4.8-10.8-10.8h0Z"/>
      <path class="st2" d="M474.7,364.7h0c0-6,4.8-10.8,10.8-10.8h0c2.9,0,5.6,1.1,7.6,3.2s3.2,4.8,3.2,7.6h0c0,6-4.8,10.8-10.8,10.8h0c-6,0-10.8-4.8-10.8-10.8h0Z"/>
      <path class="st11" d="M472,346.9h25.1v35.6h-25.1v-35.6Z"/>
      <path class="st14" d="M487.9,361.3c0,.4,0,.8-.3,1.1-.2.3-.4.6-.7.8-.3.2-.6.3-1,.4h0c.8.1,1.3.4,1.7.7.4.4.6.9.6,1.5s-.1,1-.4,1.5c-.3.4-.7.8-1.3,1-.6.2-1.3.4-2.2.4s-1,0-1.5-.1c-.4,0-.9-.2-1.3-.4v-1.7c.4.2.8.4,1.3.5.4.1.9.2,1.2.2.7,0,1.2-.1,1.5-.4.3-.2.4-.6.4-1s0-.5-.2-.7c-.1-.2-.4-.3-.7-.4-.3,0-.8-.1-1.4-.1h-.7v-1.5h.7c.6,0,1,0,1.3-.2.3-.1.5-.3.6-.5s.2-.4.2-.7-.1-.6-.3-.8-.6-.3-1-.3-.6,0-.8.1c-.2,0-.5.2-.7.3-.2.1-.4.2-.5.3l-.9-1.4c.4-.3.8-.5,1.3-.7s1.1-.3,1.8-.3,1.8.2,2.3.6c.6.4.9,1,.9,1.7h.1Z"/>
      <path class="st3" d="M380.9,313.3h0c0-6,4.8-10.8,10.8-10.8h0c2.9,0,5.6,1.1,7.6,3.2,2,2,3.2,4.8,3.2,7.6h0c0,6-4.8,10.8-10.8,10.8h0c-6,0-10.8-4.8-10.8-10.8h0Z"/>
      <path class="st2" d="M380.9,313.3h0c0-6,4.8-10.8,10.8-10.8h0c2.9,0,5.6,1.1,7.6,3.2,2,2,3.2,4.8,3.2,7.6h0c0,6-4.8,10.8-10.8,10.8h0c-6,0-10.8-4.8-10.8-10.8h0Z"/>
      <path class="st11" d="M378.2,295.5h25.1v35.6h-25.1v-35.6Z"/>
      <path class="st14" d="M394.6,315.4h-1.1v2h-2v-2h-4.1v-1.4l4.2-6.1h1.9v6h1.1v1.6h0ZM391.5,312.2v-2h0c0,.2-.2.3-.2.5s-.2.3-.3.5l-1.8,2.6h2.3v-1.6Z"/>
      <path class="st9" d="M392.5,246.3h0c0-4.3,3.5-7.8,7.8-7.8h156.1c2.1,0,4.1.8,5.5,2.3,1.5,1.5,2.3,3.5,2.3,5.5v31.3c0,4.3-3.5,7.8-7.8,7.8h-156.1c-4.3,0-7.8-3.5-7.8-7.8v-31.3h0Z"/>
      <path class="st2" d="M392.5,246.3h0c0-4.3,3.5-7.8,7.8-7.8h156.1c2.1,0,4.1.8,5.5,2.3,1.5,1.5,2.3,3.5,2.3,5.5v31.3c0,4.3-3.5,7.8-7.8,7.8h-156.1c-4.3,0-7.8-3.5-7.8-7.8v-31.3h0Z"/>
      <path class="st13" d="M418.7,259.5l-.9-2.5h-3.3l-.9,2.5h-1.4l3.2-8.6h1.3l3.2,8.6h-1.4.2ZM416.6,253.5s0-.2-.1-.4c0-.2-.1-.4-.2-.6,0-.2,0-.4-.1-.5,0,.2,0,.3-.1.5,0,.2-.1.4-.2.5,0,.2,0,.3-.1.4l-.9,2.4h2.5l-.9-2.4h.1ZM423.3,259.6c-.8,0-1.4-.3-1.9-.8s-.7-1.4-.7-2.5.2-1.9.7-2.5,1.1-.9,1.9-.9.6,0,.9.1.4.2.6.3.3.3.5.5h0v-3.5h1.3v9.1h-1l-.2-.9h0c-.1.2-.3.3-.5.5-.2.1-.4.3-.6.4-.2,0-.5.1-.9.1h0ZM423.6,258.5c.6,0,1.1-.2,1.3-.5.2-.4.4-.9.4-1.6v-.2c0-.8-.1-1.3-.4-1.7-.2-.4-.7-.6-1.3-.6s-.9.2-1.2.6c-.3.4-.4,1-.4,1.7s.1,1.3.4,1.7c.3.4.7.6,1.2.6ZM430,259.5l-2.5-6.5h1.4l1.3,3.8c0,.2.1.3.2.5s.1.4.2.6c0,.2,0,.3.1.4h0c0-.1,0-.3.1-.4,0-.2.1-.4.2-.6,0-.2.1-.4.2-.5l1.3-3.8h1.4l-2.5,6.5h-1.4ZM437.4,252.9c.8,0,1.4.2,1.8.5.4.4.6.9.6,1.7v4.4h-.9l-.2-.9h0l-.6.6c-.2.1-.4.3-.7.3s-.6.1-.9.1-.7,0-1-.2c-.3-.1-.5-.4-.7-.6-.2-.3-.3-.7-.3-1.1,0-.6.2-1.1.8-1.5.5-.4,1.3-.5,2.3-.6h1.1v-.4c0-.5-.1-.8-.3-1-.2-.2-.5-.3-.9-.3s-.6,0-1,.2c-.3,0-.6.2-.9.3l-.4-.9c.3-.2.7-.3,1-.4.4-.1.8-.2,1.3-.2h0ZM437.6,256.4c-.7,0-1.2.2-1.5.4-.3.2-.4.5-.4.9s0,.6.3.7c.2.2.5.2.8.2.5,0,.9-.1,1.2-.4.3-.3.5-.7.5-1.3v-.6h-.9ZM445,252.9c.8,0,1.3.2,1.7.6.4.4.6,1,.6,1.8v4.2h-1.3v-4c0-.5-.1-.9-.3-1.1-.2-.2-.5-.4-1-.4s-1.1.2-1.4.6c-.2.4-.4.9-.4,1.7v3.3h-1.3v-6.5h1l.2.9h0c.1-.2.3-.4.5-.5.2-.2.4-.3.7-.3s.5-.1.8-.1l.2-.2ZM451.9,259.6c-.6,0-1.1-.1-1.6-.3-.4-.2-.8-.6-1.1-1.1-.2-.5-.4-1.1-.4-1.9s.1-1.4.4-1.9.6-.9,1.1-1.1c.5-.2,1-.4,1.6-.4s.7,0,1,.1.6.2.8.3l-.4,1c-.2,0-.4-.2-.7-.2s-.5-.1-.7-.1c-.4,0-.7,0-1,.3-.3.2-.5.4-.6.8-.1.3-.2.8-.2,1.2s0,.9.2,1.2c.1.3.3.6.6.8.2.2.6.2.9.2s.7,0,1-.1c.3,0,.5-.2.8-.3v1.1c-.2.1-.5.2-.8.3-.3,0-.6.1-1,.1h.1ZM457.7,252.9c.6,0,1.1.1,1.5.4.4.2.7.6.9,1,.2.4.3,1,.3,1.6v.7h-4.3c0,.7.2,1.2.5,1.5.3.4.8.5,1.4.5s.8,0,1.1-.1c.3,0,.7-.2,1-.4v1.1c-.3.1-.7.3-1,.3s-.7.1-1.2.1-1.2-.1-1.6-.4c-.5-.2-.9-.6-1.1-1.1-.3-.5-.4-1.1-.4-1.8s.1-1.3.4-1.8c.2-.5.6-.9,1-1.2s.9-.4,1.5-.4h0ZM457.7,253.9c-.5,0-.8.2-1.1.5-.3.3-.4.7-.5,1.2h3c0-.3,0-.6-.2-.9-.1-.2-.3-.4-.5-.6-.2-.2-.5-.2-.8-.2h.1ZM464.2,259.6c-.8,0-1.4-.3-1.9-.8s-.7-1.4-.7-2.5.2-1.9.7-2.5,1.1-.9,1.9-.9.6,0,.9.1c.2,0,.4.2.6.3s.3.3.5.5h0v-3.5h1.3v9.1h-1l-.2-.9h0c-.1.2-.3.3-.5.5-.2.1-.4.3-.6.4-.2,0-.5.1-.9.1h0ZM464.5,258.5c.6,0,1.1-.2,1.3-.5.2-.4.4-.9.4-1.6v-.2c0-.8-.1-1.3-.4-1.7-.2-.4-.7-.6-1.3-.6s-.9.2-1.2.6c-.3.4-.4,1-.4,1.7s.1,1.3.4,1.7c.3.4.7.6,1.2.6ZM474.8,259.6c-.8,0-1.4-.3-1.9-.8-.5-.6-.7-1.4-.7-2.5s.2-1.9.7-2.5,1.1-.9,1.9-.9.6,0,.9.1c.2,0,.4.2.6.3s.3.3.5.5h0v-3.5h1.3v9.1h-1l-.2-.9h0c-.1.2-.3.3-.5.5-.2.1-.4.3-.6.4-.2,0-.5.1-.9.1h0ZM475.1,258.5c.6,0,1.1-.2,1.3-.5.2-.4.4-.9.4-1.6v-.2c0-.8-.1-1.3-.4-1.7-.2-.4-.7-.6-1.3-.6s-.9.2-1.2.6c-.3.4-.4,1-.4,1.7s.1,1.3.4,1.7c.3.4.7.6,1.2.6ZM482.6,252.9c.8,0,1.4.2,1.8.5.4.4.6.9.6,1.7v4.4h-.9l-.2-.9h0l-.6.6c-.2.1-.4.3-.7.3s-.6.1-.9.1-.7,0-1-.2c-.3-.1-.5-.4-.7-.6-.2-.3-.3-.7-.3-1.1s.2-1.1.8-1.5c.5-.4,1.3-.5,2.3-.6h1.1v-.4c0-.5-.1-.8-.3-1-.2-.2-.5-.3-.9-.3s-.6,0-1,.2c-.3,0-.6.2-.9.3l-.4-.9c.3-.2.7-.3,1-.4.4-.1.8-.2,1.3-.2h0ZM482.8,256.4c-.7,0-1.2.2-1.5.4-.3.2-.4.5-.4.9s0,.6.3.7c.2.2.5.2.8.2.5,0,.9-.1,1.2-.4.3-.3.5-.7.5-1.3v-.6h-.9ZM489.2,258.6h.5c.2,0,.3,0,.5-.1v1c-.1,0-.3.1-.6.2h-.7c-.4,0-.7,0-1-.2-.3-.1-.5-.3-.7-.6-.2-.3-.3-.7-.3-1.2v-3.6h-.9v-.6l.9-.5.5-1.4h.8v1.5h1.8v1h-1.8v3.6c0,.3,0,.6.2.8.2.2.4.2.7.2h.1ZM494,252.9c.8,0,1.4.2,1.8.5.4.4.6.9.6,1.7v4.4h-.9l-.2-.9h0l-.6.6c-.2.1-.4.3-.7.3s-.6.1-.9.1-.7,0-1-.2c-.3-.1-.5-.4-.7-.6-.2-.3-.3-.7-.3-1.1s.2-1.1.8-1.5c.5-.4,1.3-.5,2.3-.6h1.1v-.4c0-.5-.1-.8-.3-1-.2-.2-.5-.3-.9-.3s-.6,0-1,.2c-.3,0-.6.2-.9.3l-.4-.9c.3-.2.7-.3,1-.4.4-.1.8-.2,1.3-.2h0ZM494.3,256.4c-.7,0-1.2.2-1.5.4-.3.2-.4.5-.4.9s0,.6.3.7c.2.2.5.2.8.2.5,0,.9-.1,1.2-.4.3-.3.5-.7.5-1.3v-.6h-.9ZM497.8,256.8v-1.1h3v1.1h-3ZM504.4,259.6c-.8,0-1.4-.3-1.9-.8s-.7-1.4-.7-2.5.2-1.9.7-2.5,1.1-.9,1.9-.9.6,0,.9.1c.2,0,.4.2.6.3s.3.3.5.5h0v-3.5h1.3v9.1h-1l-.2-.9h0c-.1.2-.3.3-.5.5-.2.1-.4.3-.6.4-.2,0-.5.1-.9.1h0ZM504.7,258.5c.6,0,1.1-.2,1.3-.5.2-.4.4-.9.4-1.6v-.2c0-.8-.1-1.3-.4-1.7-.2-.4-.7-.6-1.3-.6s-.9.2-1.2.6c-.3.4-.4,1-.4,1.7s.1,1.3.4,1.7c.3.4.7.6,1.2.6ZM512.2,252.9c.6,0,1.1.1,1.5.4.4.2.7.6.9,1s.3,1,.3,1.6v.7h-4.3c0,.7.2,1.2.5,1.5.3.4.8.5,1.4.5s.8,0,1.1-.1c.3,0,.7-.2,1-.4v1.1c-.3.1-.7.3-1,.3s-.7.1-1.2.1-1.2-.1-1.6-.4c-.5-.2-.9-.6-1.1-1.1-.3-.5-.4-1.1-.4-1.8s.1-1.3.4-1.8c.2-.5.6-.9,1-1.2s.9-.4,1.5-.4h0ZM512.2,253.9c-.5,0-.8.2-1.1.5-.3.3-.4.7-.5,1.2h3c0-.3,0-.6-.2-.9,0-.2-.3-.4-.5-.6-.2-.2-.5-.2-.8-.2h.1ZM519.7,252.9h.8v1.2h-.9c-.2,0-.5,0-.7.1-.2,0-.4.2-.6.4-.2.2-.3.4-.4.6,0,.2-.2.5-.2.9v3.4h-1.3v-6.5h1l.2,1.2h0c0-.2.3-.4.5-.6.2-.2.4-.4.7-.5s.5-.2.8-.2h0ZM522.8,253v6.5h-1.3v-6.5h1.3ZM522.2,250.5c.2,0,.4,0,.5.2,0,.1.2.3.2.5s0,.4-.2.6-.3.2-.5.2-.4,0-.5-.2-.2-.3-.2-.6,0-.4.2-.5c0-.1.3-.2.5-.2ZM526.3,259.5l-2.5-6.5h1.4l1.3,3.8c0,.2,0,.3.2.5s0,.4.2.6c0,.2,0,.3,0,.4h0c0-.1,0-.3,0-.4,0-.2,0-.4.2-.6,0-.2,0-.4.2-.5l1.3-3.8h1.4l-2.5,6.5h-1.4ZM533.7,252.9c.6,0,1.1.1,1.5.4.4.2.7.6.9,1s.3,1,.3,1.6v.7h-4.3c0,.7.2,1.2.5,1.5s.8.5,1.4.5.8,0,1.1-.1c.3,0,.7-.2,1-.4v1.1c-.3.1-.7.3-1,.3s-.7.1-1.2.1-1.2-.1-1.6-.4c-.5-.2-.9-.6-1.1-1.1-.3-.5-.4-1.1-.4-1.8s0-1.3.4-1.8c.2-.5.6-.9,1-1.2s.9-.4,1.5-.4h0ZM533.7,253.9c-.5,0-.8.2-1.1.5s-.4.7-.5,1.2h3c0-.3,0-.6-.2-.9,0-.2-.3-.4-.5-.6-.2-.2-.5-.2-.8-.2h0ZM540.3,259.6c-.8,0-1.4-.3-1.9-.8s-.7-1.4-.7-2.5.2-1.9.7-2.5,1.1-.9,1.9-.9.6,0,.9.1c.2,0,.4.2.6.3.2.1.3.3.5.5h0v-3.5h1.3v9.1h-1l-.2-.9h0c0,.2-.3.3-.5.5-.2.1-.4.3-.6.4-.2,0-.5.1-.9.1h0ZM540.6,258.5c.6,0,1.1-.2,1.3-.5.2-.4.4-.9.4-1.6v-.2c0-.8,0-1.3-.4-1.7-.2-.4-.7-.6-1.3-.6s-.9.2-1.2.6c-.3.4-.4,1-.4,1.7s0,1.3.4,1.7c.3.4.7.6,1.2.6Z"/>
      <path class="st13" d="M467.5,272.6h.5c.2,0,.3,0,.5-.1v1c-.1,0-.3.1-.6.2h-.7c-.4,0-.7,0-1-.2-.3-.1-.5-.3-.7-.6-.2-.3-.3-.7-.3-1.2v-3.6h-.9v-.6l.9-.5.5-1.4h.8v1.5h1.8v1h-1.8v3.6c0,.3,0,.6.2.8.2.2.4.2.7.2h.1ZM475.5,270.2c0,.5,0,1-.2,1.4-.1.4-.3.8-.6,1.1s-.6.5-1,.7c-.4.1-.8.2-1.3.2s-.8,0-1.2-.2c-.4-.2-.7-.4-1-.7-.3-.3-.5-.6-.6-1.1-.1-.4-.2-.9-.2-1.4s.1-1.3.4-1.8c.2-.5.6-.9,1-1.1.5-.3,1-.4,1.6-.4s1.1.1,1.6.4c.4.3.8.6,1.1,1.1.3.5.4,1.1.4,1.8h0ZM470.7,270.2c0,.5,0,.9.2,1.3.1.3.3.6.6.8.3.2.6.3,1,.3s.7,0,1-.3c.3-.2.4-.5.6-.8.1-.4.2-.8.2-1.3s0-.9-.2-1.2c-.1-.3-.3-.6-.6-.8-.3-.2-.6-.3-1-.3-.6,0-1,.2-1.3.6s-.4,1-.4,1.7h-.1ZM482.8,270.2c0,.5,0,1-.2,1.4-.1.4-.3.8-.6,1.1s-.6.5-1,.7c-.4.1-.8.2-1.3.2s-.8,0-1.2-.2c-.4-.2-.7-.4-1-.7-.3-.3-.5-.6-.6-1.1-.1-.4-.2-.9-.2-1.4s.1-1.3.4-1.8c.2-.5.6-.9,1-1.1.5-.3,1-.4,1.6-.4s1.1.1,1.6.4c.4.3.8.6,1.1,1.1.3.5.4,1.1.4,1.8h0ZM478.1,270.2c0,.5,0,.9.2,1.3.1.3.3.6.6.8.3.2.6.3,1,.3s.7,0,1-.3c.3-.2.4-.5.6-.8.1-.4.2-.8.2-1.3s0-.9-.2-1.2c-.1-.3-.3-.6-.6-.8s-.6-.3-1-.3c-.6,0-1,.2-1.3.6s-.4,1-.4,1.7h-.1ZM485.7,273.5h-1.3v-9.1h1.3v9.1ZM492,271.6c0,.4-.1.8-.3,1.1-.2.3-.5.5-.9.7s-.9.2-1.4.2-.8,0-1.2-.1c-.3,0-.6-.2-.9-.3v-1.1c.3.1.6.3,1,.4s.7.2,1.1.2.8,0,1.1-.2c.2-.2.3-.4.3-.6s0-.3-.1-.4c0-.1-.2-.2-.5-.4-.2-.1-.5-.3-1-.4-.4-.2-.8-.3-1-.5s-.5-.4-.7-.6-.2-.5-.2-.9c0-.6.2-1,.7-1.3s1.1-.5,1.8-.5.8,0,1.1.1c.4,0,.7.2,1,.3l-.4.9c-.3-.1-.6-.2-.9-.3-.3,0-.6-.1-.9-.1s-.7,0-.9.2c-.2.1-.3.3-.3.5s0,.3.1.4c0,.1.3.2.5.3s.6.2,1,.4c.4.1.8.3,1,.5s.5.4.6.6.2.5.2.9h0Z"/>
      <path class="st8" d="M392.5,195h0c0-4.3,3.5-7.8,7.8-7.8h156.1c2.1,0,4.1.8,5.5,2.3,1.5,1.5,2.3,3.5,2.3,5.5v31.3c0,4.3-3.5,7.8-7.8,7.8h-156.1c-4.3,0-7.8-3.5-7.8-7.8v-31.3h0Z"/>
      <path class="st2" d="M392.5,195h0c0-4.3,3.5-7.8,7.8-7.8h156.1c2.1,0,4.1.8,5.5,2.3,1.5,1.5,2.3,3.5,2.3,5.5v31.3c0,4.3-3.5,7.8-7.8,7.8h-156.1c-4.3,0-7.8-3.5-7.8-7.8v-31.3h0Z"/>
      <path class="st13" d="M422.3,215.1l-2.6-7.3h0v7.2h-1.2v-8.6h1.8l2.5,6.9h0l2.5-6.9h1.8v8.6h-1.3v-7.2h0l-2.7,7.3h-1.1.3ZM435.1,211.9c0,.5,0,1-.2,1.4-.1.4-.3.8-.6,1.1-.3.3-.6.5-1,.7-.4.1-.8.2-1.3.2s-.8,0-1.2-.2c-.4-.2-.7-.4-1-.7s-.5-.6-.6-1.1c-.1-.4-.2-.9-.2-1.4s.1-1.3.4-1.8.6-.9,1-1.1c.5-.3,1-.4,1.6-.4s1.1.1,1.6.4c.4.3.8.6,1.1,1.1.3.5.4,1.1.4,1.8h0ZM430.4,211.9c0,.5,0,.9.2,1.3.1.3.3.6.6.8.3.2.6.3,1,.3s.7,0,1-.3c.3-.2.4-.5.6-.8.1-.4.2-.8.2-1.3s0-.9-.2-1.2c-.1-.3-.3-.6-.6-.8-.2-.2-.6-.3-1-.3-.6,0-1,.2-1.3.6-.3.4-.4,1-.4,1.7h-.1ZM438,208.2v1.4h0c.2-.3.4-.5.8-.7.3-.2.7-.3,1.2-.3.8,0,1.4.3,1.9.8.5.6.7,1.4.7,2.5s-.1,1.4-.3,1.9c-.2.5-.5.9-.9,1.1-.4.2-.8.4-1.4.4s-.9,0-1.2-.3c-.3-.2-.5-.4-.7-.6h0l-.2.8h-.9v-9.1h1.3v2.2h-.3ZM439.7,209.6c-.4,0-.7,0-1,.2-.2.2-.4.4-.5.7s-.2.7-.2,1.2h0c0,.8.1,1.4.4,1.8.2.4.7.6,1.3.6s.9-.2,1.2-.6c.3-.4.4-1,.4-1.7s-.1-1.3-.4-1.7-.7-.6-1.2-.6h0ZM445.4,208.6v6.5h-1.3v-6.5h1.3ZM444.8,206.2c.2,0,.4,0,.5.2.1.1.2.3.2.5,0,.3,0,.4-.2.6s-.3.2-.5.2-.4,0-.5-.2c-.1-.1-.2-.3-.2-.6s0-.4.2-.5c.1-.1.3-.2.5-.2ZM448.7,215.1h-1.3v-9.1h1.3v9.1ZM451.9,208.6v6.5h-1.3v-6.5h1.3ZM451.3,206.2c.2,0,.4,0,.5.2.1.1.2.3.2.5s0,.4-.2.6-.3.2-.5.2-.4,0-.5-.2c-.1-.1-.2-.3-.2-.6s0-.4.2-.5c.1-.1.3-.2.5-.2ZM458.2,215.1h-4.8v-.8l3.3-4.7h-3.1v-1h4.5v.9l-3.3,4.6h3.4v1ZM462.2,208.5c.8,0,1.4.2,1.8.5.4.4.6.9.6,1.7v4.4h-.9l-.2-.9h0c-.2.2-.4.4-.6.6-.2.1-.4.3-.7.3s-.6.1-.9.1-.7,0-1-.2c-.3-.1-.5-.4-.7-.6-.2-.3-.3-.7-.3-1.1s.2-1.1.8-1.5c.5-.4,1.3-.5,2.3-.6h1.1v-.4c0-.5-.1-.8-.3-1-.2-.2-.5-.3-.9-.3s-.6,0-1,.2c-.3,0-.6.2-.9.3l-.4-.9c.3-.2.7-.3,1-.4.4-.1.8-.2,1.3-.2h0ZM462.4,212c-.7,0-1.2.2-1.5.4s-.4.5-.4.9,0,.6.3.7c.2.2.5.2.8.2.5,0,.9-.1,1.2-.4.3-.3.5-.7.5-1.3v-.6h-.9ZM467.7,208.2v1.4h0c.2-.3.4-.5.8-.7.3-.2.7-.3,1.2-.3.8,0,1.4.3,1.9.8.5.6.7,1.4.7,2.5s-.1,1.4-.3,1.9c-.2.5-.5.9-.9,1.1-.4.2-.8.4-1.4.4s-.9,0-1.2-.3c-.3-.2-.5-.4-.7-.6h0l-.2.8h-.9v-9.1h1.3v2.2h-.3ZM469.4,209.6c-.4,0-.7,0-1,.2s-.4.4-.5.7-.2.7-.2,1.2h0c0,.8.1,1.4.4,1.8.2.4.7.6,1.3.6s.9-.2,1.2-.6c.3-.4.4-1,.4-1.7s-.1-1.3-.4-1.7-.7-.6-1.2-.6h0ZM475.2,215.1h-1.3v-9.1h1.3v9.1ZM479.7,208.5c.6,0,1.1.1,1.5.4.4.2.7.6.9,1,.2.4.3,1,.3,1.6v.7h-4.3c0,.7.2,1.2.5,1.5.3.4.8.5,1.4.5s.8,0,1.1-.1c.3,0,.7-.2,1-.4v1.1c-.3.1-.7.3-1,.3s-.7.1-1.2.1-1.2-.1-1.6-.4c-.5-.2-.9-.6-1.1-1.1-.3-.5-.4-1.1-.4-1.8s.1-1.3.4-1.8c.2-.5.6-.9,1-1.2s.9-.4,1.5-.4h0ZM479.7,209.5c-.5,0-.8.2-1.1.5-.3.3-.4.7-.5,1.2h3c0-.3,0-.6-.2-.9-.1-.2-.3-.4-.5-.6-.2-.2-.5-.2-.8-.2h.1ZM489.7,208.5c.6,0,1.1.1,1.5.4.4.2.7.6.9,1,.2.4.3,1,.3,1.6v.7h-4.3c0,.7.2,1.2.5,1.5.3.4.8.5,1.4.5s.8,0,1.1-.1c.3,0,.7-.2,1-.4v1.1c-.3.1-.7.3-1,.3s-.7.1-1.2.1-1.2-.1-1.6-.4c-.5-.2-.9-.6-1.1-1.1-.3-.5-.4-1.1-.4-1.8s.1-1.3.4-1.8c.2-.5.6-.9,1-1.2s.9-.4,1.5-.4h0ZM489.7,209.5c-.5,0-.8.2-1.1.5-.3.3-.4.7-.5,1.2h3c0-.3,0-.6-.2-.9-.1-.2-.3-.4-.5-.6-.2-.2-.5-.2-.8-.2h.1ZM495.3,211.8l-2.2-3.2h1.5l1.5,2.3,1.5-2.3h1.4l-2.2,3.2,2.3,3.3h-1.4l-1.6-2.5-1.7,2.5h-1.4l2.3-3.3h0ZM503.6,208.5c.8,0,1.4.3,1.9.8.5.6.7,1.4.7,2.5s-.1,1.4-.3,1.9c-.2.5-.5.9-.9,1.1-.4.2-.8.4-1.4.4s-.6,0-.9-.1c-.2,0-.4-.2-.6-.3s-.3-.3-.5-.4h0v3.6h-1.3v-9.3h1l.2.9h0c.1-.2.3-.3.5-.5s.4-.3.6-.4c.2,0,.5-.1.9-.1h0ZM503.3,209.6c-.4,0-.7,0-1,.2-.2.1-.4.4-.5.7s-.2.7-.2,1.2v.2c0,.5,0,.9.2,1.3.1.3.3.6.5.8s.6.3,1,.3.7,0,.9-.3c.2-.2.4-.5.5-.8s.2-.8.2-1.2c0-.7-.1-1.2-.4-1.7-.3-.4-.7-.6-1.2-.6h0ZM510.3,208.5c.6,0,1.1.1,1.5.4.4.2.7.6.9,1s.3,1,.3,1.6v.7h-4.3c0,.7.2,1.2.5,1.5.3.4.8.5,1.4.5s.8,0,1.1-.1c.3,0,.7-.2,1-.4v1.1c-.3.1-.7.3-1,.3s-.7.1-1.2.1-1.2-.1-1.6-.4c-.5-.2-.9-.6-1.1-1.1-.3-.5-.4-1.1-.4-1.8s.1-1.3.4-1.8c.2-.5.6-.9,1-1.2s.9-.4,1.5-.4h0ZM510.4,209.5c-.5,0-.8.2-1.1.5-.3.3-.4.7-.5,1.2h3c0-.3,0-.6-.2-.9-.1-.2-.3-.4-.5-.6-.2-.2-.5-.2-.8-.2h.1ZM517.8,208.5h.8v1.2h-.9c-.2,0-.5,0-.7.1-.2,0-.4.2-.6.4-.2.2-.3.4-.4.6,0,.2-.2.5-.2.9v3.4h-1.3v-6.5h1l.2,1.2h0c0-.2.3-.4.5-.6.2-.2.4-.4.7-.5.2-.1.5-.2.8-.2h0ZM522.1,214.2h.5c.2,0,.3,0,.5-.1v1c0,0-.3.1-.6.2h-.7c-.4,0-.7,0-1-.2-.3-.1-.5-.3-.7-.6s-.3-.7-.3-1.2v-3.6h-.9v-.6l.9-.5.5-1.4h.8v1.5h1.8v1h-1.8v3.6c0,.3,0,.6.2.8s.4.2.7.2h0ZM525.6,208.6v6.5h-1.3v-6.5h1.3ZM525,206.2c.2,0,.4,0,.5.2,0,.1.2.3.2.5s0,.4-.2.6c0,.1-.3.2-.5.2s-.4,0-.5-.2c0-.1-.2-.3-.2-.6s0-.4.2-.5c0-.1.3-.2.5-.2ZM531.9,213.3c0,.4,0,.8-.3,1.1s-.5.5-.9.7-.9.2-1.4.2-.8,0-1.2-.1c-.3,0-.6-.2-.9-.3v-1.1c.3.1.6.3,1,.4.4.1.7.2,1.1.2s.8,0,1.1-.2c.2-.2.3-.4.3-.6s0-.3,0-.4c0-.1-.2-.2-.5-.4-.2-.1-.5-.3-1-.4-.4-.2-.8-.3-1-.5-.3-.2-.5-.4-.7-.6-.2-.2-.2-.5-.2-.9,0-.6.2-1,.7-1.3s1.1-.5,1.8-.5.8,0,1.1.1c.4,0,.7.2,1,.3l-.4.9c-.3-.1-.6-.2-.9-.3-.3,0-.6-.1-.9-.1s-.7,0-.9.2c-.2.1-.3.3-.3.5s0,.3,0,.4c0,.1.3.2.5.3s.6.2,1,.4c.4.1.8.3,1,.5.3.2.5.4.6.6,0,.2.2.5.2.9h.1ZM536,208.5c.6,0,1.1.1,1.5.4.4.2.7.6.9,1s.3,1,.3,1.6v.7h-4.3c0,.7.2,1.2.5,1.5.3.4.8.5,1.4.5s.8,0,1.1-.1c.3,0,.7-.2,1-.4v1.1c-.3.1-.7.3-1,.3s-.7.1-1.2.1-1.2-.1-1.6-.4c-.5-.2-.9-.6-1.1-1.1-.3-.5-.4-1.1-.4-1.8s0-1.3.4-1.8c.2-.5.6-.9,1-1.2s.9-.4,1.5-.4h0ZM536,209.5c-.5,0-.8.2-1.1.5s-.4.7-.5,1.2h3c0-.3,0-.6-.2-.9,0-.2-.3-.4-.5-.6-.2-.2-.5-.2-.8-.2h0Z"/>
      <path class="st3" d="M380.9,261.9h0c0-6,4.8-10.8,10.8-10.8h0c2.9,0,5.6,1.1,7.6,3.2,2,2,3.2,4.8,3.2,7.6h0c0,6-4.8,10.8-10.8,10.8h0c-6,0-10.8-4.8-10.8-10.8h0Z"/>
      <path class="st2" d="M380.9,261.9h0c0-6,4.8-10.8,10.8-10.8h0c2.9,0,5.6,1.1,7.6,3.2,2,2,3.2,4.8,3.2,7.6h0c0,6-4.8,10.8-10.8,10.8h0c-6,0-10.8-4.8-10.8-10.8h0Z"/>
      <path class="st11" d="M378.2,244.2h25.1v35.6h-25.1v-35.6h0Z"/>
      <path class="st14" d="M391.2,259.9c.6,0,1.1.1,1.5.3.5.2.8.5,1.1,1,.3.4.4,1,.4,1.6s-.1,1.3-.4,1.8-.7.9-1.3,1.1-1.3.4-2.1.4-1,0-1.4-.1c-.4,0-.8-.2-1.1-.4v-1.7c.3.2.7.3,1.2.5.5.1.9.2,1.3.2s.7,0,1-.2c.3-.1.5-.3.6-.5s.2-.5.2-.9-.2-.8-.5-1.1c-.3-.2-.8-.4-1.4-.4h-.8c-.3,0-.5,0-.7.1l-.8-.4.4-4.8h5.2v1.7h-3.4l-.2,1.9h1.2,0Z"/>
      <path class="st3" d="M380.9,210.6h0c0-6,4.8-10.8,10.8-10.8h0c2.9,0,5.6,1.1,7.6,3.2,2,2,3.2,4.8,3.2,7.6h0c0,6-4.8,10.8-10.8,10.8h0c-6,0-10.8-4.8-10.8-10.8h0Z"/>
      <path class="st2" d="M380.9,210.6h0c0-6,4.8-10.8,10.8-10.8h0c2.9,0,5.6,1.1,7.6,3.2,2,2,3.2,4.8,3.2,7.6h0c0,6-4.8,10.8-10.8,10.8h0c-6,0-10.8-4.8-10.8-10.8h0Z"/>
      <path class="st11" d="M378.2,192.8h25.1v35.6h-25.1v-35.6h0Z"/>
      <path class="st14" d="M387.7,210.6c0-.6,0-1.1.1-1.6,0-.5.2-1,.4-1.5.2-.5.5-.9.8-1.3.4-.4.8-.7,1.4-.9s1.2-.3,2-.3.4,0,.7,0h.6v1.6h-1.1c-.6,0-1.1,0-1.5.2-.4.1-.7.3-.9.6-.2.3-.4.6-.5.9-.1.4-.2.8-.2,1.2h0c.1-.2.3-.4.4-.6.2-.2.4-.3.7-.4.3-.1.6-.2.9-.2.6,0,1,.1,1.4.4.4.2.7.6.9,1,.2.4.3,1,.3,1.6s-.1,1.3-.4,1.8-.6.9-1.1,1.1c-.5.3-1.1.4-1.7.4s-.9,0-1.4-.2c-.4-.2-.8-.4-1.1-.8-.3-.3-.6-.8-.7-1.3-.2-.5-.3-1.1-.3-1.8h.3ZM391.1,213.1c.4,0,.7-.1,1-.4s.4-.7.4-1.2-.1-.8-.3-1.1c-.2-.3-.5-.4-1-.4s-.5,0-.8.2c-.2.1-.4.3-.5.5s-.2.4-.2.6v.7c0,.3.2.4.3.6.1.2.3.3.5.4.2.1.4.2.6.2h0Z"/>
      <path class="st3" d="M262.1,103.2h0c0-18.7,15.2-33.9,33.9-33.9h0c9,0,17.6,3.6,24,9.9,6.4,6.4,9.9,15,9.9,24h0c0,18.7-15.2,33.9-33.9,33.9h0c-18.7,0-33.9-15.2-33.9-33.9Z"/>
      <path class="st1" d="M262.1,103.2h0c0-18.7,15.2-33.9,33.9-33.9h0c9,0,17.6,3.6,24,9.9,6.4,6.4,9.9,15,9.9,24h0c0,18.7-15.2,33.9-33.9,33.9h0c-18.7,0-33.9-15.2-33.9-33.9Z"/>
      <path class="st3" d="M778.8,103.2h0c0-18.7,15.2-33.9,33.9-33.9h0c9,0,17.6,3.6,24,9.9s9.9,15,9.9,24h0c0,18.7-15.2,33.9-33.9,33.9h0c-18.7,0-33.9-15.2-33.9-33.9Z"/>
      <path class="st1" d="M778.8,103.2h0c0-18.7,15.2-33.9,33.9-33.9h0c9,0,17.6,3.6,24,9.9s9.9,15,9.9,24h0c0,18.7-15.2,33.9-33.9,33.9h0c-18.7,0-33.9-15.2-33.9-33.9Z"/>
      <path class="st11" d="M769.9,80.6h85.7v45.3h-85.7s0-45.3,0-45.3Z"/>
      <path class="st14" d="M800.6,95.7h2.8v3.8c-.4,0-.8.2-1.2.3-.4,0-.9,0-1.4,0-.8,0-1.4-.2-2-.5-.5-.3-.9-.8-1.2-1.3-.3-.6-.4-1.3-.4-2.1s.2-1.5.5-2.1.8-1,1.3-1.4c.6-.3,1.3-.5,2.1-.5s.8,0,1.2,0c.4,0,.7.2,1.1.3l-.4,1c-.3,0-.6-.2-.9-.3-.3,0-.7,0-1,0-.6,0-1,0-1.5.4-.4.2-.7.6-.9,1s-.3,1-.3,1.6,0,1.1.3,1.5c.2.4.5.8.8,1,.4.3.9.4,1.5.4h.8c.2,0,.4,0,.6,0v-2.1h-1.6v-1h-.2ZM806.1,99.8h-1.1v-8.1h1.1v8.1ZM813,96.9c0,.5,0,.9-.2,1.3,0,.4-.3.7-.5.9-.2.3-.5.5-.9.6-.3,0-.7.2-1.1.2s-.7,0-1.1-.2c-.3,0-.6-.3-.9-.6-.2-.3-.4-.6-.6-.9,0-.4-.2-.8-.2-1.3s0-1.2.3-1.6.5-.8.9-1,.9-.3,1.5-.3,1,0,1.4.3c.4.2.7.6,1,1,.2.4.3,1,.3,1.6h0ZM808.7,96.9c0,.4,0,.8.2,1.1,0,.3.3.6.5.7.2.2.5.3.9.2.4,0,.6,0,.9-.2.2-.2.4-.4.5-.7,0-.3.2-.7.2-1.1s0-.8-.2-1.1c0-.3-.3-.5-.5-.7s-.5-.2-.9-.2-.9.2-1.2.5c-.2.4-.4.9-.4,1.5ZM815.5,93.7v1.2h0c.2-.2.4-.4.7-.6s.6-.2,1.1-.2,1.3.3,1.7.8.6,1.2.6,2.2,0,1.2-.3,1.7c-.2.4-.5.8-.8,1s-.7.3-1.2.3-.8,0-1.1-.2-.5-.4-.7-.6h0l-.2.7h-.8v-8.1h1.1v1.9h0ZM817,94.9c-.4,0-.7,0-.9.2-.2,0-.4.3-.5.6,0,.3,0,.7,0,1.1h0c0,.7,0,1.3.3,1.6.2.3.6.5,1.2.5s.8-.2,1-.5c.2-.4.3-.9.3-1.5s0-1.2-.3-1.5-.6-.5-1.1-.5h0ZM823.3,94c.7,0,1.2.2,1.6.5.4.3.5.8.5,1.5v3.9h-.8l-.2-.8h0c-.2.2-.3.4-.5.5s-.4.2-.6.3h-.8c-.3,0-.6,0-.9-.2-.3,0-.5-.3-.6-.6-.2-.3-.2-.6-.2-1,0-.6.2-1,.7-1.3.4-.3,1.1-.5,2-.5h1v-.3c0-.4,0-.7-.3-.9-.2-.2-.5-.3-.8-.3s-.6,0-.8,0c-.3,0-.5.2-.8.3l-.3-.8c.3,0,.6-.3.9-.4.4,0,.8,0,1.2,0h-.3ZM823.5,97.1c-.7,0-1.1,0-1.4.3-.2.2-.4.4-.4.8s0,.5.3.7c.2,0,.4.2.7.2s.8,0,1.1-.4c.3-.2.4-.6.4-1.1v-.5h-.8.1ZM828.2,99.8h-1.1v-8.1h1.1v8.1Z"/>
      <path class="st14" d="M790.1,106.9v5.8h-1.1v-5.8h1.1ZM789.5,104.7c.2,0,.3,0,.4.2,0,0,.2.3.2.5s0,.4-.2.5c0,0-.3.2-.4.2s-.3,0-.5-.2-.2-.3-.2-.5,0-.4.2-.5c0,0,.3-.2.5-.2ZM794.7,106.8c.7,0,1.2.2,1.5.5.4.3.5.9.5,1.6v3.7h-1.1v-3.6c0-.4,0-.8-.3-1-.2-.2-.5-.3-.9-.3-.6,0-1,.2-1.2.5s-.3.8-.3,1.5v2.9h-1.1v-5.8h.9l.2.8h0c0-.2.3-.4.5-.5s.4-.2.6-.3h.7,0ZM799.6,106.9v5.8h-1.1v-5.8h1.1ZM799.1,104.7c.2,0,.3,0,.4.2,0,0,.2.3.2.5s0,.4-.2.5c0,0-.3.2-.4.2s-.3,0-.5-.2c0,0-.2-.3-.2-.5s0-.4.2-.5c0,0,.3-.2.5-.2ZM803.4,111.8h.5c.2,0,.3,0,.4,0v.9c0,0-.3,0-.5,0h-.6c-.3,0-.6,0-.9-.2-.3,0-.5-.3-.6-.6-.2-.3-.2-.6-.2-1.1v-3.2h-.8v-.5l.8-.4.4-1.2h.7v1.3h1.6v.9h-1.6v3.2c0,.3,0,.5.2.7.2,0,.4.2.6.2h0ZM806.6,106.9v5.8h-1.1v-5.8h1.1ZM806,104.7c.2,0,.3,0,.4.2,0,0,.2.3.2.5s0,.4-.2.5c0,0-.3.2-.4.2s-.3,0-.5-.2-.2-.3-.2-.5,0-.4.2-.5c0,0,.3-.2.5-.2ZM810.6,106.8c.7,0,1.2.2,1.6.5.4.3.5.8.5,1.5v3.9h-.8l-.2-.8h0c-.2.2-.3.4-.5.5s-.4.2-.6.3h-.8c-.3,0-.6,0-.9-.2-.3,0-.5-.3-.6-.6-.2-.3-.2-.6-.2-1,0-.6.2-1,.7-1.3.4-.3,1.1-.5,2-.5h1v-.3c0-.4,0-.7-.3-.9-.2-.2-.5-.3-.8-.3s-.6,0-.8,0c-.3,0-.5.2-.8.3l-.3-.8c.3,0,.6-.3.9-.4.4,0,.8,0,1.2,0h-.3ZM810.8,109.9c-.7,0-1.1,0-1.4.3s-.4.4-.4.8,0,.5.3.7.4.2.7.2.8,0,1.1-.4c.3-.2.4-.6.4-1.1v-.5h-.8.1ZM816.5,111.8h.5c.2,0,.3,0,.4,0v.9c0,0-.3,0-.5,0h-.6c-.3,0-.6,0-.9-.2-.3,0-.5-.3-.6-.6s-.2-.6-.2-1.1v-3.2h-.8v-.5l.8-.4.4-1.2h.7v1.3h1.6v.9h-1.6v3.2c0,.3,0,.5.2.7.2,0,.4.2.6.2h0ZM819.6,106.9v5.8h-1.1v-5.8h1.1ZM819.1,104.7c.2,0,.3,0,.4.2,0,0,.2.3.2.5s0,.4-.2.5c0,0-.3.2-.4.2s-.3,0-.5-.2-.2-.3-.2-.5,0-.4.2-.5c0,0,.3-.2.5-.2ZM822.7,112.6l-2.2-5.8h1.2l1.2,3.4c0,0,0,.3.2.5,0,.2,0,.3.2.5v.4h0v-.4c0-.2,0-.3.2-.5s0-.3.2-.5l1.2-3.4h1.2l-2.2,5.8h-1.2ZM829.3,106.8c.5,0,.9,0,1.3.3.4.2.7.5.8.9.2.4.3.8.3,1.4v.6h-3.9c0,.6.2,1,.5,1.3s.7.5,1.3.5h1c.3,0,.6-.2.9-.3v.9c-.3,0-.6.2-.9.3s-.6,0-1.1,0-1,0-1.5-.3c-.4-.2-.7-.5-1-1s-.4-1-.4-1.6,0-1.2.3-1.6.5-.8.9-1,.9-.4,1.4-.4h.1ZM829.3,107.7c-.4,0-.7,0-1,.4s-.4.6-.4,1.1h2.7c0-.3,0-.6,0-.8s-.2-.4-.4-.5-.4-.2-.7-.2h0ZM836.9,111c0,.4,0,.7-.3,1-.2.2-.4.4-.8.6-.3,0-.8.2-1.2.2h-1c-.3,0-.6-.2-.8-.3v-1c.3,0,.6.2.9.3.3,0,.7,0,1,0s.7,0,.9-.2c.2,0,.3-.3.3-.5s0-.2,0-.3c0,0-.2-.2-.4-.3-.2,0-.5-.2-.9-.4-.4,0-.7-.3-.9-.4s-.4-.3-.6-.5c0-.2-.2-.5-.2-.8,0-.5.2-.9.6-1.1.4-.3.9-.4,1.6-.4s.7,0,1,0c.3,0,.6.2.9.3l-.4.8c-.2,0-.5-.2-.8-.2s-.5,0-.8,0-.6,0-.8.2c-.2,0-.3.2-.3.4s0,.3,0,.4c0,0,.2.2.4.3.2,0,.5.2.9.4.4,0,.7.3.9.4s.4.3.6.5c0,.2.2.5.2.8v-.3Z"/>
      <path class="st3" d="M629.2,103.2h0c0-18.7,15.2-33.9,33.9-33.9h0c9,0,17.6,3.6,24,9.9,6.4,6.4,9.9,15,9.9,24h0c0,18.7-15.2,33.9-33.9,33.9h0c-18.7,0-33.9-15.2-33.9-33.9Z"/>
      <path class="st1" d="M629.2,103.2h0c0-18.7,15.2-33.9,33.9-33.9h0c9,0,17.6,3.6,24,9.9,6.4,6.4,9.9,15,9.9,24h0c0,18.7-15.2,33.9-33.9,33.9h0c-18.7,0-33.9-15.2-33.9-33.9Z"/>
      <path class="st11" d="M620.2,80.6h85.7v42h-85.7v-42Z"/>
      <path class="st14" d="M652.4,95h2.4v3.3c-.4,0-.7.2-1.1.3h-1.3c-.7,0-1.2,0-1.7-.4s-.8-.7-1.1-1.2c-.2-.5-.4-1.1-.4-1.8s0-1.3.4-1.8c.3-.5.7-.9,1.2-1.2.5-.3,1.1-.4,1.9-.4s.7,0,1.1,0c.3,0,.6.2.9.3l-.4.8c-.2,0-.5-.2-.8-.3-.3,0-.6,0-.9,0-.5,0-.9,0-1.3.3-.4.2-.6.5-.8.9s-.3.8-.3,1.4,0,.9.2,1.3.4.7.7.9c.3.2.8.3,1.3.3h.7c.2,0,.4,0,.5,0v-1.8h-1.4v-.9h.2ZM657.3,98.5h-1v-7.1h1v7.1ZM663.3,96c0,.4,0,.8-.2,1.1,0,.3-.3.6-.5.8-.2.2-.4.4-.8.5-.3,0-.6.2-1,.2s-.6,0-.9-.2c-.3,0-.5-.3-.7-.5s-.4-.5-.5-.8-.2-.7-.2-1.1,0-1,.3-1.4c.2-.4.5-.7.8-.9.4-.2.8-.3,1.3-.3s.9,0,1.2.3c.4.2.6.5.8.9s.3.9.3,1.4h.1ZM659.6,96c0,.4,0,.7,0,1,0,.3.2.5.4.6s.5.2.8.2.6,0,.8-.2c.2,0,.3-.4.4-.6,0-.3,0-.6,0-1s0-.7,0-1c0-.3-.2-.5-.4-.6s-.5-.2-.8-.2c-.5,0-.8.2-1,.5s-.3.7-.3,1.3ZM665.5,93.2v1h0c0-.2.3-.4.6-.5.2,0,.6-.2,1-.2.6,0,1.1.2,1.4.7.4.4.6,1.1.6,1.9s0,1.1-.2,1.4c-.2.4-.4.7-.7.9-.3.2-.7.3-1.1.3s-.7,0-.9-.2c-.2,0-.4-.3-.6-.5h0l-.2.6h-.7v-7.1h1v1.7h-.2ZM666.8,94.3c-.3,0-.6,0-.8.2-.2,0-.3.3-.4.6,0,.2,0,.6,0,1h0c0,.7,0,1.1.3,1.4.2.3.5.4,1,.4s.7-.2.9-.5.3-.8.3-1.3,0-1-.3-1.3c-.2-.3-.5-.4-.9-.4h0ZM672.3,93.4c.6,0,1.1,0,1.4.4.3.3.5.7.5,1.3v3.4h-.7l-.2-.7h0c0,.2-.3.3-.5.5,0,0-.3.2-.5.2h-.7c-.3,0-.6,0-.8-.2-.2,0-.4-.3-.6-.5,0-.2-.2-.5-.2-.9s.2-.9.6-1.2c.4-.3,1-.4,1.8-.4h.8v-.3c0-.4,0-.7-.2-.8-.2,0-.4-.2-.7-.2s-.5,0-.7,0c-.2,0-.5.2-.7.2l-.3-.7c.2,0,.5-.2.8-.3.3,0,.6,0,1,0v.2ZM672.5,96.2c-.6,0-1,0-1.2.3-.2.2-.3.4-.3.7s0,.5.2.6.4.2.6.2c.4,0,.7,0,1-.3.3-.2.4-.5.4-1v-.4h-.7ZM676.6,98.5h-1v-7.1h1v7.1Z"/>
      <path class="st14" d="M639.6,105.5h-1.2v4.3h-1v-4.3h-.8v-.5l.8-.3v-.3c0-.4,0-.8.2-1,0-.3.3-.4.6-.6.2,0,.6-.2.9-.2h.6c.2,0,.3,0,.5,0l-.2.8h-.8c-.2,0-.4,0-.6.2,0,.2-.2.4-.2.7v.3h1.2v.8h0ZM643,104.6h.6v.9h-.7c-.2,0-.3,0-.5,0-.2,0-.3.2-.5.3,0,0-.2.3-.3.5,0,.2,0,.4,0,.7v2.6h-1v-5h.8v.9h.2c0-.2.2-.4.4-.5.2-.2.3-.3.5-.4.2,0,.4,0,.6,0ZM646.3,104.6c.6,0,1.1,0,1.4.4.3.3.5.7.5,1.3v3.4h-.7l-.2-.7h0c0,.2-.3.3-.5.5,0,0-.3.2-.5.2h-.7c-.3,0-.6,0-.8-.2-.2,0-.4-.3-.6-.5,0-.2-.2-.5-.2-.9s.2-.9.6-1.2c.4-.3,1-.4,1.8-.4h.8v-.3c0-.4,0-.7-.2-.8s-.4-.2-.7-.2-.5,0-.7,0c-.2,0-.5.2-.7.2l-.3-.7c.2,0,.5-.2.8-.3.3,0,.6,0,1,0v.2ZM646.5,107.4c-.6,0-1,0-1.2.3-.2.2-.3.4-.3.7s0,.5.2.6.4.2.6.2c.4,0,.7,0,1-.3.3-.2.4-.5.4-1v-.4h-.7ZM655.2,104.6c.6,0,1,0,1.3.4s.4.8.4,1.4v3.3h-1v-3.1c0-.4,0-.7-.2-.9s-.4-.3-.7-.3-.8,0-1,.4-.3.7-.3,1.2v2.7h-1v-3.1c0-.3,0-.5,0-.6,0-.2-.2-.3-.3-.4s-.3,0-.5,0-.6,0-.7.2-.3.3-.4.6c0,.3,0,.6,0,1v2.5h-1v-5h.8v.7h.2c0-.2.2-.3.4-.4s.3-.2.5-.2h.6c.4,0,.7,0,1,.2.3,0,.4.3.6.6h0c.2-.3.4-.5.7-.6s.6-.2.9-.2v-.3ZM660.4,104.6c.4,0,.8,0,1.1.3.3.2.6.4.7.8s.2.8.2,1.2v.5h-3.4c0,.5,0,.9.4,1.2.3.3.6.4,1.1.4h.9c.3,0,.5-.2.8-.3v.8c-.2,0-.5.2-.8.2h-.9c-.3,0-.9,0-1.3-.3-.4-.2-.7-.5-.9-.9s-.3-.9-.3-1.4,0-1,.3-1.4c.2-.4.5-.7.8-.9s.7-.3,1.2-.3h.1ZM660.4,105.4c-.4,0-.6,0-.9.3-.2.2-.3.6-.4,1h2.4c0-.3,0-.5,0-.7,0-.2-.2-.4-.4-.5s-.4-.2-.6-.2h0ZM667,107.2c0,0,0-.3,0-.4,0-.2,0-.3,0-.5v-.7h0v.3c0,0,0,.3,0,.4,0,0,0,.3,0,.5,0,0,0,.3,0,.4l-.8,2.5h-1.1l-1.4-5h1l.7,2.5c0,.2,0,.3,0,.5,0,.2,0,.4,0,.5v.5h0v-1.4l.8-2.7h1.1l.8,2.7c0,0,0,.3,0,.5,0,.2,0,.3,0,.5s0,.3,0,.4h0v-.4c0-.2,0-.4,0-.6,0-.2,0-.4,0-.6l.7-2.5h1l-1.4,5h-1.1l-.7-2.5h.3ZM675.6,107.2c0,.4,0,.8-.2,1.1,0,.3-.3.6-.5.8-.2.2-.4.4-.8.5-.3,0-.6.2-1,.2s-.6,0-.9-.2c-.3,0-.5-.3-.7-.5s-.4-.5-.5-.8-.2-.7-.2-1.1,0-1,.3-1.4c.2-.4.5-.7.8-.9.4-.2.8-.3,1.3-.3s.9,0,1.2.3c.4.2.6.5.8.9s.3.9.3,1.4h.1ZM671.9,107.2c0,.4,0,.7,0,1s.2.5.4.6.5.2.8.2.6,0,.8-.2c.2,0,.3-.4.4-.6s0-.6,0-1,0-.7,0-1c0-.3-.2-.5-.4-.6s-.5-.2-.8-.2c-.5,0-.8.2-1,.5s-.3.8-.3,1.3ZM679.3,104.6h.6v.9h-.7c-.2,0-.3,0-.5,0-.2,0-.3.2-.5.3,0,0-.2.3-.3.5,0,.2,0,.4,0,.7v2.6h-1v-5h.8v.9h.2c0-.2.2-.4.4-.5.2-.2.3-.3.5-.4.2,0,.4,0,.6,0ZM681.8,106.2v1h0s0,0,.2-.2c0,0,0-.2.2-.3,0,0,0-.2.2-.2l1.5-1.7h1.2l-2,2.2,2.2,2.9h-1.2l-1.7-2.2-.6.5v1.8h-1v-7.1h1v3.5-.2ZM689.3,108.3c0,.3,0,.6-.2.8-.2.2-.4.4-.7.5s-.7.2-1.1.2h-.9c-.2,0-.5,0-.7-.2v-.9c.2,0,.5.2.8.3.3,0,.6,0,.9,0s.6,0,.8-.2c.2,0,.3-.3.3-.5s0-.2,0-.3c0,0-.2-.2-.4-.3s-.4-.2-.8-.3c-.3,0-.6-.2-.8-.4s-.4-.3-.5-.5-.2-.4-.2-.7.2-.8.5-1c.4-.2.8-.4,1.4-.4h.9c.3,0,.5.2.8.3l-.3.7c-.2,0-.4-.2-.7-.2s-.5,0-.7,0-.5,0-.7.2c-.2,0-.2.2-.2.4s0,.2,0,.3c0,0,.2.2.4.3.2,0,.4.2.8.3.3,0,.6.2.8.4s.4.3.5.5.2.4.2.7h-.2Z"/>
      <path class="st3" d="M704.4,103.2h0c0-18.7,15.2-33.9,33.9-33.9h0c9,0,17.6,3.6,24,9.9,6.4,6.4,9.9,15,9.9,24h0c0,18.7-15.2,33.9-33.9,33.9h0c-18.7,0-33.9-15.2-33.9-33.9Z"/>
      <path class="st1" d="M704.4,103.2h0c0-18.7,15.2-33.9,33.9-33.9h0c9,0,17.6,3.6,24,9.9,6.4,6.4,9.9,15,9.9,24h0c0,18.7-15.2,33.9-33.9,33.9h0c-18.7,0-33.9-15.2-33.9-33.9Z"/>
      <path class="st11" d="M695.5,80.6h85.7v42h-85.7v-42Z"/>
      <path class="st14" d="M727.7,95h2.4v3.3c-.4,0-.7.2-1.1.3h-1.3c-.7,0-1.2,0-1.7-.4s-.8-.7-1.1-1.2c-.2-.5-.4-1.1-.4-1.8s0-1.3.4-1.8c.3-.5.7-.9,1.2-1.2.5-.3,1.1-.4,1.9-.4s.7,0,1.1,0c.3,0,.6.2.9.3l-.4.8c-.2,0-.5-.2-.8-.3-.3,0-.6,0-.9,0-.5,0-.9,0-1.3.3-.4.2-.6.5-.8.9s-.3.8-.3,1.4,0,.9.2,1.3.4.7.7.9c.3.2.8.3,1.3.3h.7c.2,0,.4,0,.5,0v-1.8h-1.4v-.9h.2ZM732.6,98.5h-1v-7.1h1v7.1ZM738.6,96c0,.4,0,.8-.2,1.1,0,.3-.3.6-.5.8-.2.2-.4.4-.8.5-.3,0-.6.2-1,.2s-.6,0-.9-.2c-.3,0-.5-.3-.7-.5s-.4-.5-.5-.8-.2-.7-.2-1.1,0-1,.3-1.4c.2-.4.5-.7.8-.9.4-.2.8-.3,1.3-.3s.9,0,1.2.3c.4.2.6.5.8.9s.3.9.3,1.4h.1ZM734.8,96c0,.4,0,.7,0,1,0,.3.2.5.4.6s.5.2.8.2.6,0,.8-.2c.2,0,.3-.4.4-.6,0-.3,0-.6,0-1s0-.7,0-1c0-.3-.2-.5-.4-.6s-.5-.2-.8-.2c-.5,0-.8.2-1,.5s-.3.7-.3,1.3ZM740.8,93.2v1h0c0-.2.3-.4.6-.5s.6-.2,1-.2c.6,0,1.1.2,1.4.7.4.4.6,1.1.6,1.9s0,1.1-.2,1.4c-.2.4-.4.7-.7.9-.3.2-.7.3-1.1.3s-.7,0-.9-.2c-.2,0-.4-.3-.6-.5h0l-.2.6h-.7v-7.1h1v1.7h-.2ZM742.1,94.3c-.3,0-.6,0-.8.2-.2,0-.3.3-.4.6,0,.2,0,.6,0,1h0c0,.7,0,1.1.3,1.4.2.3.5.4,1,.4s.7-.2.9-.5.3-.8.3-1.3,0-1-.3-1.3c-.2-.3-.5-.4-.9-.4h0ZM747.6,93.4c.6,0,1.1,0,1.4.4.3.3.5.7.5,1.3v3.4h-.7l-.2-.7h0c0,.2-.3.3-.5.5,0,0-.3.2-.5.2h-.7c-.3,0-.6,0-.8-.2-.2,0-.4-.3-.6-.5,0-.2-.2-.5-.2-.9s.2-.9.6-1.2c.4-.3,1-.4,1.8-.4h.8v-.3c0-.4,0-.7-.2-.8-.2,0-.4-.2-.7-.2s-.5,0-.7,0c-.2,0-.5.2-.7.2l-.3-.7c.2,0,.5-.2.8-.3.3,0,.6,0,1,0v.2ZM747.8,96.2c-.6,0-1,0-1.2.3-.2.2-.3.4-.3.7s0,.5.2.6.4.2.6.2c.4,0,.7,0,1-.3.3-.2.4-.5.4-1v-.4h-.7ZM751.9,98.5h-1v-7.1h1v7.1Z"/>
      <path class="st14" d="M712.6,104.6c.6,0,1.1,0,1.4.4.3.3.5.7.5,1.3v3.4h-.7l-.2-.7h0c0,.2-.3.3-.5.5,0,0-.3.2-.5.2h-.7c-.3,0-.6,0-.8-.2-.2,0-.4-.3-.6-.5,0-.2-.2-.5-.2-.9s.2-.9.6-1.2c.4-.3,1-.4,1.8-.4h.8v-.3c0-.4,0-.7-.2-.8s-.4-.2-.7-.2-.5,0-.7,0c-.2,0-.5.2-.7.2l-.3-.7c.2,0,.5-.2.8-.3.3,0,.6,0,1,0v.2ZM712.8,107.4c-.6,0-1,0-1.2.3-.2.2-.3.4-.3.7s0,.5.2.6.4.2.6.2c.4,0,.7,0,1-.3.3-.2.4-.5.4-1v-.4h-.7ZM719.3,108.3c0,.3,0,.6-.2.8-.2.2-.4.4-.7.5s-.7.2-1.1.2h-.9c-.2,0-.5,0-.7-.2v-.9c.2,0,.5.2.8.3.3,0,.6,0,.9,0s.6,0,.8-.2c.2,0,.3-.3.3-.5s0-.2,0-.3c0,0-.2-.2-.4-.3s-.4-.2-.8-.3c-.3,0-.6-.2-.8-.4s-.4-.3-.5-.5-.2-.4-.2-.7.2-.8.5-1c.4-.2.8-.4,1.4-.4h.9c.3,0,.5.2.8.3l-.3.7c-.2,0-.4-.2-.7-.2s-.5,0-.7,0-.5,0-.7.2c-.2,0-.2.2-.2.4s0,.2,0,.3c0,0,.2.2.4.3.2,0,.4.2.8.3.3,0,.6.2.8.4s.4.3.5.5.2.4.2.7h-.2ZM723.9,108.3c0,.3,0,.6-.2.8-.2.2-.4.4-.7.5s-.7.2-1.1.2h-.9c-.3,0-.5,0-.7-.2v-.9c.2,0,.5.2.8.3.3,0,.6,0,.9,0s.6,0,.8-.2c.2,0,.3-.3.3-.5s0-.2,0-.3c0,0-.2-.2-.4-.3-.2,0-.4-.2-.8-.3-.3,0-.6-.2-.8-.4s-.4-.3-.5-.5-.2-.4-.2-.7.2-.8.5-1c.4-.2.8-.4,1.4-.4h.9c.3,0,.5.2.8.3l-.3.7c-.2,0-.4-.2-.7-.2s-.5,0-.7,0-.5,0-.7.2c-.2,0-.2.2-.2.4s0,.2,0,.3c0,0,.2.2.4.3.2,0,.4.2.8.3.3,0,.6.2.8.4s.4.3.5.5.2.4.2.7h-.2ZM727,104.6c.4,0,.8,0,1.1.3.3.2.6.4.7.8.2.3.2.8.2,1.2v.5h-3.4c0,.5,0,.9.4,1.2.3.3.6.4,1.1.4h.9c.3,0,.5-.2.8-.3v.8c-.2,0-.5.2-.8.2h-.9c-.3,0-.9,0-1.3-.3-.4-.2-.7-.5-.9-.9s-.3-.9-.3-1.4,0-1,.3-1.4c.2-.4.5-.7.8-.9s.7-.3,1.2-.3h.1ZM727,105.4c-.4,0-.6,0-.9.3-.2.2-.3.6-.4,1h2.4c0-.3,0-.5,0-.7,0-.2-.2-.4-.4-.5s-.4-.2-.6-.2h0ZM733.7,108.3c0,.3,0,.6-.2.8-.2.2-.4.4-.7.5s-.7.2-1.1.2h-.9c-.3,0-.5,0-.7-.2v-.9c.2,0,.5.2.8.3.3,0,.6,0,.9,0s.6,0,.8-.2c.2,0,.3-.3.3-.5s0-.2,0-.3c0,0-.2-.2-.4-.3-.2,0-.4-.2-.8-.3-.3,0-.6-.2-.8-.4-.2,0-.4-.3-.5-.5s-.2-.4-.2-.7.2-.8.5-1c.4-.2.8-.4,1.4-.4h.9c.3,0,.5.2.8.3l-.3.7c-.2,0-.4-.2-.7-.2s-.5,0-.7,0-.5,0-.7.2c-.2,0-.2.2-.2.4s0,.2,0,.3c0,0,.2.2.4.3.2,0,.4.2.8.3.3,0,.6.2.8.4.2,0,.4.3.5.5s.2.4.2.7h-.2ZM738.3,108.3c0,.3,0,.6-.2.8-.2.2-.4.4-.7.5s-.7.2-1.1.2h-.9c-.3,0-.5,0-.7-.2v-.9c.2,0,.5.2.8.3.3,0,.6,0,.9,0s.6,0,.8-.2c.2,0,.3-.3.3-.5s0-.2,0-.3c0,0-.2-.2-.4-.3-.2,0-.4-.2-.8-.3-.3,0-.6-.2-.8-.4s-.4-.3-.5-.5-.2-.4-.2-.7.2-.8.5-1c.4-.2.8-.4,1.4-.4h.9c.3,0,.5.2.8.3l-.3.7c-.2,0-.4-.2-.7-.2s-.5,0-.7,0-.5,0-.7.2c-.2,0-.2.2-.2.4s0,.2,0,.3c0,0,.2.2.4.3.2,0,.4.2.8.3.3,0,.6.2.8.4s.4.3.5.5.2.4.2.7h-.2ZM745.1,104.6c.6,0,1,0,1.3.4s.4.8.4,1.4v3.3h-1v-3.1c0-.4,0-.7-.2-.9s-.4-.3-.7-.3-.8,0-1,.4-.3.7-.3,1.2v2.7h-1v-3.1c0-.3,0-.5,0-.6,0-.2-.2-.3-.3-.4,0,0-.3,0-.5,0s-.6,0-.7.2c-.2,0-.3.3-.4.6,0,.3,0,.6,0,1v2.5h-1v-5h.8v.7h.2c0-.2.2-.3.4-.4s.3-.2.5-.2h.6c.4,0,.7,0,1,.2.3,0,.4.3.6.6h0c.2-.3.4-.5.7-.6s.6-.2.9-.2v-.3ZM750.3,104.6c.4,0,.8,0,1.1.3.3.2.6.4.7.8.2.3.2.8.2,1.2v.5h-3.4c0,.5,0,.9.4,1.2.3.3.6.4,1.1.4h.9c.3,0,.5-.2.8-.3v.8c-.2,0-.5.2-.8.2h-.9c-.3,0-.9,0-1.3-.3-.4-.2-.7-.5-.9-.9s-.3-.9-.3-1.4,0-1,.3-1.4c.2-.4.5-.7.8-.9s.7-.3,1.2-.3h.1ZM750.3,105.4c-.4,0-.6,0-.9.3-.2.2-.3.6-.4,1h2.4c0-.3,0-.5,0-.7,0-.2-.2-.4-.4-.5s-.4-.2-.6-.2h0ZM756.2,104.6c.6,0,1,0,1.3.4s.5.8.5,1.4v3.3h-1v-3.1c0-.4,0-.7-.2-.9-.2-.2-.4-.3-.8-.3s-.9.2-1.1.5c-.2.3-.3.7-.3,1.3v2.5h-1v-5h.8v.7h.2c0-.2.2-.3.4-.4s.3-.2.5-.2h.6v-.2ZM761.3,109h.8v.8c0,0-.2,0-.4,0h-.5c-.3,0-.5,0-.8,0-.2,0-.4-.3-.5-.5s-.2-.6-.2-1v-2.8h-.7v-.5l.7-.4.3-1.1h.6v1.1h1.4v.8h-1.4v2.8c0,.3,0,.5.2.6,0,0,.3.2.5.2ZM766.4,108.3c0,.3,0,.6-.2.8-.2.2-.4.4-.7.5s-.7.2-1.1.2h-.9c-.3,0-.5,0-.7-.2v-.9c.2,0,.5.2.8.3.3,0,.6,0,.9,0s.6,0,.8-.2c.2,0,.3-.3.3-.5s0-.2,0-.3c0,0-.2-.2-.4-.3-.2,0-.4-.2-.8-.3-.3,0-.6-.2-.8-.4s-.4-.3-.5-.5-.2-.4-.2-.7.2-.8.5-1c.4-.2.8-.4,1.4-.4h.9c.3,0,.5.2.8.3l-.3.7c-.2,0-.4-.2-.7-.2s-.5,0-.7,0-.5,0-.7.2c-.2,0-.2.2-.2.4s0,.2,0,.3c0,0,.2.2.4.3.2,0,.4.2.8.3.3,0,.6.2.8.4s.4.3.5.5.2.4.2.7h-.2Z"/>
      <path class="st11" d="M663.1,137.1c0,67.4-22.7,109.3-45.4,134.8-22.7,25.5-45.4,34.7-45.4,69.3"/>
      <path class="st2" d="M663.1,140.6v2.8c0,2.1,0,4.1-.2,6.1-.2,4-.4,7.9-.8,11.8-.7,7.6-1.6,14.9-2.9,21.8-2.5,13.8-6,26.2-10.3,37.2-8.5,22.1-19.9,38.9-31.2,51.7-22.7,25.5-45.4,34.7-45.4,69.3"/>
      <path class="st10" d="M663.1,140.6l1.1,1.1-1.1-3.1-1.1,3.1,1.1-1.1Z"/>
      <path class="st11" d="M572.2,341.2c0-51,41.5-76.5,83.1-102,41.5-25.5,83.1-51,83.1-102"/>
      <path class="st2" d="M572.2,341.2c0-51,41.5-76.5,83.1-102,20.8-12.8,41.5-25.5,57.1-41.5s14.3-16.7,18.8-26.7c2.3-5,4.1-10.3,5.3-15.9.6-2.8,1.1-5.7,1.4-8.7.2-1.5.3-3,.4-4.6v-1.2h0"/>
      <path class="st10" d="M738.3,140.6l1.1,1.1-1.1-3.1-1.2,3.1,1.1-1.1h.1Z"/>
      <path class="st11" d="M572.2,341.2c0-51,60.1-76.5,120.3-102s120.3-51,120.3-102"/>
      <path class="st2" d="M572.2,341.2c0-51,60.1-76.5,120.3-102,30.1-12.8,60.1-25.5,82.7-41.5,11.3-8,20.7-16.7,27.3-26.7s5.9-10.3,7.6-15.9c.9-2.8,1.6-5.7,2-8.7s.4-3,.5-4.6v-1.2h0"/>
      <path class="st10" d="M812.6,140.6l1.1,1.2-1-3.1-1.2,3.1,1.2-1.1h0Z"/>
      <path class="st11" d="M378.2,261.9c-127.5,0-255-67.4-255-134.7"/>
      <path class="st1" d="M378.2,261.9c-63.7,0-127.5-16.8-175.3-42.1-23.9-12.6-43.8-27.4-57.8-43.2-7-7.9-12.4-16.1-16.2-24.3-1.9-4.1-3.3-8.3-4.3-12.5-.5-2.1-.8-4.2-1.1-6.3,0-.5,0-1.1-.2-1.6v-1.3"/>
      <path class="st12" d="M123.4,130.6l1.2,1.1-1.2-3.1-1,3.1,1.1-1.2h0Z"/>
      <path class="st11" d="M378.2,261.9c-90.1,0-180.3-67.4-180.3-134.7"/>
      <path class="st1" d="M378.2,261.9c-45.1,0-90.1-16.8-123.9-42.1-16.9-12.6-31-27.4-40.8-43.2s-8.8-16.1-11.4-24.3c-1.3-4.1-2.3-8.3-3-12.5-.3-2.1-.6-4.2-.8-6.3,0-.5,0-1.1-.1-1.6v-1.3"/>
      <path class="st12" d="M198,130.6l1.1,1.1-1.2-3.1-1.1,3.1,1.1-1.1h0Z"/>
      <path class="st11" d="M378.2,261.9c-41.1,0-82.2-62.4-82.2-124.8"/>
      <path class="st1" d="M378.2,261.9c-20.6,0-41.1-15.6-56.5-39-7.7-11.7-14.1-25.4-18.6-40-2.2-7.3-4-14.9-5.2-22.6-.6-3.8-1.1-7.7-1.4-11.6-.2-1.9-.3-3.9-.4-5.8v-2.5"/>
      <path class="st12" d="M296,140.6l1.1,1.1-1.2-3.1-1.1,3.1,1.1-1.1h.1Z"/>
      <path class="st11" d="M104.4,80.6h85.7v45.3h-85.7s0-45.3,0-45.3Z"/>
      <path class="st14" d="M132.8,95.9c0,.9-.2,1.6-.5,2.2s-.8,1-1.4,1.3c-.6.3-1.3.4-2.1.4h-2.2v-7.6h2.4c.8,0,1.5,0,2,.4.6.3,1,.7,1.3,1.2s.5,1.2.5,2h0ZM131.6,96c0-.6-.1-1.2-.3-1.6s-.5-.7-.9-.9c-.4-.2-.9-.3-1.5-.3h-1.1v5.7h.9c1,0,1.7-.2,2.2-.7s.7-1.2.7-2.2ZM136.6,94c.5,0,.9,0,1.3.3s.7.5.8.9c.2.4.3.8.3,1.4v.6h-3.9c0,.6.2,1,.5,1.3s.7.5,1.3.5h1c.3,0,.6-.2.9-.3v.9c-.3,0-.6.2-.9.3h-1.1c-.6,0-1,0-1.5-.3-.4-.2-.7-.5-1-1-.2-.4-.4-1-.4-1.6s.1-1.2.3-1.6.5-.8.9-1,.9-.4,1.4-.4h0ZM136.6,94.9c-.4,0-.7,0-1,.4-.2.3-.4.6-.4,1.1h2.7c0-.3,0-.6-.1-.8,0-.2-.2-.4-.4-.5s-.4-.2-.7-.2h-.1ZM142.8,99.9c-.5,0-1,0-1.4-.3-.4-.2-.7-.5-.9-1-.2-.4-.3-1-.3-1.7s.1-1.3.4-1.7c.2-.4.6-.8,1-1s.9-.3,1.4-.3h.9c.3,0,.5,0,.7.2l-.3.9c-.2,0-.4,0-.6-.2h-.6c-.4,0-.7,0-.9.2-.2,0-.4.4-.5.7-.1.3-.2.7-.2,1.1s0,.8.2,1.1c.1.3.3.5.5.7.2,0,.5.2.8.2h.8c.2,0,.5-.2.7-.3v1c-.2,0-.4.2-.7.3h-1ZM146.8,94.1v5.8h-1.1v-5.8h1.1ZM146.2,91.9c.2,0,.3,0,.4.2.1,0,.2.3.2.5s0,.4-.2.5c-.1,0-.3.2-.4.2-.2,0-.3,0-.5-.2-.1,0-.2-.3-.2-.5s0-.4.2-.5c.1,0,.3-.2.5-.2ZM152.4,98.2c0,.4,0,.7-.3,1-.2.3-.4.4-.8.6-.3,0-.8.2-1.2.2h-1c-.3,0-.6-.2-.8-.3v-1c.3,0,.6.2.9.3.3,0,.7,0,1,0s.7,0,.9-.2c.2,0,.3-.3.3-.5s0-.2-.1-.3c0,0-.2-.2-.4-.3-.2,0-.5-.2-.9-.4-.4,0-.7-.3-.9-.4s-.4-.3-.6-.5c-.1-.2-.2-.5-.2-.8,0-.5.2-.9.6-1.1.4-.3.9-.4,1.6-.4s.7,0,1,0c.3,0,.6.2.9.3l-.4.8c-.2,0-.5-.2-.8-.2s-.5,0-.8,0-.6,0-.8.2c-.2,0-.3.3-.3.4s0,.3.1.4c0,0,.2.2.4.3.2,0,.5.2.9.4.4,0,.7.3.9.4s.4.3.6.5c.1.2.2.5.2.8v-.3ZM154.8,94.1v5.8h-1.1v-5.8h1.1ZM154.3,91.9c.2,0,.3,0,.4.2.1,0,.2.3.2.5s0,.4-.2.5c-.1,0-.3.2-.4.2-.2,0-.3,0-.5-.2-.1,0-.2-.3-.2-.5s0-.4.2-.5c.1,0,.3-.2.5-.2ZM161.7,96.9c0,.5,0,.9-.2,1.3-.1.4-.3.7-.5.9-.2.3-.5.5-.9.6-.3,0-.7.2-1.1.2s-.7,0-1.1-.2c-.3,0-.6-.3-.9-.6-.2-.3-.4-.6-.6-.9-.1-.4-.2-.8-.2-1.3s.1-1.2.3-1.6.5-.8.9-1,.9-.3,1.5-.3,1,0,1.4.3c.4.2.7.6,1,1,.2.4.3,1,.3,1.6h.1ZM157.4,96.9c0,.4,0,.8.2,1.1.1.3.3.6.5.7.2.2.5.3.9.2.4,0,.6,0,.9-.2.2-.2.4-.4.5-.7.1-.3.2-.7.2-1.1s0-.8-.2-1.1c-.1-.3-.3-.5-.5-.7s-.5-.2-.9-.2-.9.2-1.2.5c-.2.4-.4.9-.4,1.5ZM166,94c.7,0,1.2.2,1.5.5.4.3.5.9.5,1.6v3.7h-1.1v-3.6c0-.4,0-.8-.3-1-.2-.2-.5-.3-.9-.3-.6,0-1,.2-1.2.5s-.3.8-.3,1.5v2.9h-1.1v-5.8h.9l.2.8h0c.1-.2.3-.4.5-.5l.6-.3h.7Z"/>
      <path class="st14" d="M131.9,111c0,.4,0,.7-.3,1s-.4.4-.8.6c-.3,0-.8.2-1.2.2h-1c-.3,0-.6-.2-.8-.3v-1c.3,0,.6.2.9.3s.7,0,1,0,.7,0,.9-.2.3-.3.3-.5,0-.2-.1-.3c0,0-.2-.2-.4-.3-.2,0-.5-.2-.9-.4-.4,0-.7-.3-.9-.4s-.4-.3-.6-.5c0-.2-.2-.5-.2-.8,0-.5.2-.9.6-1.1.4-.3.9-.4,1.6-.4s.7,0,1,0c.3,0,.6.2.9.3l-.4.8c-.2,0-.5-.2-.8-.2s-.5,0-.8,0-.6,0-.8.2c-.2,0-.3.2-.3.4s0,.3.1.4.2.2.4.3c.2,0,.5.2.9.4.4,0,.7.3.9.4s.4.3.6.5c.1.2.2.5.2.8v-.3ZM138.2,106.9v5.8h-.9l-.2-.8h0c-.1.2-.3.4-.5.5l-.6.3h-.7c-.4,0-.8,0-1.1-.2s-.6-.4-.7-.7c-.2-.3-.2-.7-.2-1.2v-3.8h1.1v3.6c0,.4,0,.8.3,1,.2.2.5.3.9.3s.7,0,.9-.2.4-.4.5-.7c0-.3.1-.7.1-1.1v-2.9h1.1,0ZM142.8,106.8c.7,0,1.2.2,1.7.8.4.5.6,1.2.6,2.2s0,1.2-.3,1.7c-.2.4-.5.8-.8,1s-.7.3-1.2.3-.6,0-.8,0c-.2,0-.4-.2-.6-.3s-.3-.3-.4-.4h0v3.2h-1.1v-8.3h.9l.2.8h0c.1-.2.2-.3.4-.4s.3-.2.6-.3c.2,0,.5,0,.8,0h0ZM142.5,107.7c-.4,0-.6,0-.9.2-.2,0-.4.3-.5.6s-.1.6-.2,1v.2c0,.4,0,.8.1,1.1,0,.3.2.5.5.7.2.2.5.2.9.2s.6,0,.8-.3c.2-.2.4-.4.5-.7.1-.3.2-.7.2-1.1,0-.6-.1-1.1-.3-1.5s-.6-.5-1.1-.5h0ZM149.4,106.8c.7,0,1.2.2,1.7.8.4.5.6,1.2.6,2.2s0,1.2-.3,1.7c-.2.4-.5.8-.8,1s-.7.3-1.2.3-.6,0-.8,0c-.2,0-.4-.2-.6-.3s-.3-.3-.4-.4h0v3.2h-1.1v-8.3h.9l.2.8h0c.1-.2.2-.3.4-.4s.3-.2.6-.3c.2,0,.5,0,.8,0h0ZM149.1,107.7c-.4,0-.6,0-.9.2-.2,0-.4.3-.5.6s-.1.6-.2,1v.2c0,.4,0,.8.1,1.1,0,.3.2.5.5.7.2.2.5.2.9.2s.6,0,.8-.3c.2-.2.4-.4.5-.7.1-.3.2-.7.2-1.1,0-.6-.1-1.1-.3-1.5s-.6-.5-1.1-.5h0ZM158.2,109.7c0,.5,0,.9-.2,1.3s-.3.7-.5.9c-.2.3-.5.5-.9.6-.3,0-.7.2-1.1.2s-.7,0-1.1-.2c-.3,0-.6-.3-.9-.6-.2-.3-.4-.6-.6-.9-.1-.4-.2-.8-.2-1.3s.1-1.2.3-1.6.5-.8.9-1,.9-.3,1.5-.3,1,0,1.4.3c.4.2.7.6,1,1,.2.4.3,1,.3,1.6h.1ZM154,109.7c0,.4,0,.8.2,1.1.1.3.3.6.5.7.2.2.5.2.9.2s.6,0,.9-.2c.2-.2.4-.4.5-.7.1-.3.2-.7.2-1.1s0-.8-.2-1.1c-.1-.3-.3-.5-.5-.7s-.5-.2-.9-.2-.9.2-1.2.5c-.2.4-.4.9-.4,1.5ZM162.5,106.8h.6v1h-.7c-.2,0-.4,0-.6,0-.2,0-.4.2-.5.4s-.3.3-.4.5c0,.2-.1.5-.1.8v3h-1.1v-5.8h.9l.2,1h0c.1-.2.3-.4.4-.6s.4-.3.6-.4c.2,0,.5-.2.7-.2v.2ZM166.2,111.8h.5c.2,0,.3,0,.4,0v.9c-.1,0-.3,0-.5,0h-.6c-.3,0-.6,0-.9-.2-.3,0-.5-.3-.6-.6s-.2-.6-.2-1.1v-3.2h-.8v-.5l.8-.4.4-1.2h.7v1.3h1.6v.9h-1.6v3.2c0,.3,0,.5.2.7.2,0,.4.2.6.2h0Z"/>
      <path class="st11" d="M179.1,87.1h85.7v32.3h-85.7v-32.3h0Z"/>
      <path class="st14" d="M201.9,98.7c.6,0,1.2,0,1.6.2.4.2.7.4.9.7.2.3.3.7.3,1.2s0,.7-.2,1c-.1.3-.3.5-.5.6-.2.2-.5.3-.7.4l2.1,3.4h-1.3l-1.8-3.1h-1.3v3.1h-1.2v-7.6h2.2-.1ZM201.8,99.6h-1v2.6h1c.6,0,1,0,1.2-.3.3-.2.4-.6.4-1s0-.5-.2-.7c-.1-.2-.3-.3-.6-.4-.2,0-.6,0-1,0h.2ZM208.6,100.5c.5,0,.9,0,1.3.3s.7.5.8.9c.2.4.3.8.3,1.4v.6h-3.9c0,.6.2,1,.5,1.3s.7.5,1.3.5h1c.3,0,.6-.2.9-.3v.9c-.3,0-.6.2-.9.3h-1.1c-.5,0-1,0-1.5-.3-.4-.2-.7-.5-1-1-.2-.4-.4-1-.4-1.6s.1-1.2.3-1.6.5-.8.9-1,.9-.4,1.4-.4h0ZM208.6,101.3c-.4,0-.7,0-1,.4-.2.3-.4.6-.4,1.1h2.7c0-.3,0-.6-.1-.8,0-.2-.2-.4-.4-.5s-.4-.2-.7-.2h-.1ZM216.3,104.7c0,.4,0,.7-.3,1s-.4.4-.8.6c-.3,0-.8.2-1.2.2h-1c-.3,0-.6-.2-.8-.3v-1c.3,0,.6.2.9.3.3,0,.7,0,1,0s.7,0,.9-.2c.2,0,.3-.3.3-.5s0-.2-.1-.3c0,0-.2-.2-.4-.3-.2,0-.5-.2-.9-.4-.4,0-.7-.3-.9-.4s-.4-.3-.6-.5c-.1-.2-.2-.5-.2-.8,0-.5.2-.9.6-1.1.4-.3.9-.4,1.6-.4s.7,0,1,0c.3,0,.6.2.9.3l-.4.8c-.2,0-.5-.2-.8-.2s-.5,0-.8,0-.6,0-.8.2c-.2,0-.3.2-.3.4s0,.3.1.4c0,0,.2.2.4.3.2,0,.5.2.9.4.4,0,.7.3.9.4s.4.3.6.5c.1.2.2.5.2.8v-.3ZM219.9,100.5c.5,0,.9,0,1.3.3s.7.5.8.9c.2.4.3.8.3,1.4v.6h-3.9c0,.6.2,1,.5,1.3s.7.5,1.3.5h1c.3,0,.6-.2.9-.3v.9c-.3,0-.6.2-.9.3h-1.1c-.5,0-1,0-1.5-.3-.4-.2-.7-.5-1-1-.2-.4-.4-1-.4-1.6s.1-1.2.3-1.6.5-.8.9-1,.9-.4,1.4-.4h0ZM219.9,101.3c-.4,0-.7,0-1,.4-.2.3-.4.6-.4,1.1h2.7c0-.3,0-.6-.1-.8,0-.2-.2-.4-.4-.5s-.4-.2-.7-.2h-.1ZM226,100.5c.7,0,1.2.2,1.6.5.4.3.5.8.5,1.5v3.9h-.8l-.2-.8h0c-.2.2-.3.4-.5.5l-.6.3h-.8c-.3,0-.6,0-.9-.2-.3,0-.5-.3-.6-.6-.2-.3-.2-.6-.2-1,0-.6.2-1,.7-1.3.4-.3,1.1-.5,2-.5h1v-.3c0-.4,0-.7-.3-.9-.2-.2-.5-.3-.8-.3s-.6,0-.8,0c-.3,0-.5.2-.8.3l-.3-.8c.3,0,.6-.3.9-.4.4,0,.8,0,1.2,0h-.3ZM226.2,103.6c-.7,0-1.1,0-1.4.3-.2.2-.4.4-.4.8s0,.5.3.7c.2,0,.4.2.7.2s.8,0,1.1-.4.4-.6.4-1.1v-.5h-.8,0ZM232.7,100.5h.6v1h-.7c-.2,0-.4,0-.6,0-.2,0-.4.2-.5.4-.1,0-.3.3-.4.5,0,.2-.1.5-.1.8v3h-1.1v-5.8h.9l.2,1h0c.1-.2.3-.4.4-.6.2-.2.4-.3.6-.4.2,0,.5-.2.7-.2v.2ZM236.5,106.4c-.5,0-1,0-1.4-.3-.4-.2-.7-.5-.9-1-.2-.4-.3-1-.3-1.7s.1-1.3.4-1.7c.2-.4.6-.8,1-1s.9-.3,1.4-.3h.9c.3,0,.5,0,.7.2l-.3.9c-.2,0-.4,0-.6-.2h-.6c-.4,0-.7,0-.9.2-.2,0-.4.4-.5.7-.1.3-.2.7-.2,1.1s0,.8.2,1.1c.1.3.3.5.5.7.2,0,.5.2.8.2h.8c.2,0,.5-.2.7-.3v1c-.2,0-.4.2-.7.3h-1ZM240.5,100.3v1h0c.1-.2.3-.4.4-.5l.6-.3c.2,0,.5,0,.7,0,.4,0,.8,0,1.1.2.3,0,.5.4.7.7.2.3.2.7.2,1.2v3.7h-1.1v-3.6c0-.4,0-.8-.3-1-.2-.2-.5-.3-.9-.3s-.7,0-.9.2-.4.4-.5.7c0,.3-.1.7-.1,1.1v2.9h-1.1v-8.1h1.1v2.1h.1Z"/>
      <path class="st11" d="M253.1,87.1h85.7v32.3h-85.7v-32.3h0Z"/>
      <path class="st14" d="M275.9,106.3h-4.3v-7.6h4.3v1h-3.1v2.2h3v1h-3v2.5h3.1v1h0ZM279.4,106.4c-.7,0-1.2-.2-1.7-.8-.4-.5-.6-1.2-.6-2.2s.2-1.7.6-2.2,1-.8,1.7-.8.6,0,.8,0c.2,0,.4.2.6.3.2,0,.3.3.4.4h0v-3h1.1v8.1h-.9l-.2-.8h0c-.1.2-.3.3-.4.5-.2,0-.3.2-.6.3-.2,0-.5,0-.8,0ZM279.7,105.5c.6,0,.9-.2,1.2-.5.2-.3.3-.8.3-1.4v-.2c0-.7-.1-1.2-.3-1.5-.2-.4-.6-.5-1.2-.5s-.8.2-1.1.6c-.2.4-.3.9-.3,1.5s.1,1.1.3,1.5c.2.3.6.5,1.1.5ZM289,100.6v5.8h-.9l-.2-.8h0c-.1.2-.3.4-.5.5s-.4.2-.6.3h-.7c-.4,0-.8,0-1.1-.2-.3,0-.6-.4-.7-.7-.2-.3-.2-.7-.2-1.2v-3.8h1.1v3.6c0,.4,0,.8.3,1,.2.2.5.3.9.3s.7,0,.9-.2c.2-.2.4-.4.5-.7,0-.3.1-.7.1-1.1v-2.9h1.1ZM293.1,106.4c-.5,0-1,0-1.4-.3-.4-.2-.7-.5-.9-1-.2-.4-.3-1-.3-1.7s.1-1.3.4-1.7c.2-.4.6-.8,1-1s.9-.3,1.4-.3h.9c.3,0,.5,0,.7.2l-.3.9c-.2,0-.4,0-.6-.2h-.6c-.4,0-.7,0-.9.2-.2,0-.4.4-.5.7-.1.3-.2.7-.2,1.1s0,.8.2,1.1c.1.3.3.5.5.7.2,0,.5.2.8.2h.8c.2,0,.5-.2.7-.3v1c-.2,0-.4.2-.7.3h-1ZM298.3,100.5c.7,0,1.2.2,1.6.5s.5.8.5,1.5v3.9h-.8l-.2-.8h0c-.2.2-.3.4-.5.5s-.4.2-.6.3h-.8c-.3,0-.6,0-.9-.2-.3,0-.5-.3-.6-.6-.2-.3-.2-.6-.2-1,0-.6.2-1,.7-1.3.4-.3,1.1-.5,2-.5h1v-.3c0-.4,0-.7-.3-.9-.2-.2-.5-.3-.8-.3s-.6,0-.8,0c-.3,0-.5.2-.8.3l-.3-.8c.3,0,.6-.3.9-.4.4,0,.8,0,1.2,0h-.3ZM298.5,103.6c-.7,0-1.1,0-1.4.3-.2.2-.4.4-.4.8s0,.5.3.7c.2,0,.4.2.7.2s.8,0,1.1-.4c.3-.3.4-.6.4-1.1v-.5h-.8,0ZM304.1,105.5h.5c.2,0,.3,0,.4,0v.9c-.1,0-.3,0-.5,0h-.6c-.3,0-.6,0-.9-.2-.3,0-.5-.3-.6-.6-.2-.3-.2-.6-.2-1.1v-3.2h-.8v-.5l.8-.4.4-1.2h.7v1.3h1.6v.9h-1.6v3.2c0,.3,0,.5.2.7.2,0,.4.2.6.2ZM307.3,100.6v5.8h-1.1v-5.8h1.1ZM306.7,98.4c.2,0,.3,0,.4.2.1,0,.2.3.2.5s0,.4-.2.5c-.1,0-.3.2-.4.2-.2,0-.3,0-.5-.2s-.2-.3-.2-.5,0-.4.2-.5c.1,0,.3-.2.5-.2ZM314.1,103.4c0,.5,0,.9-.2,1.3-.1.4-.3.7-.5.9-.2.3-.5.5-.9.6-.3,0-.7.2-1.1.2s-.7,0-1.1-.2c-.3,0-.6-.3-.9-.6-.2-.3-.4-.6-.6-.9-.1-.4-.2-.8-.2-1.3s.1-1.2.3-1.6c.2-.4.5-.8.9-1s.9-.3,1.5-.3,1,0,1.4.3c.4.2.7.6,1,1,.2.4.3,1,.3,1.6h.1ZM309.9,103.4c0,.4,0,.8.2,1.1.1.3.3.6.5.7.2.2.5.2.9.2s.6,0,.9-.2c.2-.2.4-.4.5-.7.1-.3.2-.7.2-1.1s0-.8-.2-1.1c-.1-.3-.3-.5-.5-.7s-.5-.3-.9-.2c-.5,0-.9.2-1.2.5-.2.4-.4.9-.4,1.5ZM318.4,100.5c.7,0,1.2.2,1.5.5.4.3.5.9.5,1.6v3.7h-1.1v-3.6c0-.4,0-.8-.3-1-.2-.2-.5-.3-.9-.3-.6,0-1,.2-1.2.5s-.3.8-.3,1.5v2.9h-1.1v-5.8h.9l.2.8h0c.1-.2.3-.4.5-.5s.4-.2.6-.3h.7,0Z"/>
      <path class="st11" d="M472,364.7h-41.3v-26.8h0"/>
      <path class="st2" d="M472,364.7h-41.3v-23.4"/>
      <path class="st10" d="M430.8,341.3l1.1,1.1-1.1-3.1-1.1,3.1,1.1-1.1Z"/>
      <path class="st11" d="M478.4,187.1c0-71.4-45.6-128.1-91.2-142.8-45.6-14.7-91.2,12.5-91.2,25"/>
      <path class="st1" d="M478.4,187.1c0-71.4-45.6-128.1-91.2-142.8-22.8-7.4-45.6-4.2-62.7,2.3-8.5,3.3-15.7,7.4-20.7,11.5-2.5,2-4.5,4.1-5.8,6-.3.5-.6.9-.9,1.4,0,0-.1.2-.2.3v.2"/>
      <path class="st1" d="M658.9,68.5v-.2c-.1-.1-.2-.2-.2-.3-.3-.5-.6-.9-.9-1.4-1.3-1.9-3.3-4-5.8-6-5-4.1-12.2-8.2-20.7-11.5-17.1-6.5-39.9-9.7-62.7-2.3-45.6,14.7-91.2,71.4-91.2,142.8"/>
      <path class="st12" d="M296.9,66l-.8-1.4.3,3.3,1.9-2.7s-1.4.8-1.4.8Z"/>
      <path class="st11" d="M478.4,187.1c0-71.4-64.1-128.1-128.2-142.8-64.1-14.7-128.2,12.5-128.2,25"/>
      <path class="st1" d="M478.4,187.1c0-71.4-64.1-128.1-128.2-142.8-32.1-7.4-64.1-4.2-88.1,2.3-12,3.3-22,7.4-29,11.5-3.5,2-6.3,4.1-8.1,6-1.8,1.9-.9.9-1.2,1.4,0,0-.2.2-.3.3l-.2.3"/>
      <path class="st12" d="M223.1,66.1l-.7-1.4v3.3l2.1-2.5-1.4.7h0Z"/>
      <path class="st11" d="M478.4,187.1c0-71.4-82.8-128.1-165.5-142.8-82.8-14.7-165.5,12.5-165.5,25"/>
      <path class="st1" d="M478.4,187.1c0-71.4-82.8-128.1-165.5-142.8-41.4-7.4-82.8-4.2-113.8,2.3-15.5,3.3-28.5,7.4-37.5,11.5-4.5,2-8.1,4.1-10.5,6-.6.5-1.1.9-1.6,1.4s-.4.5-.6.7h0"/>
      <path class="st12" d="M148.7,66.2l-.6-1.5-.3,3.3,2.3-2.3-1.5.6h.1Z"/>
      <path class="st12" d="M658.7,66l-1.4-.8,1.9,2.7.3-3.3s-.8,1.4-.8,1.4Z"/>
      <path class="st11" d="M477.2,187.1c0-71.4,64.1-128.1,128.2-142.8,64.1-14.7,128.2,12.5,128.2,25"/>
      <path class="st1" d="M477.2,187.1c0-71.4,64.1-128.1,128.2-142.8,32.1-7.4,64.1-4.2,88.1,2.3,12,3.3,22,7.4,29,11.5,3.5,2,6.3,4.1,8.1,6,.5.5.9.9,1.2,1.4,0,0,.2.2.3.3l.2.3"/>
      <path class="st12" d="M732.4,66.1l-1.4-.7,2.1,2.5v-3.3l-.7,1.4h0Z"/>
      <path class="st11" d="M477.2,187.1c0-71.4,82.8-128.1,165.5-142.8,82.8-14.7,165.5,12.5,165.5,25"/>
      <path class="st1" d="M477.2,187.1c0-71.4,82.8-128.1,165.5-142.8,41.4-7.4,82.8-4.2,113.8,2.3,15.5,3.3,28.5,7.4,37.5,11.5,4.5,2,8.1,4.1,10.5,6,.6.5,1.1.9,1.6,1.4.2.2.4.5.6.7h0"/>
      <path class="st12" d="M806.9,66.2l-1.5-.6,2.3,2.3-.3-3.3-.6,1.5h0Z"/>
    </g>
  </g>
</svg>